<svg width="42" height="42" viewBox="0 0 42 42" fill="none" xmlns="http://www.w3.org/2000/svg">
<mask id="mask0_1097_43769" style="mask-type:alpha" maskUnits="userSpaceOnUse" x="0" y="0" width="42" height="42">
<path d="M41.9999 21C41.9999 32.598 32.5979 42 20.9999 42C9.40196 42 -6.10352e-05 32.598 -6.10352e-05 21C-6.10352e-05 9.40202 9.40196 0 20.9999 0C32.5979 0 41.9999 9.40202 41.9999 21Z" fill="#0E052F"/>
</mask>
<g mask="url(#mask0_1097_43769)">
<path d="M42.4016 21.2045C42.4016 9.41799 32.8467 -0.136902 21.0601 -0.136902C9.27357 -0.136902 -0.281311 9.41799 -0.281311 21.2045C-0.281311 32.9911 9.27357 42.546 21.0601 42.546C32.8467 42.546 42.4016 32.9911 42.4016 21.2045Z" fill="url(#paint0_radial_1097_43769)"/>
<path d="M35.5726 14.5431C35.4833 15.0655 35.3786 15.3188 35.2563 15.612L35.256 15.6127C35.1238 15.9304 34.9738 16.2911 34.8381 17.0067C34.784 17.2931 34.7571 17.5033 34.7337 17.6885L34.732 17.7L34.7307 17.7108C34.6929 18.0073 34.6676 18.2072 34.5471 18.5628C34.4493 18.8531 34.2858 19.3378 33.892 19.8597C33.5739 20.282 33.0414 20.9889 32.3308 21.0735C32.2692 21.0777 32.1401 21.0841 32.0875 21.0572C30.0717 20.0278 28.3399 19.2674 27.7405 19.0967C27.0432 18.8991 27.1325 17.3789 27.2114 16.0376C27.2468 15.4381 27.2802 14.8714 27.2521 14.386C27.1541 12.6928 26.8544 10.8395 25.3797 9.93596C24.4994 9.39678 23.3638 9.23852 22.2787 9.23622C22.4798 9.14053 22.7041 9.01057 22.9484 8.86841L22.9559 8.86405C23.5947 8.49417 24.3878 8.03481 25.1759 7.95407C25.4335 7.92854 25.6868 7.89886 25.9366 7.87103C27.5251 7.69115 28.8977 7.53658 30.3452 8.03228C31.0015 8.25747 32.3476 9.0085 32.6952 9.7057C32.9399 10.198 33.3528 10.5816 34.1765 11.3474C34.6053 11.7463 34.8878 11.9783 35.0946 12.1481L35.104 12.1559C35.3943 12.3947 35.4516 12.4446 35.538 12.621C35.8049 13.165 35.7076 13.7429 35.5726 14.5431Z" fill="white"/>
<path d="M28.2399 21.5036C28.3354 21.5365 28.3711 21.6525 28.3156 21.7367C28.1003 22.0633 27.8537 22.5114 27.5581 23.0593C27.4194 23.3176 27.2881 23.5614 27.1779 23.7517C26.7873 24.4224 26.7556 24.9869 26.7307 25.44C26.7038 25.9139 26.6799 26.1315 26.3968 26.3204C26.163 26.477 25.9236 26.5292 24.264 26.782C23.9744 26.8269 23.8458 26.883 23.7328 26.9322C23.702 26.9456 23.6714 26.9589 23.6365 26.972C23.5405 27.0079 23.4467 26.9262 23.4524 26.8243C23.4656 26.5851 23.4741 26.2863 23.475 25.9105V25.8385C23.4837 25.5132 23.4702 25.2494 23.4584 25.0366C23.4366 24.6129 23.4338 24.4344 23.5467 24.2499C23.6854 24.027 23.7936 23.9589 23.9714 23.8462C24.2196 23.6903 24.56 23.4756 25.0638 22.7833C25.3315 22.4166 25.3909 22.2179 25.4279 22.046C25.444 21.9747 25.4497 21.948 25.6558 21.7919C25.8737 21.6265 26.5378 21.1234 27.3877 21.2663C27.6228 21.306 27.9223 21.3939 28.2399 21.5036Z" fill="white"/>
<path d="M21.6365 29.1554C21.6004 29.2025 21.558 29.2244 21.4971 29.2274C21.3236 29.2347 21.2017 29.1917 21.121 29.0946C20.9498 28.8862 20.9728 28.4676 21.0129 28.2228L21.7147 28.0358C21.7696 28.4073 21.7954 28.9486 21.6365 29.1554Z" fill="white"/>
<path d="M21.6935 26.6226C21.6817 26.7249 21.6689 26.8402 21.6693 26.9607C21.6702 27.0055 21.6707 27.0509 21.6721 27.0948C21.6735 27.2096 21.6781 27.3917 21.6622 27.4746C21.443 27.5544 21.2557 27.5544 21.0096 27.55C21.0059 27.4789 21.0105 27.3729 21.0133 27.3013C21.0147 27.2461 21.0177 27.1912 21.0183 27.1387C21.019 27.0805 21.0183 27.0232 21.0183 26.966C21.0174 26.8309 21.0156 26.6097 21.0487 26.5446C21.1147 26.5349 21.1824 26.5204 21.2548 26.5039C21.4 26.4726 21.5893 26.4325 21.7098 26.4507C21.708 26.4976 21.7006 26.5673 21.6935 26.6226Z" fill="white"/>
<path d="M20.3951 28.9394C20.3613 29.2991 20.2502 29.744 19.9127 29.8116C19.7609 29.8429 19.6875 29.7971 19.6413 29.7537C19.4134 29.5425 19.377 28.9044 19.4088 28.4481C19.5606 28.4508 19.7595 28.4168 19.9951 28.3712C20.1389 28.3427 20.2819 28.311 20.3958 28.2847C20.4089 28.4536 20.4183 28.6946 20.3951 28.9394Z" fill="white"/>
<path d="M20.2352 27.6478L19.4738 27.9149C19.5125 27.6193 19.564 27.2034 19.5822 26.9272C19.5953 26.7326 19.6482 26.673 19.6634 26.6601C19.6684 26.6557 19.6785 26.6465 19.7068 26.6465C19.7112 26.6465 19.7156 26.6472 19.7204 26.6472L19.7365 26.6495L20.2175 26.6233C20.238 26.8494 20.238 27.346 20.2352 27.6478Z" fill="white"/>
<path d="M19.0052 27.4111C18.9622 27.5257 18.9114 27.8502 18.8796 28.0786L17.926 28.0497C17.9798 27.7543 18.0543 27.4537 18.1362 27.2142C18.219 26.9761 18.3083 26.7976 18.3904 26.7475C18.4861 26.69 18.6968 26.6771 18.8258 26.7873C19.0356 26.9663 19.0936 27.171 19.0052 27.4111Z" fill="white"/>
<path d="M18.6492 30.3301C18.5754 30.4311 18.4933 30.4824 18.3916 30.4932C18.2878 30.5049 18.2071 30.4817 18.1427 30.4214C17.8432 30.145 17.8676 29.2391 17.8786 28.8037C18.274 28.7135 18.701 28.6369 18.9034 28.6252C18.9337 28.9898 18.9425 29.931 18.6492 30.3301Z" fill="white"/>
<path d="M17.4043 28.0238C17.3579 28.1481 17.3128 28.2654 17.2787 28.3693C17.1678 28.4041 16.8288 28.3737 16.4826 28.2974L16.7207 26.7964C17.1117 26.6927 17.5653 26.6593 17.6751 26.7755C17.8195 26.9289 17.5292 27.6968 17.4043 28.0238Z" fill="white"/>
<path d="M16.9728 30.5586C16.7879 30.7865 16.5105 30.893 16.1236 30.8889C15.8558 30.8845 15.7602 30.7828 15.7123 30.7067C15.4975 30.3665 15.7077 29.5644 15.9184 29.0521L17.2102 29.1296C17.2233 29.2196 17.2342 29.3291 17.2392 29.4482C17.2535 29.8128 17.2077 30.2669 16.9728 30.5586Z" fill="white"/>
<path d="M27.6483 19.6669C26.4853 19.3375 26.5853 17.6369 26.6822 15.9934C26.7164 15.4119 26.7489 14.8619 26.7224 14.4124C26.6332 12.874 26.3744 11.1985 25.1371 10.4401C23.8062 9.6263 21.629 9.81171 20.2857 9.98261C20.2845 9.98284 20.2834 9.98353 20.2822 9.98376C20.2815 9.98376 20.2811 9.98376 20.2806 9.98399C19.7886 10.133 19.3283 10.2297 18.9715 10.2108C18.1789 10.1698 17.5622 9.83609 17.0191 9.54327C16.5954 9.3137 16.2257 9.11542 15.8777 9.11542C15.8593 9.11542 15.84 9.11542 15.8209 9.11611C14.7796 9.18374 14.3009 9.43814 13.8661 9.82619C13.7569 9.9228 13.6235 10.2032 13.1869 11.4612C12.9665 12.097 12.9258 12.4448 12.8848 12.7829C12.848 13.0919 12.8105 13.4095 12.6463 13.8834C12.532 14.2105 12.4476 14.4925 12.3659 14.7644C12.1506 15.4869 11.9804 16.0559 11.469 16.7327C11.409 16.8127 11.3347 16.9305 11.2487 17.0646C11.1328 17.2472 10.9892 17.4743 10.7999 17.7372C10.6663 17.9224 10.3594 18.6154 10.3762 18.8266C10.4013 19.1629 10.5105 19.3715 10.6357 19.6151C10.7601 19.8553 10.9018 20.1271 10.9276 20.5025L10.9319 20.5635C10.9775 21.159 10.8926 21.4578 9.75974 22.4697C9.03539 23.1179 8.52082 23.7422 8.17371 24.2004C8.14312 24.2409 8.18292 24.3009 8.23352 24.2968C8.24525 24.2952 8.25699 24.2945 8.2678 24.2945C8.28965 24.2927 8.31127 24.292 8.33289 24.292C8.35452 24.292 8.37636 24.2927 8.39776 24.2936C8.41961 24.2945 8.44055 24.2961 8.46194 24.2993C8.7359 24.3306 9.00296 24.4465 9.19572 24.6462C9.2293 24.6809 9.28151 24.6904 9.32614 24.6724C9.51062 24.5956 9.71327 24.6083 9.90695 24.6264C10.1462 24.6485 10.3877 24.72 10.5464 24.8744C10.5943 24.9211 10.6626 24.9448 10.7279 24.9298C10.9154 24.8873 11.112 24.8912 11.2945 24.9574C11.4385 25.011 11.5594 25.0957 11.6556 25.2022C11.7228 25.2767 11.8419 25.291 11.9261 25.2367C11.9786 25.2029 12.0363 25.1743 12.1005 25.1527C12.3464 25.0692 12.6185 25.1168 12.8572 25.2026C12.9748 25.245 13.0981 25.2827 13.2041 25.3535C13.399 25.4833 13.5179 25.6728 13.5938 25.8847C13.6368 26.004 13.7976 26.0455 13.8951 25.9643C14.0704 25.8184 14.2091 25.7938 14.349 25.8559C14.4203 25.8881 14.4699 25.9323 14.5033 25.9877C14.5615 26.0841 14.68 26.1634 14.7883 26.1331C15.169 26.027 15.6456 26.0823 15.9909 26.2672C16.1128 26.3311 16.2326 26.4289 16.32 26.5766C16.3203 26.5766 16.3203 26.5766 16.3203 26.5768C16.3205 26.5775 16.3212 26.5773 16.3212 26.5766L16.3313 26.511C16.3359 26.4813 16.3568 26.4567 16.3856 26.4478L16.4656 26.4231C16.6543 26.3631 17.6153 26.0862 17.9891 26.4797C18.0052 26.4958 18.0333 26.4974 18.0489 26.4807C18.0997 26.4248 18.1411 26.3942 18.1676 26.379C18.411 26.2313 18.8284 26.2221 19.1061 26.46C19.162 26.5069 19.2526 26.4899 19.2947 26.43C19.3207 26.3935 19.3501 26.361 19.3833 26.3332C19.4808 26.249 19.6043 26.2088 19.7412 26.2173L20.2691 26.1888C20.4018 26.1814 20.8145 26.1533 20.9444 26.126C20.9543 26.1239 20.9645 26.122 20.9748 26.1204C21.0298 26.1119 21.0951 26.0979 21.1634 26.0836C21.4194 26.0277 21.71 25.9649 21.9485 26.0751C22.1776 26.1812 22.1486 26.4422 22.121 26.6725C22.1102 26.7659 22.0985 26.8634 22.0994 26.9561C22.101 26.9994 22.1019 27.0428 22.1026 27.0872C22.1061 27.2857 22.1102 27.4691 22.0709 27.6098C22.0709 27.6101 22.0709 27.6105 22.0709 27.6108C22.0709 27.611 22.0709 27.6112 22.0709 27.6115L22.095 27.7205C22.0962 27.7246 22.0973 27.7299 22.0987 27.7364C22.1203 27.8362 22.2275 27.8919 22.3147 27.8387C22.4987 27.7265 22.6922 27.5806 22.7506 27.4967C22.755 27.4902 22.7584 27.4836 22.7609 27.4762C22.769 27.455 22.7839 27.4093 22.8003 27.3136C22.8329 27.1174 22.8695 26.7187 22.8727 25.9093C22.8727 25.8665 22.8727 25.8359 22.8737 25.8216C22.8803 25.5212 22.8686 25.2802 22.8569 25.0674C22.8352 24.6285 22.8175 24.2832 23.0354 23.9318C23.2474 23.5897 23.4533 23.4604 23.6511 23.3351C23.8812 23.1908 24.1409 23.0271 24.5781 22.4274C24.7925 22.132 24.819 22.0129 24.8399 21.9177C24.8875 21.6948 24.9611 21.5607 25.2921 21.3104C25.5617 21.1068 26.3818 20.4853 27.4882 20.6714C27.8509 20.733 28.4391 20.9265 29.0195 21.1551C29.0197 21.1554 29.0199 21.1554 29.0204 21.1554C29.0206 21.1554 29.0208 21.1554 29.0211 21.1554C29.0427 21.1618 29.065 21.1694 29.0855 21.1802C29.0928 21.1841 29.1004 21.1878 29.1082 21.191C29.6267 21.398 30.1312 21.6292 30.4543 21.8139C30.5296 21.8569 30.6259 21.8321 30.6788 21.7633C30.7847 21.626 30.9001 21.5464 31.0246 21.4716C31.0713 21.4433 31.1072 21.4217 31.1414 21.3925C31.1532 21.3826 31.1647 21.373 31.1759 21.3638C31.2725 21.2856 31.2723 21.1183 31.1617 21.0613C29.6023 20.255 28.1336 19.8049 27.6483 19.6669ZM16.5662 20.0248C16.2064 21.5991 13.7677 23.3295 12.6592 23.3295H12.6373C12.6199 23.3286 12.6005 23.327 12.5798 23.3236C12.5589 23.3203 12.5364 23.3153 12.5124 23.3086C12.5007 23.3052 12.4881 23.301 12.4756 23.2978C12.2744 23.2343 11.9958 23.0797 11.7849 22.8723C11.6397 22.7299 11.5254 22.5617 11.4895 22.3807C11.4828 22.349 11.4762 22.3174 11.4693 22.2857C11.4095 22.018 11.3349 21.6835 11.5712 21.136C11.6038 21.0627 11.6328 20.9941 11.6595 20.9315C11.668 20.9108 11.6772 20.8899 11.6855 20.8699C11.7106 20.8108 11.7329 20.7565 11.7531 20.7073C11.7865 20.624 11.8139 20.5532 11.8364 20.4929C11.8456 20.4694 11.8541 20.4469 11.8615 20.4262C11.9291 20.2369 11.9374 20.166 11.9466 20.0926C11.9551 20.0351 11.9634 19.9648 11.9868 19.8647C12.0561 19.5693 12.092 19.3191 12.1237 19.0962C12.1805 18.6955 12.2297 18.3495 12.4457 18.0316C12.4825 17.9776 12.5232 17.9281 12.5693 17.8849C12.5851 17.8699 12.6003 17.8557 12.6166 17.8414C12.6334 17.8271 12.6502 17.8147 12.6666 17.8021C12.719 17.7653 12.7751 17.7328 12.8358 17.7052C12.8568 17.696 12.8777 17.6868 12.8984 17.6795C12.9412 17.6636 12.9861 17.65 13.033 17.6383C13.2315 17.5902 13.4659 17.5826 13.7352 17.6167C14.0299 17.6401 14.3027 17.6958 14.5445 17.7634C14.7464 17.8191 14.9268 17.8844 15.0793 17.9451C15.0952 17.9511 15.1103 17.9569 15.1253 17.9635C15.1545 17.9753 15.1828 17.987 15.2104 17.9997C15.2523 18.0171 15.2904 18.0339 15.3263 18.0496C15.3739 18.0712 15.4174 18.0905 15.4558 18.1078L15.4917 18.1246C15.6619 18.2021 15.8082 18.2872 15.9331 18.3764C15.9948 18.4218 16.0525 18.4675 16.104 18.514C16.1218 18.5292 16.1385 18.545 16.154 18.5616C16.1707 18.5777 16.1866 18.5936 16.2016 18.6095C16.6701 19.1029 16.6469 19.6735 16.5662 20.0248ZM17.6963 14.0577L17.6489 14.3432C17.5396 14.9863 17.2884 15.8682 16.3624 16.0953C15.4715 16.3131 15.2603 16.3596 14.6261 16.3881C14.6121 16.3897 14.5969 16.3897 14.582 16.3897C14.1189 16.3897 13.2278 16.0978 13.07 15.3719C12.969 14.9047 13.1751 14.5661 13.5147 14.0046C13.5712 13.9119 13.6324 13.8125 13.6973 13.7016C14.1461 12.9456 14.323 12.3983 14.4651 11.9594C14.6034 11.5307 14.7186 11.1762 15.0149 10.8825C15.0832 10.8141 15.1607 10.7497 15.2509 10.6881C15.3084 10.6488 15.3684 10.6138 15.4319 10.5811C15.5161 10.5393 15.6044 10.5029 15.6971 10.4735C15.9032 10.4077 16.1259 10.3743 16.3488 10.3743C16.7808 10.3743 17.2123 10.4986 17.5201 10.7456C17.6585 10.8565 17.8554 11.0782 17.9698 11.7324C18.0287 12.0694 17.9284 12.6886 17.6963 14.0577ZM24.3033 15.8883C23.9844 16.4355 23.8101 16.7368 23.5347 16.9627C22.9884 17.4115 22.351 17.5251 21.8261 17.5251C21.4491 17.5251 21.1289 17.4669 20.9403 17.4324C20.3979 17.3333 19.3886 17.1497 19.0523 16.3529C18.9865 16.1953 18.9858 16.0953 18.9858 15.9683C18.9858 15.8429 18.9858 15.6322 18.9274 15.1306L18.9241 15.0972C18.8972 14.8702 18.8673 14.6132 18.9324 14.2836L18.94 14.2443C19.1302 13.2768 19.1818 13.1289 19.2246 13.0454C19.323 12.8552 19.5565 12.7802 19.7467 12.8779C19.931 12.9738 20.0078 13.1972 19.9211 13.3849C19.9017 13.4399 19.8477 13.646 19.7007 14.3945L19.6931 14.4338C19.6512 14.645 19.6696 14.8051 19.694 15.008L19.6973 15.0422C19.7605 15.5869 19.7605 15.8337 19.7605 15.9674C19.7605 15.9911 19.7605 16.0168 19.7614 16.0323C19.7617 16.0382 19.7646 16.0461 19.7665 16.0518C19.8295 16.2013 19.9717 16.3147 20.1449 16.4019C20.2525 16.456 20.365 16.3531 20.3411 16.2351C20.1688 15.3824 20.1782 14.3878 20.5039 13.7732C20.6107 13.5691 20.808 13.2352 20.9955 12.9235C20.9962 12.9226 20.9967 12.9219 20.9971 12.9209C20.9976 12.92 20.9983 12.9193 20.9987 12.9184C21.0178 12.8869 21.0367 12.8558 21.0555 12.8246C21.0714 12.7976 21.0873 12.7721 21.102 12.747C21.1846 12.6099 21.2621 12.4841 21.3242 12.3841C21.3325 12.3698 21.3408 12.3555 21.3493 12.3422C21.355 12.3321 21.361 12.3229 21.3668 12.3146C21.3801 12.2927 21.3918 12.2727 21.4029 12.2555C21.4077 12.2472 21.4128 12.2396 21.4169 12.232C21.4194 12.2288 21.4213 12.2253 21.4229 12.2228C21.4286 12.2127 21.4346 12.2035 21.4397 12.1961C21.4496 12.1803 21.4572 12.1685 21.4613 12.1609C21.4618 12.1603 21.462 12.1598 21.4622 12.1591C21.4632 12.1575 21.465 12.155 21.4659 12.1534C21.4666 12.1522 21.4668 12.152 21.4675 12.1508C21.5322 12.0567 21.5961 11.9673 21.6582 11.8831C21.7426 11.7688 21.6449 11.619 21.5133 11.6728C21.1968 11.8019 20.9806 11.9668 20.9366 12.0015C20.7689 12.1352 20.5251 12.1076 20.3926 11.9399C20.2599 11.7724 20.2875 11.5279 20.4552 11.3943C20.6546 11.2376 21.7116 10.4666 22.9774 10.8286C23.8894 11.0881 24.3674 11.7849 24.5475 12.0469C24.6927 12.2596 25.1376 12.9055 25.1233 13.8072C25.1127 14.495 24.8259 14.9898 24.3033 15.8883Z" fill="white"/>
<path d="M16.0825 11.1721C16.0176 11.3289 15.9401 11.5233 15.8569 11.7345C15.6623 12.2235 15.4417 12.7774 15.3356 12.9782C15.1528 13.3253 15.0104 13.5443 14.8967 13.7207C14.7665 13.9234 14.6628 14.0837 14.5846 14.3073C14.4473 14.6983 14.4227 15.1354 14.5119 15.6106C14.2695 15.5839 13.8727 15.4169 13.8278 15.2065C13.7942 15.0498 13.8915 14.8784 14.1784 14.4067C14.2359 14.3126 14.2975 14.2102 14.3649 14.0964C14.8579 13.2662 15.0573 12.6486 15.2041 12.197C15.3623 11.7057 15.4371 11.4996 15.6889 11.3276C15.8017 11.2491 15.9388 11.1992 16.0825 11.1721Z" fill="white"/>
<path d="M15.6011 28.5812C15.3325 29.13 14.998 29.6365 14.7896 29.8875C14.6171 29.421 14.3171 28.3521 14.3963 27.492C14.3986 27.4672 14.4013 27.4425 14.405 27.4186C14.4368 27.1529 14.5074 26.9093 14.633 26.7141C14.7158 26.5857 14.9451 26.5073 15.2055 26.5073C15.3978 26.5073 15.6069 26.5494 15.787 26.646H15.7884C15.8848 26.6975 16.0161 26.8019 16.0299 27.1053C16.0497 27.5152 15.8544 28.0661 15.6011 28.5812Z" fill="white"/>
<path d="M30.3214 22.431C30.3421 22.4478 30.3553 22.4731 30.3433 22.497C30.263 22.6583 30.1669 22.7715 30.0532 22.9046C29.9161 23.068 29.7593 23.2531 29.6134 23.5418C29.4057 23.951 29.3392 24.3244 29.3043 25.2801C29.2631 26.4029 29.3066 27.0336 29.3392 27.4934C29.3703 27.9376 29.3894 28.2053 29.3103 28.6385C29.1506 29.5123 28.7768 30.0908 28.3034 30.823C27.7111 31.7387 27.0986 32.6853 26.0842 32.9871C25.9899 33.0161 25.9866 33.0161 25.7221 33.017C25.4918 33.017 25.1089 33.0179 24.3838 33.0446C23.0587 33.0927 22.3939 33.1166 21.825 33.2258C21.2283 33.3413 20.9171 33.4683 20.6153 33.5902C20.343 33.7004 20.0856 33.805 19.5922 33.9065C19.298 33.9658 18.8584 34.0307 17.3605 34.033C15.8037 34.0358 14.8638 34.0364 13.6228 33.895C11.9202 33.7006 11.0654 33.6033 10.4977 33.3001C9.15874 32.5859 8.59334 31.3015 7.65806 29.1735C7.65645 29.1698 7.65483 29.1661 7.65322 29.1622C7.64172 29.1358 7.67393 29.1102 7.69877 29.125C7.74317 29.1526 7.7894 29.1753 7.83816 29.1917C7.87911 29.2062 7.92166 29.2172 7.96467 29.2243C8.05024 29.2388 8.1395 29.2398 8.23013 29.2243C8.246 29.2216 8.26049 29.2179 8.27452 29.2121C8.27728 29.211 8.27981 29.2096 8.28257 29.2085C8.29844 29.2006 8.31799 29.2071 8.32466 29.2234C8.38424 29.3874 8.47878 29.5335 8.6375 29.6177C8.79645 29.7005 8.97725 29.7069 9.15413 29.7055C9.33631 29.7028 9.51987 29.6924 9.70136 29.6706C9.79751 29.6605 9.89596 29.7076 9.93276 29.7971C10.0991 30.2001 10.3049 30.4918 10.6143 30.5348C10.6311 30.5371 10.653 30.5398 10.6806 30.5398C10.7503 30.5398 10.8579 30.5196 11.0097 30.4152C11.1273 30.3347 11.3092 30.382 11.3937 30.4968C11.4709 30.6015 11.5629 30.6767 11.6421 30.7402C11.9607 31.0673 12.7349 31.2242 13.3852 31.2242C13.7399 31.2242 14.058 31.1775 14.2453 31.0864C14.513 30.9564 14.513 30.757 14.4999 30.6762C14.4771 30.5316 14.4564 30.388 14.4389 30.2459C14.4369 30.2289 14.4626 30.2222 14.4695 30.2381C14.5084 30.3229 14.556 30.4287 14.6828 30.4492C14.6966 30.4506 14.712 30.4536 14.7295 30.4536C14.9107 30.4536 15.1927 30.5127 15.2413 30.6873C15.2661 30.7763 15.3011 30.8596 15.3487 30.9348C15.4575 31.1071 15.679 31.3123 16.1181 31.3196H16.1522C16.6564 31.3196 17.0456 31.1547 17.308 30.8288C17.3251 30.8078 17.3414 30.7862 17.357 30.7643C17.4513 30.6314 17.7315 30.6256 17.8514 30.7361C17.9864 30.861 18.1564 30.9254 18.3457 30.9254C18.376 30.9254 18.4069 30.924 18.4386 30.9203C18.6643 30.8964 18.8596 30.7768 19.0054 30.5727C19.1009 30.4396 19.1705 30.2758 19.2214 30.0987C19.2363 30.0464 19.3081 30.031 19.3481 30.0676C19.4445 30.1569 19.5991 30.2512 19.822 30.2512C19.8763 30.2512 19.9352 30.2454 19.9977 30.2323C20.4357 30.1442 20.6537 29.7817 20.757 29.3725C20.7605 29.3587 20.7803 29.355 20.7895 29.3658C20.9003 29.5008 21.1051 29.6568 21.4614 29.6568C21.4795 29.6568 21.4984 29.6568 21.517 29.6559C21.7057 29.6471 21.8646 29.5643 21.9794 29.4162C22.119 29.2342 22.174 28.9644 22.1866 28.693C22.1903 28.6139 22.2414 28.5444 22.3145 28.5138C22.6904 28.3567 23.1456 28.0183 23.279 27.7878C23.2836 27.7798 23.2882 27.7713 23.2928 27.7625C23.3234 27.7032 23.3759 27.6563 23.4414 27.6438C23.7326 27.5886 23.8596 27.5337 23.9751 27.4835C24.0691 27.4421 24.1448 27.4094 24.3565 27.3765C26.0402 27.1196 26.3689 27.063 26.7333 26.8201C27.2782 26.4567 27.3058 25.9564 27.3327 25.4724C27.3557 25.0632 27.382 24.5988 27.6999 24.0538C27.8153 23.8549 27.9485 23.6067 28.0902 23.344C28.3382 22.8842 28.6846 22.2403 28.9326 21.9029C28.9792 21.8392 29.0637 21.8194 29.1364 21.8502C29.7183 22.0975 30.214 22.345 30.3214 22.431Z" fill="white"/>
<path d="M13.9696 27.4413C13.9029 28.0235 13.8622 28.8012 13.9565 29.8142C13.9832 30.1001 14.0205 30.3969 14.0667 30.6975C13.9869 30.741 13.7486 30.8019 13.3249 30.7953C12.716 30.7831 12.1232 30.6299 11.9452 30.4373L11.9176 30.4125C11.7695 30.2936 11.6724 30.2151 11.6586 30.0026C11.654 29.9308 11.6848 29.8597 11.7506 29.7592C11.7869 29.7026 11.8348 29.6373 11.8941 29.5568C11.9965 29.4195 12.1235 29.2483 12.2534 29.0275C12.6346 28.3837 12.779 28.1849 12.9626 27.9338C12.9771 27.9135 12.9925 27.893 13.0084 27.8721C13.1165 27.724 13.2435 27.5469 13.4344 27.2559C13.5765 27.0399 13.6948 26.8706 13.7923 26.7376C13.9549 26.5166 14.0614 26.3965 14.1297 26.3312C14.1196 26.4315 14.0971 26.5722 14.0752 26.7022C14.043 26.9021 14.0023 27.1466 13.9696 27.4413Z" fill="white"/>
<path d="M13.6909 18.3905C13.6872 18.3955 13.6828 18.4006 13.6791 18.4059C13.6 18.5156 13.5094 18.6396 13.4013 18.8811C13.111 19.5263 13.1055 19.8916 13.1009 20.1854C13.0981 20.3393 13.0965 20.4619 13.0544 20.6049C13.0254 20.6992 12.9783 20.8074 12.9237 20.932C12.7526 21.324 12.529 21.8379 12.6293 22.5293C12.4906 22.4626 12.2785 22.3101 12.2491 22.2289C12.2417 22.1912 12.2337 22.1541 12.2252 22.1171C12.1771 21.9013 12.1453 21.7608 12.2824 21.445C12.6431 20.6132 12.6875 20.4161 12.7158 20.1895C12.7216 20.1401 12.7275 20.1016 12.742 20.0391C12.8182 19.7111 12.858 19.4302 12.8906 19.2045C12.9392 18.862 12.9718 18.6355 13.0873 18.465C13.1294 18.402 13.2485 18.3693 13.419 18.3693C13.4864 18.3693 13.5625 18.3744 13.6456 18.3861L13.6649 18.3875C13.6734 18.3884 13.6824 18.3891 13.6909 18.3905Z" fill="white"/>
<path d="M13.215 26.5955C13.1954 26.396 13.1604 26.1961 13.088 26.0082C13.0829 25.9988 13.0613 25.9507 13.0567 25.9415C13.0436 25.9176 13.0286 25.895 13.0146 25.8713C13.0137 25.8704 13.0132 25.8704 13.0132 25.8697C13.0123 25.8684 13.0118 25.8684 13.0118 25.8677C13.0038 25.8589 12.9964 25.8504 12.9886 25.8421C12.9769 25.8304 12.9642 25.8191 12.9516 25.8088C12.9493 25.806 12.9472 25.8037 12.9451 25.8028C12.9394 25.798 12.9306 25.7911 12.9212 25.7856C12.9058 25.7775 12.8913 25.7688 12.8764 25.7612C12.8718 25.7582 12.8609 25.7538 12.8508 25.7501C12.8508 25.7501 12.8501 25.7501 12.8501 25.7494C12.8478 25.7485 12.8455 25.7481 12.8437 25.7471C12.8414 25.7458 12.84 25.7448 12.8386 25.7444C12.8363 25.7435 12.835 25.743 12.8336 25.743C12.8322 25.743 12.8322 25.7421 12.8322 25.7421C12.8276 25.7398 12.8248 25.7393 12.8228 25.7384C12.7066 25.6958 12.5888 25.6491 12.4655 25.631C12.4648 25.631 12.4628 25.6303 12.4612 25.6303H12.4584C12.4446 25.6303 12.4163 25.6275 12.4149 25.6275C12.3977 25.6266 12.3809 25.6266 12.3641 25.6275C12.356 25.6275 12.3482 25.6275 12.3409 25.6282H12.3344C12.3317 25.6282 12.3282 25.6291 12.3245 25.6291C12.3231 25.6305 12.3208 25.6305 12.3199 25.6305C12.3192 25.6305 12.3185 25.6305 12.3185 25.6305C12.2909 25.6386 12.262 25.6459 12.2344 25.6544C12.2226 25.6604 12.2097 25.6662 12.198 25.6735C12.1881 25.6793 12.1778 25.6866 12.1676 25.6917C12.167 25.6924 12.1656 25.6938 12.164 25.6938L12.1619 25.6961C12.1488 25.7092 12.135 25.7214 12.1219 25.7345C12.1175 25.7391 12.1053 25.754 12.0966 25.7651C12.0943 25.7665 12.0929 25.7678 12.0929 25.7692C12.0922 25.7699 12.0922 25.7699 12.0915 25.7706C12.0908 25.7713 12.0908 25.772 12.0892 25.7727C12.0885 25.7736 12.0885 25.7743 12.0878 25.7743C12.0844 25.7805 12.0807 25.7858 12.0793 25.7888C12.0326 25.8612 11.9855 25.9332 11.9369 26.0048C11.8251 26.1761 11.7106 26.3466 11.5944 26.5159C11.4884 26.6691 11.3826 26.8223 11.2772 26.9752C11.2183 27.061 11.1604 27.1457 11.1024 27.2315C11.0923 27.246 11.0829 27.2605 11.0734 27.275C11.1422 27.2881 11.2112 27.3016 11.2809 27.3148C11.4369 27.3433 11.5921 27.3706 11.7504 27.3923C12.0761 27.4367 12.4073 27.4571 12.7374 27.4454C12.7533 27.4445 12.7692 27.4454 12.7839 27.4482C12.8632 27.335 12.9566 27.2 13.0758 27.0192C13.1418 26.9182 13.2048 26.8248 13.2642 26.7383C13.2375 26.6969 13.2207 26.6475 13.215 26.5955Z" fill="white"/>
<path d="M12.0548 27.9415C12.0267 28.1927 11.7457 28.8428 11.3072 29.4618C10.9401 29.9793 10.7172 30.1049 10.6728 30.1093C10.4957 30.0847 10.3209 29.6463 10.1822 29.2115C10.1265 29.0353 10.0761 28.8596 10.034 28.7124C9.93904 28.3816 9.9218 27.9379 9.93836 27.6593C10.3087 27.8645 10.9587 27.9197 11.8719 27.9234H11.8747C11.935 27.9298 11.9945 27.9365 12.0548 27.9415Z" fill="white"/>
<path d="M11.4054 25.8734C11.4054 25.8743 11.4054 25.8743 11.4054 25.8747C11.401 25.8807 11.3973 25.8872 11.3932 25.8929C11.2363 26.1236 11.0783 26.3532 10.92 26.583C10.8381 26.7015 10.7569 26.8197 10.6762 26.9388C10.632 27.0035 10.5724 27.0746 10.5209 27.1514C10.391 27.1208 10.2612 27.0911 10.1326 27.0548C10.0275 27.0244 9.92378 26.9917 9.82188 26.951C9.80141 26.9437 9.78186 26.9356 9.763 26.9264C9.74621 26.8924 9.72228 26.8618 9.6933 26.8386C9.69399 26.8379 9.69398 26.8358 9.69467 26.8349C9.73171 26.7594 9.76944 26.6833 9.80647 26.6078C9.87686 26.4694 9.94748 26.3316 10.0257 26.1979C10.1653 25.9569 10.3335 25.7117 10.5695 25.5555C10.5812 25.5467 10.5941 25.5387 10.6065 25.5309C10.698 25.4734 10.7896 25.4329 10.9018 25.4191C10.915 25.4177 10.9941 25.4181 11.0311 25.4214C11.0376 25.4214 11.0429 25.4221 11.0465 25.4221H11.0472C11.05 25.423 11.0553 25.4244 11.0631 25.4271C11.0907 25.4359 11.1185 25.4416 11.1461 25.451C11.1556 25.4556 11.1641 25.4598 11.1737 25.4648C11.1977 25.4793 11.2223 25.4924 11.2448 25.5106C11.2085 25.483 11.295 25.5723 11.295 25.5658C11.3647 25.6622 11.3858 25.7429 11.4054 25.8734Z" fill="white"/>
<path d="M10.1633 25.2192C9.873 25.458 9.66183 25.7759 9.48563 26.1067C9.38672 26.2902 9.29748 26.4775 9.20455 26.664C9.19512 26.6831 9.18569 26.7013 9.17488 26.7199C9.08701 26.7008 8.99914 26.6755 8.91334 26.6481C8.82202 26.6191 8.73116 26.5858 8.64421 26.5453C8.60441 26.5262 8.56439 26.5067 8.5246 26.4857C8.61155 26.321 8.71529 26.1628 8.8142 26.0091C8.95359 25.792 9.10448 25.5787 9.26849 25.3784C9.33014 25.3023 9.39547 25.2188 9.48196 25.1686C9.57028 25.1164 9.67725 25.1288 9.77869 25.1346C9.88611 25.1412 10.0016 25.144 10.103 25.1847C10.124 25.1937 10.1467 25.2077 10.1633 25.2192Z" fill="white"/>
<path d="M9.70219 29.1149C9.6877 29.1271 9.67551 29.1402 9.6647 29.1556C9.65458 29.1584 9.64423 29.1607 9.63779 29.1623C9.56809 29.1694 9.49701 29.1745 9.42663 29.1791C9.2916 29.1876 9.15451 29.1936 9.0181 29.1885C8.94196 29.1858 8.87296 29.174 8.84167 29.1255C8.79153 29.0494 8.77635 28.9164 8.7584 28.8154C8.66915 28.3197 8.65742 27.8033 8.72068 27.3016C8.97969 27.3946 9.24628 27.4666 9.51955 27.5114C9.46067 27.9636 9.56096 28.6275 9.61961 28.8308C9.64699 28.9254 9.67459 29.0211 9.70219 29.1149Z" fill="white"/>
<path d="M8.869 25.0541C8.63966 25.3356 8.4308 25.6353 8.24333 25.9459C8.16765 26.0721 8.08209 26.2028 8.01906 26.3378C7.9282 26.3125 7.84632 26.2762 7.75937 26.2223C7.69266 26.1809 7.62779 26.1352 7.56476 26.0873C7.54889 26.0742 7.50542 26.0402 7.47827 26.0183C7.47206 26.0135 7.46608 26.0084 7.45941 26.0047C7.48034 25.9454 7.51876 25.8791 7.53992 25.8348C7.588 25.7296 7.64159 25.6264 7.69772 25.5258C7.80422 25.3372 7.92337 25.1527 8.0584 24.983C8.10854 24.9204 8.15616 24.8399 8.23414 24.8167C8.30521 24.7964 8.39883 24.8059 8.45611 24.8157C8.62587 24.8486 8.75882 24.9257 8.869 25.0541Z" fill="white"/>
<path d="M7.10189 26.2762C7.10511 26.2642 7.12074 26.2626 7.12787 26.2727C7.18814 26.3585 7.2721 26.433 7.36227 26.5032C7.40253 26.5338 7.44232 26.5642 7.48303 26.5929C7.48809 26.5966 7.49039 26.6028 7.48901 26.609C7.39401 27.0026 7.32915 27.4205 7.3303 27.8323C7.3303 27.8505 7.30293 27.8541 7.29878 27.8364C7.18262 27.357 7.02483 26.5579 7.10189 26.2762Z" fill="white"/>
<path d="M8.22474 27.1321C8.17827 27.4746 8.15596 27.818 8.17091 28.1633C8.17827 28.3526 8.19852 28.5408 8.22405 28.7278C8.22405 28.7291 8.22405 28.7308 8.22474 28.7315V28.7324C8.18402 28.7229 8.14147 28.7216 8.098 28.7278C8.10651 28.725 8.08419 28.7264 8.07476 28.7264H8.072C8.06556 28.7257 8.05613 28.725 8.05291 28.7243C8.00506 28.7126 8.00092 28.7075 7.96297 28.6836C7.91351 28.6516 7.8613 28.5934 7.82657 28.5341C7.73433 28.3745 7.71409 28.1805 7.70673 27.9997C7.69316 27.645 7.72352 27.2908 7.78976 26.9432C7.84635 26.9662 7.89557 26.9874 7.97769 27.0228C8.05889 27.0583 8.14308 27.0932 8.2252 27.1312V27.1321H8.22474Z" fill="white"/>
<g opacity="0.8" filter="url(#filter0_i_1097_43769)">
<path opacity="0.8" d="M17.2816 45.0554C15.7186 45.0554 14.2361 44.9567 12.9921 44.8598L12.6491 44.8332L12.3066 44.7855C12.1569 44.7644 11.9533 44.7425 11.7569 44.7211C10.5601 44.5909 8.33435 44.3485 5.87746 43.1947L5.49584 43.0148L5.13999 42.8156C0.418053 40.1687 -1.34922 36.1854 -2.30084 34.0439C-2.36133 33.9079 -2.43494 33.7423 -2.50395 33.5898C-2.98447 32.6067 -3.2881 31.7204 -3.54573 30.9091L-3.603 30.7278L-3.65062 30.5519C-4.33609 28.1159 -4.5093 26.0123 -4.19531 23.9322C-3.88064 21.8436 -3.10684 19.9434 -1.76281 17.9543L-1.06583 16.8162C-0.924368 16.5864 -0.824536 16.3334 -0.77071 16.0688C-0.239354 13.4353 0.966432 11.5698 1.55898 10.6789C1.72206 9.6003 1.99096 8.54059 2.36176 7.51491L2.41697 7.35941L2.47608 7.20782C2.48574 7.18114 2.49817 7.14342 2.52094 7.07464C2.78708 6.27301 3.41114 4.39692 5.00889 2.42699L5.60902 1.70012L6.22042 1.14783C7.79103 -0.279475 9.66228 -1.33575 11.6957 -1.94301C12.8311 -2.28161 14.0015 -2.48863 15.184 -2.55993L15.2983 -2.56845L15.4706 -2.5765C15.6751 -2.58616 15.8789 -2.59076 16.0777 -2.59076C16.8156 -2.59214 17.5523 -2.53003 18.2795 -2.40536C18.734 -2.32876 19.2007 -2.38213 19.626 -2.55925C20.8868 -3.08531 22.2122 -3.44116 23.5668 -3.61736C23.68 -3.63346 23.7786 -3.64588 23.8564 -3.656C24.0701 -3.68268 24.4096 -3.72271 24.82 -3.76181C25.5353 -3.83013 26.6323 -3.91156 27.8216 -3.91156C30.1439 -3.91156 32.143 -3.61069 33.9326 -2.99192L34.0849 -2.93902L34.2337 -2.88312C38.183 -1.39072 40.1934 0.694223 41.6394 2.5335L41.7079 2.62113L41.9069 2.79802C43.213 3.82002 44.3237 5.06929 45.1856 6.48624L45.4552 6.92973L45.6827 7.39484C47.6145 11.3379 47.0005 14.9787 46.7691 16.3467L46.7567 16.4198C46.5904 17.429 46.3256 18.4194 45.9663 19.377C45.8341 20.3004 45.6167 21.2094 45.3168 22.0925C44.804 23.6624 44.0475 25.1417 43.0749 26.4765C42.5151 27.2685 41.8827 28.0069 41.1862 28.682C40.9399 28.9201 40.7802 29.2336 40.7326 29.5726C40.7025 29.7815 40.6682 29.9881 40.6291 30.1926C40.0628 33.23 38.7344 35.344 38.1922 36.1858L36.5528 38.5404C34.5785 41 32.236 42.6224 29.4014 43.4942L28.7145 43.7095L27.9727 43.8385C27.1241 43.9883 26.2641 44.0628 25.4024 44.061C25.2835 44.061 25.1639 44.061 25.0311 44.0575H24.993L24.8467 44.0667L24.6898 44.0725H24.6854C24.3569 44.0835 24.0312 44.1371 23.7165 44.2321C21.8855 44.7922 19.8144 45.0554 17.2816 45.0554Z" stroke="url(#paint1_linear_1097_43769)" stroke-width="1.0554" stroke-miterlimit="10"/>
<path opacity="0.8" d="M17.2818 43.4364C15.7841 43.4364 14.3476 43.341 13.1402 43.2458L12.854 43.2237L12.5679 43.1841C12.3894 43.1593 12.1716 43.1365 11.9611 43.1126C10.7988 42.9863 8.85553 42.7749 6.68617 41.7575L6.36759 41.6077L6.07132 41.4412C1.90442 39.1042 0.362801 35.634 -0.558677 33.5601C-0.624464 33.4122 -0.7052 33.2305 -0.780418 33.0656C-1.20964 32.185 -1.49119 31.3717 -1.72881 30.6234L-1.77642 30.4725L-1.81783 30.3257C-2.4274 28.1591 -2.58496 26.3104 -2.31307 24.5066C-2.04118 22.7025 -1.35617 21.0355 -0.161424 19.2784L0.731532 17.8202C0.889559 17.5619 0.997899 17.2762 1.05103 16.9783C1.49567 14.5012 2.66581 12.745 3.19763 11.9456L3.26479 11.8444L3.28963 11.8044C3.30068 11.78 3.31103 11.7568 3.32115 11.7315C3.35358 11.6261 3.38556 11.524 3.41661 11.4267C3.55646 10.4104 3.80328 9.41215 4.15338 8.44788L4.20122 8.31814L4.25229 8.18795C4.26839 8.14655 4.28357 8.10169 4.32842 7.96713C4.58168 7.2039 5.1089 5.6195 6.48789 3.91939L6.98819 3.31374L7.49609 2.85437C8.85806 1.61684 10.4804 0.701117 12.2436 0.174591C13.2446 -0.122601 14.2763 -0.30386 15.3185 -0.365737L15.414 -0.373332L15.5571 -0.380001C15.7312 -0.388282 15.9049 -0.391962 16.0742 -0.391962C16.822 -0.393343 17.5677 -0.608644 18.3003 -0.458208C18.8655 -0.341356 19.4532 -0.403919 19.9811 -0.637164C20.9675 -1.07214 22.2954 -1.24581 23.8156 -1.43512C23.924 -1.45099 24.0183 -1.46272 24.0917 -1.47193C24.2916 -1.49723 24.6113 -1.53495 24.998 -1.57153C25.6706 -1.63593 26.7057 -1.7146 27.8185 -1.7146C29.9253 -1.7146 31.7202 -1.448 33.3062 -0.899627L33.433 -0.85569L33.5569 -0.807843C37.0577 0.514798 38.7877 2.2853 40.1356 4.00197C40.2104 4.09743 40.2872 4.19519 40.3158 4.229L40.3477 4.25752L40.6035 4.48525L40.6378 4.52044C41.8024 5.41248 42.7906 6.5136 43.5522 7.76724L43.7765 8.13688L43.9672 8.52425C45.6289 11.916 45.1081 15.0017 44.8859 16.3195L44.8739 16.3897C44.7161 17.3471 44.4583 18.2853 44.104 19.1886C43.9925 20.0678 43.7923 20.9334 43.5069 21.7725C43.0535 23.1614 42.3844 24.4707 41.5241 25.6516C40.9416 26.4797 40.2681 27.2395 39.5164 27.9174C39.1677 28.2307 38.9476 28.6622 38.8988 29.1285C38.8625 29.4719 38.8135 29.8057 38.7514 30.1334C38.252 32.8146 37.0848 34.6691 36.5505 35.4994L35.2226 37.4298C33.4578 39.6974 31.3667 41.1804 28.8334 41.9613L28.2611 42.1405L27.6409 42.2479C26.901 42.3786 26.1506 42.4434 25.3991 42.442C25.2899 42.442 25.1783 42.442 25.0582 42.4391H25.0242H24.9531C24.9531 42.4391 24.9294 42.4391 24.8806 42.4425L24.7495 42.4506L24.6175 42.4554L24.3537 42.4653C24.0049 42.4777 23.6597 42.5377 23.3271 42.6438C21.6405 43.1823 19.6915 43.4364 17.2818 43.4364Z" stroke="url(#paint2_linear_1097_43769)" stroke-width="1.0554" stroke-miterlimit="10"/>
<path opacity="0.8" d="M17.2819 41.5295C15.8509 41.5295 14.459 41.4366 13.2875 41.3455L13.0591 41.3278L12.8311 41.2963C12.6246 41.2677 12.3922 41.2424 12.1675 41.2176C11.0567 41.0968 9.37914 40.9142 7.498 40.0318L7.24268 39.9122L7.00414 39.779C3.39068 37.7532 2.06367 34.765 1.18498 32.7874C1.11022 32.6181 1.02534 32.4272 0.946673 32.2503C0.565063 31.4742 0.310198 30.734 0.0932844 30.0485L0.0551003 29.9285L0.0217458 29.8105C-0.512141 27.9141 -0.653145 26.3196 -0.423351 24.7936C-0.190106 23.2462 0.41762 21.804 1.48792 20.2536L1.61535 20.0696L1.75314 19.8927C1.83986 19.7821 1.92336 19.6728 2.00548 19.5659L2.54258 18.5809C2.71878 18.2591 2.83771 17.909 2.89406 17.5465C3.23565 15.3366 4.3002 13.74 4.79153 13.0037L4.79383 12.9998C4.82212 12.9577 4.85824 12.9043 4.87687 12.8749L4.98176 12.7074C5.02294 12.6177 5.07723 12.4986 5.12484 12.3734C5.17269 12.2242 5.2295 12.0397 5.29138 11.8488C5.40777 10.9075 5.63089 9.98234 5.95638 9.09146L5.99341 8.98749L6.03413 8.88236C6.0684 8.79519 6.0937 8.71928 6.14338 8.56999C6.37847 7.86359 6.81437 6.55245 7.97392 5.12193L8.37508 4.6368L8.78016 4.27106C9.93281 3.22353 11.3061 2.44812 12.7987 2.00256C13.665 1.74539 14.5581 1.58944 15.4603 1.53792L15.5364 1.53217L15.6524 1.52687C15.7954 1.5202 15.9385 1.51698 16.0816 1.51698C16.8575 1.51583 17.6301 1.61405 18.3807 1.80934C19.0307 1.97381 19.7181 1.90113 20.3191 1.60462C21.2813 1.13767 22.5683 0.642199 24.0759 0.457029C24.1794 0.442307 24.2668 0.430803 24.3379 0.421832C24.5253 0.398369 24.8239 0.363181 25.1864 0.326377C25.8174 0.26588 26.7876 0.193878 27.8255 0.193878C29.7168 0.193878 31.3074 0.425974 32.6907 0.903965L32.7924 0.939387L32.8916 0.976423C36.1068 2.19187 37.5463 3.78364 38.6431 5.17966C38.8848 5.48721 38.9214 5.53505 39.0875 5.6825L39.2922 5.86468L39.3718 5.94611C39.9009 6.35601 40.9827 7.19974 41.9294 8.76045L42.1091 9.05603L42.2609 9.36565C43.6528 12.206 43.2197 14.7712 43.0117 16.0044L43.0002 16.0725C42.8514 16.9765 42.5995 17.8607 42.2494 18.7074L42.24 18.7851C42.1475 19.5951 41.9685 20.3928 41.7061 21.1648C41.3125 22.3735 40.7306 23.5126 39.9818 24.5399C39.3555 25.4377 38.6026 26.24 37.7467 26.9225C37.5431 27.084 37.3763 27.2871 37.2576 27.5183C37.139 27.7497 37.0713 28.0036 37.0589 28.2633C37.0357 28.7728 36.977 29.2805 36.8834 29.7819C36.4512 32.1068 35.4363 33.7186 34.9183 34.5232L33.8889 36.0443C32.3372 38.1157 30.4979 39.4565 28.2752 40.1381L27.8179 40.2812L27.3231 40.3672C26.6908 40.479 26.0495 40.5344 25.4072 40.533C25.3074 40.533 25.206 40.5331 25.0963 40.5303H25.071H24.9612C24.9426 40.5303 24.8858 40.5303 24.7703 40.5374L24.6654 40.5441L24.564 40.548L24.0335 40.5676C23.6621 40.5802 23.2942 40.6467 22.9416 40.7644C21.3968 41.2848 19.5741 41.5295 17.2819 41.5295Z" stroke="url(#paint3_linear_1097_43769)" stroke-width="0.989438" stroke-miterlimit="10"/>
<path opacity="0.8" d="M17.2813 39.6212C15.9138 39.6212 14.5693 39.5311 13.4351 39.443L13.2637 39.4296L13.0926 39.4062C12.8584 39.3737 12.6118 39.3466 12.3728 39.3208C11.3287 39.2067 9.90097 39.0517 8.30737 38.3043L8.11667 38.2142L7.93864 38.1146C4.87839 36.3974 3.75265 33.8642 2.93031 32.0129C2.84497 31.8223 2.75618 31.6214 2.66855 31.4291C2.31891 30.7262 2.09624 30.0511 1.91107 29.4735L1.88255 29.3833L1.85771 29.2952C0.962915 26.1151 1.29921 23.8843 3.05729 21.3391L3.15275 21.2006L3.25626 21.0682C3.37311 20.9189 3.48237 20.7753 3.59003 20.6389C3.75219 20.4262 3.91643 20.2095 4.09516 19.9868C4.20626 19.8481 4.29574 19.6933 4.36083 19.5279L4.56257 19.0129C4.64814 18.7937 4.70173 18.5636 4.72197 18.3292C4.89702 16.2892 5.88912 14.8021 6.38045 14.0651L6.38321 14.0611C6.41909 14.0069 6.47338 13.9259 6.49155 13.8967L6.60656 13.7131L6.64176 13.6653C6.70295 13.5417 6.82256 13.2809 6.92791 13.0076C6.98472 12.8206 7.07443 12.5336 7.16207 12.2725C7.16207 12.2626 7.16207 12.2515 7.16598 12.24C7.26006 11.3853 7.45696 10.545 7.75277 9.73738L7.78084 9.65917L7.81143 9.5805C7.8648 9.44455 7.90252 9.33092 7.95451 9.17404C8.16429 8.54355 8.51531 7.48797 9.4561 6.32795L9.75698 5.96359L10.059 5.69078C12.2806 3.67485 14.7667 3.50095 15.5975 3.44505L15.6548 3.44069L15.7427 3.43655C15.8556 3.43126 15.9688 3.42896 16.0794 3.42896C17.0658 3.43241 18.0418 3.63183 18.9504 4.01597C19.1114 4.08291 19.285 4.11328 19.4592 4.105C19.6333 4.09672 19.8033 4.05002 19.9572 3.96836H19.962C20.8067 3.47841 22.354 2.59028 24.327 2.35267C24.4222 2.33841 24.5101 2.3276 24.5745 2.31932C24.7481 2.29747 25.0251 2.26503 25.3657 2.23214C25.9553 2.17578 26.8607 2.10861 27.8231 2.10861C29.4988 2.10861 30.8859 2.30689 32.0641 2.71427L32.1404 2.74049L32.2147 2.76878C34.9702 3.80987 36.1585 5.11641 37.1391 6.36522C37.4029 6.69898 37.5207 6.85402 37.8161 7.1144L37.9695 7.25127L38.0925 7.37779L38.188 7.45323C38.6549 7.8146 39.5235 8.48765 40.2943 9.75555L40.4294 9.97729L40.5432 10.2096C41.6641 12.4991 41.3136 14.5755 41.1252 15.6916L41.1144 15.7578C40.9814 16.5693 40.7505 17.3615 40.4264 18.1169L40.3992 18.1818C40.3965 18.1958 40.3926 18.2163 40.3868 18.2462C40.3721 18.323 40.3636 18.3842 40.3534 18.462L40.3419 18.5496C40.2656 19.2339 40.1151 19.9079 39.8932 20.5596C39.5594 21.5878 39.0649 22.5566 38.4284 23.43C37.7988 24.3239 37.0929 25.0519 36.3006 25.6282C35.9529 25.8821 35.6688 26.2136 35.471 26.5961C35.2731 26.9786 35.1669 27.4021 35.1606 27.8327C35.154 28.3698 35.1013 28.9053 35.0035 29.4335C34.6383 31.4029 33.7978 32.7366 33.2747 33.5493L32.5266 34.6707C31.1872 36.5419 29.6072 37.7369 27.7053 38.3191L27.6048 38.3506C27.4433 38.4014 27.2786 38.4412 27.1121 38.47L26.9913 38.4909C26.4666 38.5838 25.9348 38.6301 25.4021 38.6287C25.3119 38.6287 25.2204 38.6287 25.121 38.6264H25.1049C25.0596 38.6264 25.0094 38.6264 24.9561 38.6264C24.9188 38.6264 24.8206 38.6264 24.643 38.6374L24.5643 38.642L24.4875 38.645C24.2324 38.6544 23.9152 38.6655 23.6323 38.6779C23.2447 38.694 22.8617 38.769 22.4967 38.9006C21.1278 39.3896 19.4525 39.6212 17.2813 39.6212Z" stroke="url(#paint4_linear_1097_43769)" stroke-width="0.923475" stroke-miterlimit="10"/>
<path opacity="0.8" d="M17.2814 37.7135C15.9788 37.7135 14.681 37.6263 13.583 37.541L13.4685 37.5322L13.3544 37.5161C13.0917 37.4798 12.8297 37.4512 12.5774 37.4241C11.6177 37.3197 10.4234 37.1895 9.11735 36.5769L8.98969 36.5169L8.87122 36.4506C6.36442 35.045 5.42753 32.9347 4.67397 31.239C4.58127 31.0301 4.48305 30.8146 4.38759 30.6046C4.09247 30.0155 3.89258 29.4121 3.72857 28.8957L3.70948 28.8359L3.69268 28.7773C2.95431 26.1538 3.19813 24.4887 4.62566 22.4219L4.68915 22.3299L4.75839 22.2418C4.88283 22.0824 4.99669 21.9336 5.10549 21.79C5.47813 21.3015 5.83628 20.8313 6.37201 20.2594C6.48932 20.1339 6.55971 19.9715 6.57075 19.8001L6.61146 19.1827L6.59559 18.9805L6.60272 18.7707C6.65862 17.078 7.50902 15.8043 7.96401 15.1202C8.01668 15.0411 8.07143 14.9597 8.10386 14.9077L8.18069 14.7856L8.25177 14.6901C8.33665 14.5514 8.55977 14.0782 8.72861 13.6242C8.78681 13.4332 8.89952 13.0693 8.99866 12.7807C9.02787 12.6887 9.03063 12.6663 9.05455 12.4687C9.13207 11.7545 9.29654 11.0523 9.54427 10.3778L9.5629 10.3251L9.58338 10.2722C9.654 10.0919 9.70323 9.94469 9.76004 9.77378C9.93969 9.23299 10.2107 8.41779 10.9329 7.52736L11.1342 7.28399L11.3334 7.10365C12.89 5.69038 14.5855 5.42287 15.7299 5.34604L15.7685 5.34259H15.8276C15.9107 5.33891 15.9932 5.33707 16.0742 5.33707C17.0516 5.33707 18.2206 5.80585 18.8345 6.08925C18.9813 6.15641 19.14 6.19414 19.3014 6.20012C19.4629 6.20587 19.6239 6.17965 19.7751 6.12306C20.1571 5.98458 20.5293 5.82081 20.8893 5.63265C21.6702 5.1795 22.9657 4.43123 24.5745 4.24376C24.6633 4.23042 24.7429 4.2203 24.8087 4.21179C24.9704 4.19178 25.2257 4.16417 25.5418 4.13105C26.0904 4.0786 26.9304 4.01627 27.8181 4.01627C29.2776 4.01627 30.4611 4.18027 31.4355 4.51703L31.4861 4.53474L31.5337 4.55338C33.8351 5.42287 34.751 6.4221 35.632 7.54346C35.9182 7.90506 36.1204 8.16361 36.5406 8.53947L36.6428 8.63056L36.738 8.72602C36.8238 8.8109 36.916 8.88888 37.0143 8.95927C37.4092 9.26497 38.0712 9.77723 38.6585 10.744L38.7482 10.8919L38.8243 11.047C39.6754 12.7836 39.4019 14.4035 39.2384 15.3712L39.2275 15.437C39.1187 16.1052 38.9283 16.7573 38.6603 17.3789V17.3837C38.5862 17.5445 38.5349 17.7147 38.5083 17.8897C38.4853 18.0119 38.471 18.1101 38.4572 18.2189L38.4457 18.3075C38.3845 18.8657 38.2624 19.4157 38.0818 19.9473C37.8095 20.7959 37.4021 21.5947 36.8755 22.3133C36.0981 23.4223 35.1994 24.2025 34.1166 24.6982C33.8535 24.8183 33.6288 25.0085 33.4673 25.2484C33.3056 25.4881 33.2133 25.7678 33.2007 26.0565C33.1956 26.175 33.1935 26.2723 33.197 26.3266C33.2504 27.1609 33.3109 28.1063 33.125 29.0802C32.8269 30.6911 32.1446 31.7738 31.6319 32.5688C31.6319 32.5688 29.2795 35.8429 27.1388 36.4964L26.9084 36.5684L26.6609 36.6117C26.2443 36.6857 25.822 36.7223 25.3987 36.7209C25.3187 36.7209 25.2365 36.7209 25.1484 36.7186H25.1406C25.084 36.7186 25.0224 36.7186 24.9527 36.7186C24.8687 36.7186 24.7319 36.7186 24.5191 36.7333L24.4671 36.7368H24.4158C23.5967 36.7662 22.8227 36.7941 22.6074 36.8359C22.4924 36.8539 22.3801 36.8868 22.2736 36.9342C21.0621 37.4651 19.4733 37.7135 17.2814 37.7135Z" stroke="url(#paint5_linear_1097_43769)" stroke-width="0.857513" stroke-miterlimit="10"/>
<path opacity="0.8" d="M17.2815 35.8063C16.0442 35.8063 14.7922 35.7219 13.7304 35.6393L13.6736 35.635L13.6168 35.6269C13.3263 35.5869 13.0507 35.5567 12.7836 35.5278C11.8801 35.4293 10.9457 35.3279 9.92743 34.8503L9.86348 34.8197L9.80437 34.7869C7.8487 33.6899 7.12228 32.0514 6.41772 30.4649C6.31766 30.24 6.21415 30.0072 6.10718 29.7758C5.86865 29.3044 5.69981 28.7989 5.54823 28.3199L5.53856 28.2905L5.53005 28.2604C4.94303 26.1722 5.09231 25.106 6.19781 23.5067L6.22979 23.4591L6.26406 23.4147C6.3938 23.2493 6.51179 23.0947 6.6252 22.9454C7.15655 22.2484 7.61591 21.646 8.64527 20.696L8.64803 20.693C8.72371 20.621 8.77662 20.5286 8.80077 20.4269C8.82492 20.3254 8.81894 20.2189 8.78398 20.1207L8.59858 19.5917C8.56131 19.4249 8.53509 19.2558 8.52037 19.0856V19.0799L8.50887 18.9368L8.51255 18.8319C8.55027 17.6829 9.15478 16.7771 9.55433 16.1774C9.6169 16.082 9.67647 15.9948 9.72271 15.9202L9.76089 15.8593L9.8039 15.8016C10.0162 15.5154 10.361 14.7232 10.5423 14.2323C10.5899 14.0812 10.712 13.6752 10.8137 13.381C10.8859 13.1595 10.9329 12.9308 10.9533 12.6988C11.0134 12.1246 11.1452 11.5599 11.3455 11.0184L11.355 10.9917L11.3655 10.9655C11.4536 10.7389 11.5157 10.5529 11.5758 10.3725C11.7357 9.89222 11.9164 9.34753 12.4195 8.72692L12.5207 8.60478L12.6194 8.51576C13.7251 7.51124 14.9371 7.30882 15.872 7.24695H15.8915H15.9221C15.9745 7.24695 16.027 7.24349 16.079 7.24349C16.9887 7.24349 17.688 7.6166 18.1506 7.86364L18.2585 7.92092L18.2746 7.92943C18.4015 7.9982 18.5131 8.05824 18.6166 8.10931C18.9041 8.25353 19.2344 8.28735 19.5452 8.20477C20.1787 8.03432 21.1671 7.65961 21.8319 7.2941L21.8457 7.28605C22.545 6.88051 23.5982 6.27003 24.8326 6.13455C24.9103 6.12213 24.9848 6.11316 25.055 6.10396C25.1981 6.08602 25.4364 6.05634 25.7278 6.03012C26.2355 5.9825 27.0104 5.92384 27.8229 5.92384C29.0668 5.92384 30.0461 6.05358 30.8169 6.31972L30.8422 6.32869L30.8679 6.33835C32.7143 7.03601 33.3879 7.76634 34.138 8.72324C34.4434 9.11199 34.7319 9.4791 35.2791 9.96629L35.33 10.0139L35.3778 10.0615C35.5257 10.2108 35.6851 10.3481 35.8546 10.4724C36.1829 10.7265 36.6326 11.0748 37.0367 11.7396L37.0816 11.8136L37.1198 11.8914C37.7001 13.0767 37.5069 14.2222 37.3659 15.0583L37.3549 15.1244C37.2704 15.6518 37.1191 16.1664 36.9049 16.6559C36.78 16.9376 36.6912 17.2341 36.6409 17.5382C36.6075 17.7147 36.588 17.8527 36.5716 17.9803L36.5601 18.071C36.5143 18.5034 36.4207 18.9292 36.2811 19.3407C36.0695 20.0087 35.7495 20.6371 35.3339 21.2009C34.6327 22.2075 33.8553 22.8281 32.8225 23.1566C32.3277 23.3132 31.9019 23.6357 31.6171 24.0696L31.5352 24.1956L31.4446 24.2991C31.1822 24.5977 31.2562 25.7547 31.3015 26.4455C31.3491 27.2034 31.4002 27.9871 31.2585 28.725C31.0257 29.9865 30.4854 30.838 30.0017 31.5868C30.0017 31.5868 28.2054 34.1782 26.5846 34.6705L26.4666 34.7077L26.3427 34.7291C26.034 34.7846 25.7209 34.8117 25.4074 34.8103C25.3368 34.8103 25.2643 34.8103 25.1875 34.8103C25.1194 34.8103 25.0444 34.8103 24.9614 34.8103C24.8512 34.8103 24.6752 34.8103 24.4072 34.8289H24.3815H24.3557C23.2686 34.8685 22.6128 34.8917 22.2503 34.9624C22.0062 35.0056 21.7682 35.0767 21.5404 35.1747C20.5697 35.605 19.2142 35.8063 17.2815 35.8063Z" stroke="url(#paint6_linear_1097_43769)" stroke-width="0.857513" stroke-miterlimit="10"/>
</g>
</g>
<defs>
<filter id="filter0_i_1097_43769" x="-4.87396" y="-4.43925" width="52.7129" height="50.4181" filterUnits="userSpaceOnUse" color-interpolation-filters="sRGB">
<feFlood flood-opacity="0" result="BackgroundImageFix"/>
<feBlend mode="normal" in="SourceGraphic" in2="BackgroundImageFix" result="shape"/>
<feColorMatrix in="SourceAlpha" type="matrix" values="0 0 0 0 0 0 0 0 0 0 0 0 0 0 0 0 0 0 127 0" result="hardAlpha"/>
<feOffset dx="0.26385" dy="0.395775"/>
<feGaussianBlur stdDeviation="0.329812"/>
<feComposite in2="hardAlpha" operator="arithmetic" k2="-1" k3="1"/>
<feColorMatrix type="matrix" values="0 0 0 0 0 0 0 0 0 0 0 0 0 0 0 0 0 0 0.12 0"/>
<feBlend mode="normal" in2="shape" result="effect1_innerShadow_1097_43769"/>
</filter>
<radialGradient id="paint0_radial_1097_43769" cx="0" cy="0" r="1" gradientUnits="userSpaceOnUse" gradientTransform="translate(21.0601 23.4411) rotate(90) scale(23.9766 23.9766)">
<stop offset="0.166667" stop-color="#073183"/>
<stop offset="1" stop-color="#0054F9"/>
</radialGradient>
<linearGradient id="paint1_linear_1097_43769" x1="-4.34621" y1="-3.91156" x2="44.5634" y2="47.4218" gradientUnits="userSpaceOnUse">
<stop offset="0.205697" stop-color="#89D0FF"/>
<stop offset="0.398413" stop-color="#EBBF9A"/>
<stop offset="0.601546" stop-color="#EB8280"/>
<stop offset="0.841139" stop-color="#A281FF"/>
</linearGradient>
<linearGradient id="paint2_linear_1097_43769" x1="-2.44143" y1="-1.7146" x2="42.6477" y2="45.8027" gradientUnits="userSpaceOnUse">
<stop offset="0.205697" stop-color="#89D0FF"/>
<stop offset="0.398413" stop-color="#EBBF9A"/>
<stop offset="0.601546" stop-color="#EB80DA"/>
<stop offset="0.841139" stop-color="#A281FF"/>
</linearGradient>
<linearGradient id="paint3_linear_1097_43769" x1="-0.529623" y1="0.193649" x2="40.7386" y2="43.8939" gradientUnits="userSpaceOnUse">
<stop offset="0.205697" stop-color="#89D0FF"/>
<stop offset="0.398413" stop-color="#EBBF9A"/>
<stop offset="0.601546" stop-color="#EB8280"/>
<stop offset="0.841139" stop-color="#A281FF"/>
</linearGradient>
<linearGradient id="paint4_linear_1097_43769" x1="1.37857" y1="2.10861" x2="38.8171" y2="41.9801" gradientUnits="userSpaceOnUse">
<stop offset="0.205697" stop-color="#89D0FF"/>
<stop offset="0.398413" stop-color="#EBBF9A"/>
<stop offset="0.601546" stop-color="#EB80E7"/>
<stop offset="0.841139" stop-color="#A281FF"/>
</linearGradient>
<linearGradient id="paint5_linear_1097_43769" x1="3.28646" y1="4.01627" x2="36.9025" y2="40.056" gradientUnits="userSpaceOnUse">
<stop offset="0.205697" stop-color="#89D0FF"/>
<stop offset="0.398413" stop-color="#EBBF9A"/>
<stop offset="0.601546" stop-color="#EB80D3"/>
<stop offset="0.841139" stop-color="#A281FF"/>
</linearGradient>
<linearGradient id="paint6_linear_1097_43769" x1="5.19191" y1="5.92384" x2="34.9824" y2="38.1464" gradientUnits="userSpaceOnUse">
<stop offset="0.205697" stop-color="#89D0FF"/>
<stop offset="0.398413" stop-color="#EBBF9A"/>
<stop offset="0.601546" stop-color="#A280EB"/>
<stop offset="0.841139" stop-color="#A281FF"/>
</linearGradient>
</defs>
</svg>
