<svg width="26" height="20" viewBox="0 0 26 20" fill="none" xmlns="http://www.w3.org/2000/svg">
<path d="M10.1834 13.9239H4.26686L3.17805 17.1697H0.44577L5.64327 2.60441H8.90968L14.1072 17.1697H11.2722L10.1834 13.9239ZM9.38218 11.5819L7.22512 5.19288L5.06805 11.5819H9.38218Z" fill="white"/>
<path d="M19.5979 17.1081C18.9131 17.0533 18.2694 16.9027 17.6668 16.6561C17.0642 16.3959 16.5438 16.0604 16.1055 15.6495C15.6673 15.2386 15.318 14.7661 15.0578 14.232C14.7976 13.6979 14.6606 13.1158 14.6469 12.4858H17.1738C17.2012 13.1569 17.434 13.7184 17.8723 14.1704C18.3242 14.6086 18.8994 14.862 19.5979 14.9305V10.8629L18.6324 10.7191C17.523 10.5684 16.6396 10.1507 15.9823 9.46593C15.3386 8.78115 15.0167 7.91147 15.0167 6.85691C15.0167 6.30908 15.14 5.79549 15.3865 5.31615C15.633 4.8231 15.9686 4.39169 16.3931 4.02191C16.8177 3.63843 17.3039 3.33028 17.8517 3.09745C18.4132 2.86462 18.9953 2.72082 19.5979 2.66604V0.755493H21.0976V2.70712C21.7139 2.7893 22.2823 2.95365 22.8027 3.20017C23.3231 3.43299 23.7751 3.7343 24.1586 4.10408C24.542 4.47386 24.8433 4.89843 25.0625 5.37778C25.2953 5.85712 25.4254 6.37071 25.4528 6.91854H22.926C22.8986 6.42549 22.7137 6.00093 22.3713 5.64484C22.0426 5.27506 21.618 5.02169 21.0976 4.88473V8.64419L21.7961 8.74691C22.3165 8.82908 22.8095 8.97289 23.2752 9.17832C23.7408 9.38375 24.1449 9.65082 24.4873 9.97951C24.8433 10.3082 25.1173 10.7054 25.309 11.171C25.5144 11.623 25.6171 12.1366 25.6171 12.7118C25.6171 13.3281 25.5007 13.8896 25.2679 14.3964C25.0488 14.8894 24.7338 15.3277 24.3229 15.7111C23.9257 16.0809 23.4464 16.3891 22.8849 16.6356C22.337 16.8684 21.7413 17.0191 21.0976 17.0876V19.2035H19.5979V17.1081ZM21.0976 14.91C21.7413 14.8004 22.2412 14.5676 22.5973 14.2115C22.9533 13.8417 23.1314 13.376 23.1314 12.8145C23.1314 12.2941 22.9602 11.9106 22.6178 11.6641C22.2754 11.4039 21.8851 11.2327 21.4468 11.1505L21.0976 11.0889V14.91ZM19.5979 4.8231C19.0227 4.90528 18.5296 5.11756 18.1188 5.45995C17.7216 5.78865 17.523 6.23375 17.523 6.79528C17.523 7.27462 17.6531 7.63756 17.9133 7.88408C18.1873 8.11691 18.5433 8.26756 18.9816 8.33604L19.5979 8.43876V4.8231Z" fill="white"/>
</svg>
