<svg width="42" height="42" viewBox="0 0 42 42" fill="none" xmlns="http://www.w3.org/2000/svg">
<g clip-path="url(#clip0_1097_26625)">
<path d="M21 42C32.598 42 42 32.598 42 21C42 9.40202 32.598 0 21 0C9.40202 0 0 9.40202 0 21C0 32.598 9.40202 42 21 42Z" fill="#627EEA"/>
<path d="M21.6537 5.25V16.8919L31.4936 21.2887L21.6537 5.25Z" fill="white" fill-opacity="0.602"/>
<path d="M21.6536 5.25L11.8125 21.2887L21.6536 16.8919V5.25Z" fill="white"/>
<path d="M21.6537 28.8329V36.7434L31.5001 23.1209L21.6537 28.8329Z" fill="white" fill-opacity="0.602"/>
<path d="M21.6536 36.7434V28.8316L11.8125 23.1209L21.6536 36.7434Z" fill="white"/>
<path d="M21.6537 27.0021L31.4936 21.2888L21.6537 16.8945V27.0021Z" fill="white" fill-opacity="0.2"/>
<path d="M11.8125 21.2888L21.6536 27.0021V16.8945L11.8125 21.2888Z" fill="white" fill-opacity="0.602"/>
</g>
<defs>
<clipPath id="clip0_1097_26625">
<rect width="42" height="42" fill="white"/>
</clipPath>
</defs>
</svg>
