<svg width="42" height="42" viewBox="0 0 42 42" fill="none" xmlns="http://www.w3.org/2000/svg">
<g clip-path="url(#clip0_5604_37123)">
<path d="M21 42C32.598 42 42 32.598 42 21C42 9.40202 32.598 0 21 0C9.40202 0 0 9.40202 0 21C0 32.598 9.40202 42 21 42Z" fill="#13B5EC"/>
<path fill-rule="evenodd" clip-rule="evenodd" d="M22.575 16.9312L27.3 14.175V19.6875L22.575 16.9312ZM27.3 28.7437L21 32.4188L14.7 28.7437V22.3125L21 25.9875L27.3 22.3125V28.7437ZM14.7 14.175L19.425 16.9312L14.7 19.6875V14.175ZM21.7875 18.2437L26.5125 21L21.7875 23.7563V18.2437ZM20.2125 23.7563L15.4875 21L20.2125 18.2437V23.7563ZM26.5125 12.8625L21 16.0125L15.4875 12.8625L21 9.58125L26.5125 12.8625ZM13.125 12.3375V29.5312L21 33.9937L28.875 29.5312V12.3375L21 7.875L13.125 12.3375Z" fill="white"/>
</g>
<defs>
<clipPath id="clip0_5604_37123">
<rect width="42" height="42" fill="white"/>
</clipPath>
</defs>
</svg>
