<svg width="42" height="42" viewBox="0 0 42 42" fill="none" xmlns="http://www.w3.org/2000/svg">
<circle cx="21" cy="21" r="21" fill="#DBDBDB"/>
<path d="M28.2908 10.1389L23.2423 17.6395C22.8931 18.1503 23.5645 18.7686 24.0479 18.3385L29.0159 14.0102C29.1502 13.9026 29.3382 13.9833 29.3382 14.1715V27.6941C29.3382 27.8823 29.0965 27.963 28.9891 27.8286L13.9507 9.81625C13.4673 9.2248 12.7691 8.90219 11.9903 8.90219H11.4533C10.0568 8.90219 8.9021 10.0582 8.9021 11.4831V30.517C8.9021 31.9418 10.0568 33.0978 11.4801 33.0978C12.3663 33.0978 13.1988 32.6408 13.6822 31.8612L18.7307 24.3605C19.0798 23.8497 18.4085 23.2314 17.9251 23.6615L12.9571 27.963C12.8228 28.0705 12.6348 27.9899 12.6348 27.8017V14.3059C12.6348 14.1177 12.8765 14.037 12.9839 14.1715L28.0223 32.1838C28.5057 32.7752 29.2307 33.0978 29.9827 33.0978H30.5197C31.943 33.0978 33.0978 31.9418 33.0978 30.517V11.4831C33.0978 10.0582 31.943 8.90219 30.5197 8.90219C29.6067 8.90219 28.7742 9.35922 28.2908 10.1389Z" fill="black"/>
</svg>
