<svg width="437" height="27" viewBox="0 0 437 27" fill="none" xmlns="http://www.w3.org/2000/svg">
<path d="M20.0473 13.1119C19.1614 12.2461 18.0968 11.8135 16.8529 11.8135H4.52299C4.29399 11.8135 4.09753 11.7339 3.93321 11.5744C3.76889 11.4153 3.68693 11.2213 3.68693 10.9923V9.99228C3.68693 9.77373 3.76889 9.5845 3.93321 9.425C4.09753 9.26591 4.29399 9.18596 4.52299 9.18596H20.4205C20.4603 9.18596 20.4925 9.1735 20.5174 9.14859C20.5423 9.12409 20.5547 9.09637 20.5547 9.06664V6.08118C20.5547 6.0414 20.5423 6.01167 20.5174 5.99158C20.4925 5.9719 20.4599 5.96185 20.4205 5.96185H4.52299C3.2691 5.96185 2.20163 6.39495 1.32098 7.26074C0.440327 8.12652 0 9.17109 0 10.3952V10.5893C0 11.8235 0.440327 12.8733 1.32098 13.7391C2.20163 14.6049 3.2691 15.0376 4.52299 15.0376H16.8529C17.0719 15.0376 17.2635 15.1147 17.4275 15.269C17.5918 15.4232 17.6737 15.6149 17.6737 15.8439V16.8439C17.6737 17.0729 17.5918 17.2645 17.4275 17.4188C17.2631 17.573 17.0715 17.6502 16.8529 17.6502H0.940515C0.910785 17.6502 0.883064 17.6626 0.858557 17.6875C0.833648 17.7125 0.821193 17.745 0.821193 17.7848V20.7702C0.821193 20.8 0.833648 20.8277 0.858557 20.8522C0.883466 20.8771 0.910785 20.8896 0.940515 20.8896H16.8529C18.0968 20.8896 19.1614 20.4545 20.0473 19.5834C20.9328 18.7128 21.3759 17.6655 21.3759 16.4413V16.2468C21.3755 15.0227 20.9328 13.9777 20.0473 13.1119Z" fill="#00D1FF"/>
<path d="M46.8155 5.96185H43.3673C43.3375 5.96185 43.3098 5.9719 43.2853 5.99158C43.2604 6.01167 43.2479 6.0414 43.2479 6.08118V9.87256C43.2479 10.2008 43.0784 10.4499 42.7405 10.619L35.8592 13.4699L28.9779 10.619C28.6396 10.4499 28.4705 10.2012 28.4705 9.87256V6.08118C28.4705 6.0414 28.4604 6.01167 28.4408 5.99158C28.4203 5.9719 28.3905 5.96185 28.3508 5.96185H24.9025C24.8728 5.96185 24.845 5.9719 24.8205 5.99158C24.7956 6.01167 24.7832 6.0414 24.7832 6.08118V10.425C24.7832 11.0722 24.9623 11.664 25.3207 12.2011C25.6791 12.7387 26.1664 13.1364 26.7835 13.3952L34.0083 16.4252V20.7546C34.0083 20.7943 34.0208 20.8269 34.0457 20.8518C34.0706 20.8767 34.1027 20.8892 34.1425 20.8892H37.5908C37.6205 20.8892 37.6478 20.8767 37.6727 20.8518C37.6977 20.8269 37.7101 20.7947 37.7101 20.7546V16.4256L44.9349 13.4104C45.5516 13.1417 46.0397 12.7411 46.3977 12.2088C46.7561 11.6765 46.9349 11.0871 46.9349 10.4398V6.08118C46.9349 6.0414 46.9224 6.01167 46.8975 5.99158C46.8726 5.9719 46.8453 5.96185 46.8155 5.96185Z" fill="#00D1FF"/>
<path d="M72.4286 5.96185H68.9803C68.9405 5.96185 68.9104 5.97431 68.8907 5.99922C68.8706 6.02413 68.861 6.05144 68.861 6.08118V17.6647H67.413C67.1443 17.6647 66.9153 17.5453 66.7264 17.3063L60.0392 7.52911C59.3225 6.52431 58.3321 6.00163 57.0686 5.96185H51.307C51.2672 5.96185 51.2347 5.97431 51.2098 5.99922C51.1849 6.02413 51.1724 6.05144 51.1724 6.08118V20.7694C51.1724 20.7992 51.1849 20.8269 51.2098 20.8514C51.2347 20.8763 51.2668 20.8888 51.307 20.8888H54.7553C54.785 20.8888 54.8123 20.8763 54.8372 20.8514C54.8621 20.8269 54.8746 20.7992 54.8746 20.7694V9.18596H56.3225C56.5913 9.18596 56.8199 9.3105 57.0091 9.55919L63.6964 19.3364C64.4131 20.3416 65.4031 20.859 66.667 20.8888H72.429C72.4688 20.8888 72.4985 20.8763 72.5186 20.8514C72.5383 20.8269 72.5483 20.7992 72.5483 20.7694V6.08118C72.5483 6.05144 72.5383 6.02413 72.5186 5.99922C72.4981 5.97431 72.4684 5.96185 72.4286 5.96185Z" fill="#00D1FF"/>
<path d="M97.3515 5.96185H76.2295C76.1897 5.96185 76.1596 5.97431 76.1399 5.99922C76.1198 6.02413 76.1101 6.05144 76.1101 6.08118V9.06664C76.1101 9.09637 76.1198 9.12409 76.1399 9.14859C76.1596 9.1735 76.1897 9.18596 76.2295 9.18596H84.9468V20.7694C84.9468 20.7992 84.9565 20.8269 84.9766 20.8514C84.9962 20.8763 85.0264 20.8888 85.0661 20.8888H88.5144C88.5542 20.8888 88.5839 20.8763 88.604 20.8514C88.6237 20.8269 88.6338 20.7992 88.6338 20.7694V9.18596H97.3511C97.3909 9.18596 97.423 9.1735 97.4479 9.14859C97.4729 9.12369 97.4853 9.09637 97.4853 9.06664V6.08118C97.4853 6.05144 97.4729 6.02413 97.4479 5.99922C97.4238 5.97431 97.3913 5.96185 97.3515 5.96185Z" fill="#00D1FF"/>
<path d="M122.964 5.96185H119.516C119.486 5.96185 119.458 5.97431 119.434 5.99922C119.409 6.02413 119.396 6.05144 119.396 6.08118V11.8131H105.425V6.08118C105.425 6.05144 105.412 6.02413 105.387 5.99922C105.362 5.97471 105.33 5.96185 105.29 5.96185H101.842C101.812 5.96185 101.785 5.97431 101.76 5.99922C101.735 6.02413 101.723 6.05144 101.723 6.08118V20.7694C101.723 20.7992 101.735 20.8269 101.76 20.8514C101.785 20.8763 101.812 20.8888 101.842 20.8888H105.29C105.33 20.8888 105.362 20.8763 105.387 20.8514C105.412 20.8265 105.425 20.7992 105.425 20.7694V15.0376H119.396V20.7694C119.396 20.7992 119.409 20.8269 119.434 20.8514C119.459 20.8763 119.486 20.8888 119.516 20.8888H122.964C123.004 20.8888 123.036 20.8763 123.061 20.8514C123.086 20.8265 123.098 20.7992 123.098 20.7694V6.08118C123.098 6.05144 123.085 6.02413 123.061 5.99922C123.036 5.97431 123.003 5.96185 122.964 5.96185Z" fill="#00D1FF"/>
<path d="M148.485 5.96185H131.752C130.508 5.96185 129.443 6.39455 128.558 7.26033C127.672 8.12612 127.229 9.17109 127.229 10.3952V16.4405C127.229 17.6747 127.672 18.7245 128.558 19.5903C129.443 20.4561 130.508 20.8892 131.752 20.8892H148.485C148.515 20.8892 148.542 20.8767 148.567 20.8518C148.592 20.8269 148.605 20.7996 148.605 20.7698V17.7844C148.605 17.7446 148.592 17.7149 148.567 17.6948C148.542 17.6751 148.515 17.665 148.485 17.665H131.752C131.523 17.665 131.329 17.5855 131.17 17.4264C131.011 17.2673 130.931 17.0781 130.931 16.8591V15.0376H148.475C148.514 15.0376 148.544 15.0251 148.564 15.0002C148.584 14.9753 148.594 14.948 148.594 14.9182V11.9328C148.594 11.893 148.584 11.8633 148.564 11.8432C148.544 11.8235 148.514 11.8135 148.475 11.8135H130.931V9.99228C130.931 9.77333 131.011 9.5845 131.17 9.425C131.329 9.26591 131.523 9.18596 131.752 9.18596H148.485C148.515 9.18596 148.542 9.1735 148.567 9.14859C148.592 9.12409 148.605 9.09637 148.605 9.06664V6.08118C148.605 6.05144 148.592 6.02413 148.567 5.99922C148.542 5.97471 148.515 5.96185 148.485 5.96185Z" fill="#00D1FF"/>
<path d="M173.977 5.96185H152.855C152.815 5.96185 152.785 5.97431 152.765 5.99922C152.745 6.02413 152.735 6.05144 152.735 6.08118V9.06664C152.735 9.09637 152.745 9.12409 152.765 9.14859C152.785 9.1735 152.815 9.18596 152.855 9.18596H161.572V20.7694C161.572 20.7992 161.582 20.8269 161.602 20.8514C161.622 20.8763 161.652 20.8888 161.691 20.8888H165.14C165.179 20.8888 165.209 20.8763 165.229 20.8514C165.249 20.8269 165.259 20.7992 165.259 20.7694V9.18596H173.976C174.016 9.18596 174.048 9.1735 174.073 9.14859C174.098 9.12369 174.11 9.09637 174.11 9.06664V6.08118C174.11 6.05144 174.098 6.02413 174.073 5.99922C174.049 5.97431 174.016 5.96185 173.977 5.96185Z" fill="#00D1FF"/>
<path d="M182.005 5.99158C181.985 5.9719 181.955 5.96185 181.915 5.96185H178.467C178.427 5.96185 178.397 5.9719 178.378 5.99158C178.357 6.01167 178.348 6.0414 178.348 6.08118V20.7694C178.348 20.7992 178.357 20.8269 178.378 20.8514C178.397 20.8763 178.427 20.8888 178.467 20.8888H181.915C181.955 20.8888 181.985 20.8763 182.005 20.8514C182.025 20.8265 182.035 20.7992 182.035 20.7694V6.08118C182.035 6.0418 182.025 6.01167 182.005 5.99158Z" fill="#00D1FF"/>
<path d="M191.525 9.58925C191.376 9.42011 191.192 9.33534 190.973 9.33534H186.495C186.455 9.33534 186.423 9.32289 186.398 9.29798C186.373 9.27347 186.361 9.24575 186.361 9.21602V6.23056C186.361 6.20083 186.373 6.17351 186.398 6.1486C186.423 6.12409 186.455 6.11124 186.495 6.11124H191.227C192.421 6.11124 193.451 6.59415 194.317 7.55917L195.466 8.94724L193.227 11.6491L191.525 9.58925ZM199.795 7.54431C200.66 6.58893 201.695 6.11124 202.899 6.11124H207.617C207.656 6.11124 207.686 6.12128 207.706 6.14097C207.726 6.16105 207.736 6.19078 207.736 6.23056V9.21602C207.736 9.24575 207.726 9.27347 207.706 9.29798C207.686 9.32289 207.656 9.33534 207.617 9.33534H203.139C202.92 9.33534 202.736 9.42011 202.586 9.58925L199.287 13.5598L202.601 17.5601C202.75 17.7196 202.929 17.7992 203.139 17.7992H207.617C207.656 17.7992 207.686 17.8116 207.706 17.8365C207.726 17.8614 207.736 17.894 207.736 17.9334V20.9188C207.736 20.9485 207.726 20.9763 207.706 21.0008C207.686 21.0257 207.656 21.0381 207.617 21.0381H202.9C201.696 21.0381 200.666 20.5556 199.81 19.5902L197.064 16.2765L194.317 19.5902C193.451 20.5556 192.416 21.0381 191.212 21.0381H186.495C186.455 21.0381 186.425 21.0257 186.405 21.0008C186.385 20.9759 186.376 20.9437 186.376 20.9036V17.9181C186.376 17.8884 186.385 17.861 186.405 17.8361C186.425 17.8112 186.455 17.7988 186.495 17.7988H190.973C191.182 17.7988 191.366 17.7144 191.525 17.5449L194.764 13.6341L199.795 7.54431Z" fill="#00D1FF"/>
<path d="M234.13 17.5974C234.13 18.0539 234.037 18.4891 233.852 18.9028C233.68 19.3165 233.438 19.6803 233.124 19.9942C232.81 20.3081 232.446 20.5577 232.033 20.7432C231.619 20.9144 231.177 21 230.706 21H220.605V6.02H230.706C231.162 6.02 231.597 6.11273 232.011 6.2982C232.425 6.4694 232.789 6.71193 233.103 7.0258C233.416 7.3254 233.666 7.68207 233.852 8.0958C234.037 8.50953 234.13 8.9518 234.13 9.4226V17.5974ZM232.033 9.6366C232.033 9.13727 231.861 8.7164 231.519 8.374C231.177 8.01733 230.756 7.839 230.256 7.839H222.681V19.181H230.256C230.756 19.181 231.177 19.0098 231.519 18.6674C231.861 18.3107 232.033 17.8827 232.033 17.3834V9.6366ZM249.036 6.02C249.493 6.02 249.928 6.11273 250.341 6.2982C250.755 6.4694 251.112 6.71193 251.411 7.0258C251.725 7.3254 251.975 7.68207 252.16 8.0958C252.346 8.50953 252.439 8.9518 252.439 9.4226V17.5974C252.439 18.0539 252.346 18.4891 252.16 18.9028C251.989 19.3165 251.747 19.6803 251.433 19.9942C251.133 20.3081 250.777 20.5577 250.363 20.7432C249.949 20.9144 249.507 21 249.036 21H242.102C241.646 21 241.211 20.9144 240.797 20.7432C240.383 20.5577 240.02 20.3152 239.706 20.0156C239.392 19.7017 239.142 19.3379 238.957 18.9242C238.785 18.5105 238.7 18.0682 238.7 17.5974V9.4226C238.7 8.96607 238.793 8.53093 238.978 8.1172C239.164 7.70347 239.406 7.3468 239.706 7.0472C240.02 6.73333 240.383 6.48367 240.797 6.2982C241.211 6.11273 241.646 6.02 242.102 6.02H249.036ZM250.363 9.6366C250.363 9.13727 250.185 8.7164 249.828 8.374C249.485 8.01733 249.065 7.839 248.565 7.839H242.573C242.074 7.839 241.646 8.01733 241.289 8.374C240.947 8.7164 240.776 9.13727 240.776 9.6366V17.3834C240.776 17.8827 240.947 18.3107 241.289 18.6674C241.646 19.0098 242.074 19.181 242.573 19.181H248.565C249.065 19.181 249.485 19.0098 249.828 18.6674C250.185 18.3107 250.363 17.8827 250.363 17.3834V9.6366ZM260.434 21C259.977 21 259.542 20.9144 259.128 20.7432C258.715 20.5577 258.351 20.3152 258.037 20.0156C257.723 19.7017 257.473 19.3379 257.288 18.9242C257.117 18.5105 257.031 18.0682 257.031 17.5974V9.4226C257.031 8.96607 257.124 8.53093 257.309 8.1172C257.495 7.70347 257.737 7.3468 258.037 7.0472C258.351 6.73333 258.715 6.48367 259.128 6.2982C259.542 6.11273 259.977 6.02 260.434 6.02H266.725C267.182 6.02 267.617 6.11273 268.031 6.2982C268.444 6.48367 268.801 6.73333 269.101 7.0472C269.415 7.3468 269.664 7.70347 269.85 8.1172C270.035 8.53093 270.128 8.96607 270.128 9.4226V10.3214H268.052V9.6366C268.052 9.13727 267.874 8.7164 267.517 8.374C267.175 8.01733 266.754 7.839 266.255 7.839H260.905C260.405 7.839 259.977 8.01733 259.621 8.374C259.278 8.7164 259.107 9.13727 259.107 9.6366V17.3834C259.107 17.8827 259.278 18.3107 259.621 18.6674C259.977 19.0098 260.405 19.181 260.905 19.181H266.255C266.754 19.181 267.175 19.0098 267.517 18.6674C267.874 18.325 268.052 17.9041 268.052 17.4048V16.6986H270.128V17.5974C270.128 18.0539 270.035 18.4891 269.85 18.9028C269.664 19.3165 269.415 19.6803 269.101 19.9942C268.801 20.2938 268.444 20.5363 268.031 20.7218C267.617 20.9073 267.182 21 266.725 21H260.434ZM277.684 21C277.228 21 276.793 20.9144 276.379 20.7432C275.965 20.5577 275.601 20.3081 275.288 19.9942C274.974 19.6803 274.724 19.3165 274.539 18.9028C274.367 18.4891 274.282 18.0539 274.282 17.5974V6.02H276.358V17.4048C276.358 17.9041 276.529 18.325 276.871 18.6674C277.214 19.0098 277.634 19.181 278.134 19.181H283.676C284.176 19.181 284.597 19.0098 284.939 18.6674C285.296 18.3107 285.474 17.8827 285.474 17.3834V6.02H287.571V17.5974C287.571 18.0539 287.478 18.4891 287.293 18.9028C287.107 19.3165 286.858 19.6803 286.544 19.9942C286.23 20.3081 285.866 20.5577 285.453 20.7432C285.039 20.9144 284.604 21 284.147 21H277.684ZM299.889 18.1966L294.689 9.1016V21H292.613V6.02H295.139L300.917 16.2064L306.673 6.02H309.198V21H307.123V9.123L301.944 18.1966H299.889ZM326.186 21H314.33V6.02H326.186V7.839H316.406V12.4828H324.538V14.3018H316.406V19.181H326.186V21ZM344.189 6.02V21H341.771L333.233 8.8234V21H331.157V6.02H333.575L342.114 18.1966V6.02H344.189ZM361.455 7.839H355.869V21H353.794V7.839H348.187V6.02H361.455V7.839ZM375.426 21L373.885 17.3192H366.138L364.597 21H362.479L368.813 6.02H371.21L377.544 21H375.426ZM366.887 15.5002H373.114L370.076 8.1814H369.947L366.887 15.5002ZM391.806 7.839H386.221V21H384.145V7.839H378.538V6.02H391.806V7.839ZM397.906 6.02V21H395.83V6.02H397.906ZM413.101 6.02C413.558 6.02 413.993 6.11273 414.407 6.2982C414.82 6.4694 415.177 6.71193 415.477 7.0258C415.791 7.3254 416.04 7.68207 416.226 8.0958C416.411 8.50953 416.504 8.9518 416.504 9.4226V17.5974C416.504 18.0539 416.411 18.4891 416.226 18.9028C416.055 19.3165 415.812 19.6803 415.498 19.9942C415.199 20.3081 414.842 20.5577 414.428 20.7432C414.014 20.9144 413.572 21 413.101 21H406.168C405.711 21 405.276 20.9144 404.862 20.7432C404.449 20.5577 404.085 20.3152 403.771 20.0156C403.457 19.7017 403.207 19.3379 403.022 18.9242C402.851 18.5105 402.765 18.0682 402.765 17.5974V9.4226C402.765 8.96607 402.858 8.53093 403.043 8.1172C403.229 7.70347 403.471 7.3468 403.771 7.0472C404.085 6.73333 404.449 6.48367 404.862 6.2982C405.276 6.11273 405.711 6.02 406.168 6.02H413.101ZM414.428 9.6366C414.428 9.13727 414.25 8.7164 413.893 8.374C413.551 8.01733 413.13 7.839 412.631 7.839H406.639C406.139 7.839 405.711 8.01733 405.355 8.374C405.012 8.7164 404.841 9.13727 404.841 9.6366V17.3834C404.841 17.8827 405.012 18.3107 405.355 18.6674C405.711 19.0098 406.139 19.181 406.639 19.181H412.631C413.13 19.181 413.551 19.0098 413.893 18.6674C414.25 18.3107 414.428 17.8827 414.428 17.3834V9.6366ZM434.407 6.02V21H431.989L423.45 8.8234V21H421.375V6.02H423.793L432.331 18.1966V6.02H434.407Z" fill="white"/>
</svg>
