<svg width="160" height="113" viewBox="0 0 160 113" fill="none" xmlns="http://www.w3.org/2000/svg">
<path d="M38.658 26.3149C37.5393 25.0352 36.162 24.3938 34.5231 24.3938H1.00442C0.7067 24.3938 0.463114 24.2996 0.279673 24.1111C0.0932243 23.9257 0 23.716 0 23.491V0.9028C0 0.67786 0.0932243 0.471158 0.279673 0.282695C0.463114 0.0942316 0.7067 0 1.00442 0H36.4236C45.3612 0 53.0717 3.65376 59.5523 10.9552L68.156 21.4575L51.3967 41.8996L38.658 26.3149ZM100.559 10.8427C107.04 3.61424 114.786 0 123.799 0H159.107C159.405 0 159.627 0.0759933 159.777 0.22494C159.925 0.376927 160 0.601867 160 0.9028V23.491C160 23.716 159.925 23.9257 159.777 24.1111C159.627 24.2996 159.405 24.3938 159.107 24.3938H125.588C123.949 24.3938 122.572 25.0352 121.453 26.3149L96.7608 56.3566L121.565 86.6232C122.683 87.83 124.021 88.4318 125.588 88.4318H159.107C159.405 88.4318 159.627 88.5261 159.777 88.7145C159.925 88.903 160 89.1492 160 89.4471V112.035C160 112.26 159.925 112.47 159.777 112.655C159.627 112.844 159.405 112.938 159.107 112.938H123.799C114.786 112.938 107.076 109.287 100.67 101.983L80.1128 76.9113L59.5523 101.983C53.0717 109.287 45.3251 112.938 36.3124 112.938H1.00442C0.7067 112.938 0.481158 112.844 0.333803 112.655C0.183441 112.467 0.111268 112.224 0.111268 111.92V89.3316C0.111268 89.1067 0.183441 88.8999 0.333803 88.7115C0.481158 88.523 0.7067 88.4288 1.00442 88.4288H34.5231C36.0868 88.4288 37.4641 87.7904 38.658 86.5077L62.9024 56.9189L100.559 10.8427Z" fill="#00D1FF"/>
</svg>
