<svg width="340" height="240"
    viewBox="0 0 340 240" fill="none" xmlns="http://www.w3.org/2000/svg">
  <path fill="#00D1FF" d="M82.148 55.92c-2.377-2.72-5.304-4.083-8.786-4.083H2.134c-.632 0-1.15-.2-1.54-.6-.396-.395-.594-.84-.594-1.319v-48C0 1.44.198 1.001.594.601.984.2 1.502 0 2.134 0H77.4c18.992 0 35.377 7.764 49.149 23.28l18.283 22.317-35.614 43.44-27.07-33.118Zm131.54-32.88C227.459 7.68 243.921 0 263.073 0h75.029c.633 0 1.106.161 1.425.478.313.323.473.801.473 1.44v48c0 .478-.16.924-.473 1.318-.319.4-.792.6-1.425.6h-71.227c-3.483 0-6.41 1.364-8.787 4.083l-52.471 63.839 52.708 64.316c2.377 2.565 5.221 3.844 8.55 3.844h71.227c.633 0 1.106.2 1.425.6.313.401.473.924.473 1.557v48c0 .478-.16.924-.473 1.318-.319.4-.792.601-1.425.601h-75.029c-19.152 0-35.537-7.758-49.149-23.28l-43.684-53.278-43.691 53.278c-13.772 15.522-30.233 23.28-49.385 23.28H2.134c-.632 0-1.112-.201-1.425-.601-.32-.401-.473-.917-.473-1.563v-48c0-.478.154-.918.473-1.318.313-.401.793-.601 1.425-.601h71.228c3.323 0 6.25-1.356 8.786-4.082l51.52-62.876 80.02-97.912Z"/>
</svg>
