<svg width="43" height="30" fill="none" xmlns="http://www.w3.org/2000/svg">
  <g clip-path="url(#a)">
    <path fill="#00DCFF" d="M10.246 6.965a1.4 1.4 0 0 0-1.096-.508H.266a.257.257 0 0 1-.192-.075A.228.228 0 0 1 0 6.218V.239A.23.23 0 0 1 .074.075.257.257 0 0 1 .266 0h9.388c2.369 0 4.412.967 6.13 2.9l2.28 2.78-4.442 5.41-3.376-4.125ZM26.653 2.87C28.37.957 30.423 0 32.813 0h9.357c.08 0 .138.02.178.06.04.04.06.1.06.179v5.979c0 .06-.02.115-.06.164-.04.05-.099.075-.178.075h-8.884a1.4 1.4 0 0 0-1.095.508l-6.545 7.952 6.574 8.01c.297.32.651.48 1.066.48h8.884c.08 0 .138.024.178.074.04.05.06.115.06.194v5.979c0 .06-.02.115-.06.164-.04.05-.099.075-.178.075h-9.358c-2.388 0-4.432-.966-6.13-2.9l-5.448-6.636-5.45 6.636c-1.718 1.934-3.77 2.9-6.16 2.9H.266c-.079 0-.138-.025-.178-.075a.301.301 0 0 1-.059-.195v-5.979c0-.059.02-.114.06-.164.039-.05.098-.074.177-.074H9.15c.415 0 .78-.17 1.096-.509l6.426-7.831 9.98-12.196Z"/>
    <path fill="#00D1FF" d="M10.246 6.965a1.4 1.4 0 0 0-1.096-.508H.266a.257.257 0 0 1-.192-.075A.228.228 0 0 1 0 6.218V.239A.23.23 0 0 1 .074.075.257.257 0 0 1 .266 0h9.388c2.369 0 4.412.967 6.13 2.9l2.28 2.78-4.442 5.41-3.376-4.125ZM26.653 2.87C28.37.957 30.423 0 32.813 0h9.357c.08 0 .138.02.178.06.04.04.06.1.06.179v5.979c0 .06-.02.115-.06.164-.04.05-.099.075-.178.075h-8.884a1.4 1.4 0 0 0-1.095.508l-6.545 7.952 6.574 8.01c.297.32.651.48 1.066.48h8.884c.08 0 .138.024.178.074.04.05.06.115.06.194v5.979c0 .06-.02.115-.06.164-.04.05-.099.075-.178.075h-9.358c-2.388 0-4.432-.966-6.13-2.9l-5.448-6.636-5.45 6.636c-1.718 1.934-3.77 2.9-6.16 2.9H.266c-.079 0-.138-.025-.178-.075a.301.301 0 0 1-.059-.195v-5.979c0-.059.02-.114.06-.164.039-.05.098-.074.177-.074H9.15c.415 0 .78-.17 1.096-.509l6.426-7.831 9.98-12.196Z"/>
  </g>
  <defs>
    <clipPath id="a">
      <path fill="#fff" d="M0 0h42.407v29.894H0z"/>
    </clipPath>
  </defs>
</svg>
