<svg width="80" height="80" fill="none" xmlns="http://www.w3.org/2000/svg">
  <path fill="#fff" d="M64.472 34.087c-.221 6.016-4.264 12.661-12.21 17.247a4.217 4.217 0 0 0-1.888 2.516c-.653 3.446-.632 6.868 1.168 10.13.604 1.038.8 2.244.553 3.404a4.989 4.989 0 0 1-1.9 2.941 5.455 5.455 0 0 1-3.16 1.21 5.517 5.517 0 0 1-3.285-.865c-2.14-1.338-2.67-3.655-2.114-6.176.694-3.117.946-6.301 1.312-9.505.16-1.524.236-3.054.231-4.586 0-2.632 1.383-4.241 3.821-5.492 8.05-4.125 10.863-13.01 6.604-20.305-3.034-5.191-9.53-8.439-15.177-7.58-7.237 1.1-12.41 5.433-13.625 11.415-1.3 6.422 1.518 12.5 7.299 15.763 4.598 2.593 5.76 4.847 4.49 9.694a4.987 4.987 0 0 1-1.035 1.768 5.34 5.34 0 0 1-1.686 1.247c-1.718.713-3.487-.126-4.197-1.842-1.029-2.467-3.086-3.844-5.195-5.36-9.113-6.535-12.045-18.43-7.082-28.26 2.424-4.866 6.552-8.796 11.69-11.13 5.138-2.335 10.972-2.93 16.52-1.686 11.058 2.4 18.974 11.9 18.866 25.453Z"/>
  <path fill="#fff" d="M46.696 38.782c-3.524 3.17-9.176 3.082-12.972-.35-3.795-3.431-3.538-10.227-.426-12.321l13.398 12.67Z"/>
</svg>
