<svg viewBox="0 0 293.775 293.667" xmlns="http://www.w3.org/2000/svg">
  <path fill="#fff" d="M61.055 139.819a12.45 12.45 0 0 1 12.508-12.452l20.737.068a12.467 12.467 0 0 1 12.467 12.467v78.414c2.336-.692 5.332-1.43 8.614-2.2a10.389 10.389 0 0 0 8.009-10.11V108.74a12.469 12.469 0 0 1 12.467-12.47h20.779a12.47 12.47 0 0 1 12.467 12.47v90.276s5.2-2.106 10.269-4.245a10.408 10.408 0 0 0 6.353-9.577V77.567A12.466 12.466 0 0 1 198.19 65.1h20.779a12.468 12.468 0 0 1 12.468 12.467v88.625c18.014-13.055 36.271-28.758 50.759-47.639a20.926 20.926 0 0 0 3.185-19.537A146.6 146.6 0 0 0 148.737.01C67.298-1.084-.007 65.395.001 146.844a146.371 146.371 0 0 0 19.5 73.45 18.56 18.56 0 0 0 17.707 9.173 508.86 508.86 0 0 0 14.643-1.518 10.383 10.383 0 0 0 9.209-10.306v-77.824" data-name="Path 1"/>
  <path fill="#bfcfda" d="M60.603 265.577a146.808 146.808 0 0 0 233.172-118.741c0-3.381-.157-6.724-.383-10.049-53.642 80-152.686 117.405-232.79 128.793" data-name="Path 2"/>
</svg>
