<svg xml:space="preserve" id="Layer_1" x="0" y="0" version="1.1" viewBox="0 0 387.4 438.7" xmlns="http://www.w3.org/2000/svg">
  <style>
    .st2{fill:none}
  </style>
  <g id="XMLID_219_">
    <linearGradient id="XMLID_15_" x1="3.588" x2="155.982" y1="282.692" y2="282.692" gradientUnits="userSpaceOnUse">
      <stop offset="0" stop-color="#b6b0e7"/>
      <stop offset=".049" stop-color="#b2ace7"/>
      <stop offset=".419" stop-color="#9b91e7"/>
      <stop offset=".748" stop-color="#8c81e7"/>
      <stop offset="1" stop-color="#877be7"/>
    </linearGradient>
    <path id="XMLID_412_" fill="url(#XMLID_15_)" d="m81.5 176.6-75.2-43 .1 85.5-.1 151.4c0 14.7 7.8 28.2 20.6 35.5l35.4 20.3c12.6 7.2 27.2 7.2 39.8.1l53.6-30.5"/>
    <linearGradient id="XMLID_16_" x1="156" x2="311" y1="307.321" y2="307.321" gradientUnits="userSpaceOnUse">
      <stop offset="0" stop-color="#6254c4"/>
      <stop offset="1" stop-color="#7567db"/>
    </linearGradient>
    <path id="XMLID_411_" fill="url(#XMLID_16_)" d="M234 350v-86.8l-.9-.5-77.1-43.9v1.6l.2 175.5"/>
    <path id="XMLID_410_" d="m232.7 262.7-77.2-43.9 77 44z" class="st2"/>
    <path id="XMLID_386_" d="m233.5 176.8 3.3-1.9z" class="st2"/>
    <linearGradient id="XMLID_17_" x1="234" x2="389" y1="241.72" y2="241.72" gradientUnits="userSpaceOnUse">
      <stop offset="0" stop-color="#5245b0"/>
      <stop offset="1" stop-color="#6456d1"/>
    </linearGradient>
    <path id="XMLID_384_" fill="url(#XMLID_17_)" d="M309.3 219.7 234 263.2v86.6l129.4-77c12.7-7.3 18.6-20.8 18.6-35.5v-37.7c0-14.6-7-28.1-19.7-35.5l-52.9-30.6-.1 86.2z"/>
    <linearGradient id="XMLID_18_" x1="234" x2="385.788" y1="198.426" y2="198.426" gradientUnits="userSpaceOnUse">
      <stop offset="0" stop-color="#6254c4"/>
      <stop offset="1" stop-color="#7567db"/>
    </linearGradient>
    <path id="XMLID_672_" fill="url(#XMLID_18_)" d="m234 263.2 75.3-43.5.1-86.1-75.4 42.9"/>
    <linearGradient id="XMLID_19_" x1="80.584" x2="80.584" y1="350.709" y2="350.709" gradientUnits="userSpaceOnUse">
      <stop offset="0" stop-color="#7a6dd9"/>
      <stop offset="1" stop-color="#877be7"/>
    </linearGradient>
    <linearGradient id="XMLID_20_" x1="81.538" x2="81.538" y1="349.8" y2="349.8" gradientUnits="userSpaceOnUse">
      <stop offset="0" stop-color="#7a6dd9"/>
      <stop offset="1" stop-color="#877be7"/>
    </linearGradient>
    <linearGradient id="XMLID_21_" x1="-2.117" x2="467.555" y1="222.359" y2="222.359" gradientUnits="userSpaceOnUse">
      <stop offset="0" stop-color="#7a6dd9"/>
      <stop offset="1" stop-color="#877be7"/>
    </linearGradient>
    <path id="XMLID_292_" fill="url(#XMLID_21_)" d="M11.6 48.9c-3.3 5.9-5.2 13-5.2 20v63.9l.2.8 72.4 43v176.6l77.1 42.5-.1-176.4 78 43.9V176"/>
    <linearGradient id="XMLID_22_" x1="3.769" x2="413.738" y1="92.292" y2="92.292" gradientUnits="userSpaceOnUse">
      <stop offset="0" stop-color="#6254c4"/>
      <stop offset=".308" stop-color="#6659c8"/>
      <stop offset=".66" stop-color="#7467d5"/>
      <stop offset="1" stop-color="#877be7"/>
    </linearGradient>
    <path id="XMLID_262_" fill="url(#XMLID_22_)" d="m234 176.5 75.4-42.9L193 66.2v-.1l-91.5-52.7c-12.6-7.2-26.9-7.3-39.5 0L26.7 33.5c-6.6 3.8-11.8 9.1-15.4 15.4"/>
  </g>
</svg>
