<svg width="42" height="42" fill="none" xmlns="http://www.w3.org/2000/svg"><path d="M21 42c11.598 0 21-9.402 21-21S32.598 0 21 0 0 9.402 0 21s9.402 21 21 21Z" fill="url(#a)"/><path d="m30.152 29.283-7.062-17.05c-.399-.881-.989-1.313-1.77-1.313h-.624c-.78 0-1.37.432-1.77 1.313l-3.07 7.428H13.53a1.272 1.272 0 0 0-1.267 1.261v.018a1.27 1.27 0 0 0 1.267 1.26h1.249l-2.932 7.083a1.492 1.492 0 0 0-.087.484c0 .398.122.709.347.95.226.242.538.363.937.363.262-.004.517-.088.729-.242.225-.155.381-.38.503-.64l3.227-7.997h2.238a1.272 1.272 0 0 0 1.267-1.262v-.034a1.27 1.27 0 0 0-1.267-1.261h-1.197l2.464-6.133L27.723 30.2c.122.259.278.484.503.64.212.153.467.238.73.241.398 0 .71-.12.936-.363.226-.242.347-.553.347-.95a1.141 1.141 0 0 0-.087-.484Z" fill="#fff"/><defs><linearGradient id="a" x1="38.094" y1="9.534" x2="6.846" y2="35.826" gradientUnits="userSpaceOnUse"><stop stop-color="#B6509E"/><stop offset="1" stop-color="#2EBAC6"/></linearGradient></defs></svg>