<svg width="42" height="42" fill="none" xmlns="http://www.w3.org/2000/svg"><mask id="a" style="mask-type:alpha" maskUnits="userSpaceOnUse" x="0" y="0" width="42" height="42"><path d="M42 21c0 11.598-9.402 21-21 21S0 32.598 0 21 9.402 0 21 0s21 9.402 21 21Z" fill="#0E052F"/></mask><g mask="url(#a)"><path d="M42.402 21.204c0-11.786-9.555-21.34-21.342-21.34C9.274-.137-.28 9.417-.28 21.203c0 11.787 9.555 21.342 21.341 21.342 11.787 0 21.342-9.555 21.342-21.341Z" fill="url(#b)"/><path d="M35.573 14.543c-.09.523-.194.776-.317 1.069a6.14 6.14 0 0 0-.418 1.395c-.054.286-.08.496-.104.681l-.002.012-.001.01c-.038.297-.063.497-.184.853a4.3 4.3 0 0 1-.655 1.297c-.318.422-.85 1.129-1.561 1.213-.062.005-.19.011-.244-.016-2.015-1.03-3.747-1.79-4.347-1.96-.697-.198-.607-1.718-.529-3.06.036-.599.07-1.166.041-1.651-.098-1.693-.398-3.546-1.872-4.45-.88-.54-2.016-.697-3.101-.7.2-.095.425-.225.67-.368l.007-.004c.639-.37 1.432-.83 2.22-.91.258-.025.51-.055.76-.083 1.59-.18 2.962-.334 4.41.161.655.225 2.002.976 2.35 1.674.244.492.657.876 1.48 1.641.43.4.712.631.919.801l.009.008c.29.239.348.289.434.465.267.544.17 1.122.035 1.922Zm-7.333 6.961a.155.155 0 0 1 .076.233c-.216.326-.462.774-.758 1.322-.139.259-.27.502-.38.693-.39.67-.422 1.235-.447 1.688-.027.474-.051.691-.334.88-.234.157-.473.21-2.133.462-.29.045-.418.101-.531.15a1.736 1.736 0 0 1-.096.04c-.096.036-.19-.046-.185-.148.014-.239.022-.538.023-.914v-.072a9.297 9.297 0 0 0-.017-.801c-.021-.424-.024-.603.089-.787.138-.223.247-.291.424-.404.249-.156.589-.37 1.093-1.063.267-.366.327-.565.364-.737.016-.071.022-.098.228-.254.218-.166.882-.669 1.732-.526.235.04.534.128.852.238Zm-6.603 7.651a.172.172 0 0 1-.14.072c-.173.008-.295-.035-.376-.132-.171-.209-.148-.627-.108-.872l.702-.187c.055.371.08.913-.078 1.12Zm.057-2.532a2.842 2.842 0 0 0-.025.338l.003.134c.002.115.006.297-.01.38-.219.08-.406.08-.652.075a2.96 2.96 0 0 1 .003-.249c.002-.055.005-.11.005-.162v-.173c0-.135-.002-.356.03-.421.067-.01.134-.025.207-.041.145-.031.334-.072.455-.053-.002.047-.01.116-.017.172Zm-1.299 2.317c-.034.36-.145.804-.482.872-.152.03-.226-.015-.272-.058-.228-.212-.264-.85-.232-1.306.152.003.35-.031.586-.077.144-.028.287-.06.4-.086.014.169.023.41 0 .654Zm-.16-1.292-.761.267c.038-.296.09-.712.108-.988.013-.194.066-.254.081-.267.005-.004.015-.014.044-.014l.013.001.017.003.48-.027c.021.226.021.723.018 1.025Zm-1.23-.237c-.043.115-.094.44-.125.668l-.954-.03c.054-.295.128-.595.21-.835.083-.238.172-.416.254-.466a.417.417 0 0 1 .436.04c.21.178.268.383.18.623Zm-.355 2.919c-.075.101-.157.152-.258.163-.104.012-.185-.011-.25-.072-.299-.276-.274-1.182-.263-1.617.395-.09.822-.167 1.024-.179.03.365.04 1.306-.254 1.705Zm-1.246-2.306c-.046.124-.091.241-.125.345-.111.035-.45.005-.796-.072l.238-1.5c.39-.104.844-.138.954-.021.145.153-.146.92-.27 1.248Zm-.431 2.535c-.185.227-.462.334-.85.33-.267-.005-.363-.106-.41-.182-.215-.34-.005-1.143.205-1.655l1.292.078c.013.09.024.2.03.318.014.365-.032.819-.267 1.11Z" fill="#fff"/><path d="M27.648 19.667c-1.163-.33-1.063-2.03-.966-3.674.034-.581.067-1.131.04-1.58-.089-1.539-.348-3.215-1.585-3.973-1.33-.814-3.508-.628-4.851-.457h-.004l-.001.001c-.492.149-.953.246-1.31.227-.792-.041-1.409-.375-1.952-.668-.424-.23-.793-.428-1.141-.428l-.057.001c-1.041.068-1.52.322-1.955.71-.11.097-.242.377-.68 1.635-.22.636-.26.984-.301 1.322-.037.309-.075.627-.239 1.1-.114.328-.198.61-.28.881-.215.723-.386 1.292-.897 1.969-.06.08-.134.197-.22.332-.116.182-.26.41-.45.672-.133.185-.44.878-.423 1.09.025.336.135.544.26.788.124.24.266.512.292.888l.004.06c.045.596-.04.895-1.172 1.907a12.1 12.1 0 0 0-1.586 1.73c-.03.04.009.1.06.097a.594.594 0 0 1 .228.002c.274.032.541.148.734.347a.12.12 0 0 0 .13.026c.185-.076.387-.064.58-.046.24.022.482.094.64.248a.2.2 0 0 0 .182.056c.187-.043.384-.039.566.027a.911.911 0 0 1 .362.245.215.215 0 0 0 .27.035.78.78 0 0 1 .175-.084c.245-.084.517-.036.756.05.118.042.241.08.347.15.195.13.314.32.39.532.043.119.204.16.301.08.175-.147.314-.171.454-.11.071.033.12.077.154.133.059.096.177.175.285.145a1.72 1.72 0 0 1 1.203.134.817.817 0 0 1 .33.31l.01-.066a.079.079 0 0 1 .055-.063l.08-.025c.188-.06 1.15-.337 1.523.057a.043.043 0 0 0 .06 0 .517.517 0 0 1 .119-.101.846.846 0 0 1 .938.081c.056.047.147.03.189-.03a.489.489 0 0 1 .447-.213l.527-.028a7.642 7.642 0 0 0 .706-.069c.055-.008.12-.022.188-.036.256-.056.547-.12.785-.009.23.106.2.367.173.598-.01.093-.022.19-.022.283l.004.131c.003.199.007.382-.032.523v.002l.024.109.004.015c.021.1.128.156.216.103.184-.112.377-.258.436-.342a.084.084 0 0 0 .01-.02.877.877 0 0 0 .04-.163c.032-.197.069-.595.072-1.405v-.087c.007-.3-.004-.542-.016-.755-.022-.439-.04-.784.178-1.135.212-.342.418-.472.616-.597.23-.144.49-.308.927-.908.215-.295.241-.414.262-.51.047-.222.121-.356.452-.607.27-.203 1.09-.825 2.196-.639.363.062.951.256 1.532.484h.001a.353.353 0 0 1 .087.036c.519.207 1.023.438 1.346.623a.176.176 0 0 0 .225-.05 1.15 1.15 0 0 1 .346-.292c.046-.029.082-.05.116-.08l.035-.028c.097-.078.096-.246-.014-.303a19.93 19.93 0 0 0-3.514-1.394Zm-11.082.358c-.36 1.574-2.798 3.305-3.907 3.305h-.022a.517.517 0 0 1-.125-.021l-.036-.011a1.88 1.88 0 0 1-.691-.426c-.145-.142-.26-.31-.296-.491l-.02-.095c-.06-.268-.134-.603.102-1.15.033-.073.062-.142.088-.204l.026-.062a14.244 14.244 0 0 0 .151-.377l.025-.067c.068-.19.076-.26.086-.333.008-.058.016-.128.04-.228.07-.296.105-.546.137-.769.056-.4.106-.747.322-1.064a.874.874 0 0 1 .17-.19c.017-.015.034-.027.05-.04.053-.037.11-.07.17-.097l.062-.025c.043-.016.088-.03.135-.042.199-.048.433-.055.702-.021.295.023.568.079.81.146a5.141 5.141 0 0 1 .665.237c.042.017.08.034.116.05l.13.058.036.017a2.212 2.212 0 0 1 .71.485c.468.493.445 1.064.364 1.415Zm1.13-5.967-.047.285c-.11.643-.36 1.525-1.287 1.752-.89.218-1.102.265-1.736.293-.014.002-.03.002-.044.002-.463 0-1.354-.292-1.512-1.018-.101-.467.105-.806.445-1.367l.182-.303c.45-.756.626-1.304.768-1.743.138-.428.254-.783.55-1.076a1.627 1.627 0 0 1 .417-.302c.084-.042.172-.078.265-.107.206-.066.429-.1.652-.1.432 0 .863.125 1.171.372.139.11.335.332.45.986.059.337-.042.957-.274 2.326Zm6.607 1.83c-.319.548-.493.849-.768 1.075-.547.448-1.184.562-1.709.562-.377 0-.697-.058-.886-.093-.542-.099-1.551-.282-1.888-1.08a.858.858 0 0 1-.066-.384c0-.125 0-.336-.059-.837l-.003-.034a2.422 2.422 0 0 1 .008-.813l.008-.04c.19-.967.242-1.115.285-1.199a.388.388 0 0 1 .696.34c-.02.055-.073.261-.22 1.01l-.008.039c-.042.211-.023.371.001.574l.003.034c.064.545.064.792.064.925v.065c0 .006.004.014.006.02.063.15.205.263.378.35.108.054.22-.049.196-.167-.172-.853-.163-1.847.163-2.462a19.91 19.91 0 0 1 .493-.852l.002-.003.056-.093.047-.078a31.76 31.76 0 0 1 .265-.432l.036-.06.014-.023.006-.01a.355.355 0 0 1 .017-.026l.021-.035.001-.002.004-.006.002-.002c.064-.094.128-.184.19-.268.085-.114-.013-.264-.145-.21a2.484 2.484 0 0 0-.576.329.386.386 0 0 1-.544-.062.39.39 0 0 1 .062-.546c.2-.156 1.257-.927 2.522-.565.912.26 1.39.956 1.57 1.218.146.213.59.858.576 1.76-.01.688-.297 1.183-.82 2.081Z" fill="#fff"/><path d="M16.082 11.172c-.064.157-.142.351-.225.563-.195.489-.415 1.042-.521 1.243-.183.347-.326.566-.44.743-.13.202-.233.363-.311.586-.138.391-.162.828-.073 1.304-.242-.027-.64-.194-.684-.405-.034-.156.064-.328.35-.8.058-.093.12-.196.187-.31.493-.83.692-1.447.84-1.899.157-.491.232-.697.484-.87a1.02 1.02 0 0 1 .393-.155Zm-.481 17.409c-.269.549-.603 1.056-.811 1.306-.173-.466-.473-1.535-.394-2.395.003-.025.005-.05.009-.073.032-.266.102-.51.228-.705.083-.128.312-.207.573-.207.192 0 .4.042.581.139h.001c.097.052.228.156.242.46.02.41-.176.96-.429 1.475Z" fill="#fff"/><path d="M30.321 22.431c.021.017.034.042.022.066-.08.161-.176.274-.29.408-.137.163-.294.348-.44.637-.207.409-.274.782-.309 1.738a18.43 18.43 0 0 0 .035 2.213c.031.445.05.712-.029 1.146-.16.873-.533 1.452-1.007 2.184-.592.916-1.204 1.862-2.219 2.164-.094.03-.097.03-.362.03-.23 0-.613 0-1.338.028-1.325.048-1.99.072-2.559.18-.597.116-.908.243-1.21.365-.272.11-.53.215-1.023.316-.294.06-.734.125-2.232.127-1.556.003-2.496.003-3.737-.138-1.703-.194-2.558-.292-3.125-.595-1.34-.714-1.905-1.998-2.84-4.126l-.005-.012c-.011-.026.02-.052.046-.037a.742.742 0 0 0 .266.1.788.788 0 0 0 .265 0 .204.204 0 0 0 .045-.013l.008-.003a.03.03 0 0 1 .042.014c.06.164.154.31.313.395.158.083.34.089.516.088a5.25 5.25 0 0 0 .547-.035c.097-.01.195.037.232.126.166.403.372.695.681.738a.468.468 0 0 0 .067.005c.07 0 .177-.02.329-.125.117-.08.3-.033.384.082.077.105.169.18.248.243.319.327 1.093.484 1.743.484.355 0 .673-.047.86-.138.268-.13.268-.329.255-.41a12.858 12.858 0 0 1-.061-.43c-.002-.017.024-.024.03-.008.04.085.087.19.214.211.014.002.029.005.046.005.182 0 .464.059.512.233.025.09.06.173.108.248.108.172.33.377.77.385h.033c.504 0 .894-.165 1.156-.491l.049-.065c.094-.133.375-.138.494-.028a.712.712 0 0 0 .588.184.79.79 0 0 0 .566-.347c.096-.133.166-.297.216-.474.015-.053.087-.068.127-.031a.684.684 0 0 0 .474.183.858.858 0 0 0 .176-.019c.438-.088.656-.45.759-.86.003-.013.023-.017.032-.006.111.135.316.29.672.29h.056a.603.603 0 0 0 .462-.24c.14-.182.195-.452.208-.723a.207.207 0 0 1 .127-.18c.376-.156.832-.495.965-.725a.723.723 0 0 0 .014-.026.218.218 0 0 1 .148-.118c.292-.055.419-.11.534-.16a1.24 1.24 0 0 1 .381-.108c1.684-.256 2.013-.313 2.377-.556.545-.363.573-.864.6-1.348.023-.409.049-.873.367-1.418.115-.2.248-.447.39-.71.248-.46.595-1.104.843-1.441a.17.17 0 0 1 .203-.053c.582.247 1.078.495 1.185.581Z" fill="#fff"/><path d="M13.97 27.441c-.067.582-.108 1.36-.014 2.373.027.286.065.583.11.884-.08.043-.317.104-.741.097-.609-.012-1.202-.165-1.38-.358l-.027-.024c-.148-.12-.246-.198-.26-.41-.004-.072.027-.143.093-.244.036-.056.084-.122.143-.202a5.6 5.6 0 0 0 .36-.53 11.096 11.096 0 0 1 .754-1.155c.109-.148.236-.325.426-.616.143-.216.26-.385.358-.518.163-.221.27-.341.338-.407-.01.1-.033.241-.055.371-.032.2-.073.445-.105.74Zm-.28-9.051-.01.016c-.08.11-.17.234-.279.475-.29.645-.296 1.01-.3 1.304-.003.154-.005.277-.047.42a3.282 3.282 0 0 1-.13.327c-.171.392-.395.906-.295 1.597-.138-.066-.35-.219-.38-.3a3.565 3.565 0 0 0-.024-.112c-.048-.216-.08-.356.057-.672.361-.832.405-1.029.434-1.256.006-.049.011-.087.026-.15.076-.328.116-.609.149-.835.048-.342.08-.569.196-.739.042-.063.162-.096.332-.096.067 0 .143.005.227.017l.019.002.026.002Zm-.475 8.206c-.02-.2-.055-.4-.127-.588l-.031-.066c-.013-.024-.028-.047-.042-.07l-.002-.002-.001-.002-.023-.026a.503.503 0 0 0-.068-.056l-.045-.025a.165.165 0 0 0-.025-.01v-.002c-.003 0-.006 0-.007-.002l-.005-.003a.014.014 0 0 0-.005-.001h-.002l-.01-.005c-.115-.042-.233-.089-.356-.107h-.008l-.043-.003h-.081l-.01.001c0 .002-.003.002-.004.002h-.002l-.084.023c-.011.006-.024.012-.036.02l-.03.018-.004.002-.002.002-.04.038a.621.621 0 0 0-.03.035v.002l-.003.002-.001.001-.009.015a26.461 26.461 0 0 1-.485.727 321.316 321.316 0 0 0-.492.716l-.029.043.208.04c.156.028.311.056.47.077a5.8 5.8 0 0 0 .986.053c.016 0 .032 0 .047.003.08-.113.173-.248.292-.429.066-.1.129-.194.188-.28a.33.33 0 0 1-.049-.143Zm-1.16 1.346c-.028.25-.31.9-.748 1.52-.367.517-.59.643-.634.647-.177-.024-.352-.463-.49-.898a18.854 18.854 0 0 1-.149-.499c-.095-.33-.112-.774-.096-1.053.37.206 1.02.26 1.934.264h.003c.06.007.12.014.18.019Zm-.65-2.069v.002l-.012.018a140.29 140.29 0 0 1-.717 1.046c-.044.064-.104.136-.155.212-.13-.03-.26-.06-.388-.096a3.32 3.32 0 0 1-.37-.129.26.26 0 0 0-.07-.087l.002-.004.111-.227c.07-.139.141-.276.22-.41.14-.241.308-.486.543-.643l.037-.024a.699.699 0 0 1 .296-.112 1.28 1.28 0 0 1 .13.002l.014.001h.001l.016.005.083.024.028.014c.024.014.048.027.07.046-.035-.028.051.061.051.055.07.096.09.177.11.307Zm-1.242-.653c-.29.238-.501.556-.677.887-.1.183-.189.37-.281.557a.919.919 0 0 1-.03.056 2.869 2.869 0 0 1-.53-.175c-.04-.019-.08-.038-.12-.06.087-.164.19-.322.29-.476.139-.217.29-.43.453-.63.062-.077.127-.16.214-.21.088-.053.195-.04.297-.034.107.006.223.009.324.05a.37.37 0 0 1 .06.034Zm-.461 3.895a.21.21 0 0 0-.037.04l-.027.007a5.875 5.875 0 0 1-.62.027c-.076-.003-.145-.015-.176-.064-.05-.076-.066-.209-.084-.31a5.037 5.037 0 0 1-.037-1.513c.259.093.525.165.799.21-.06.452.041 1.116.1 1.319l.082.284Zm-.833-4.061c-.23.282-.438.581-.626.892-.075.126-.16.257-.224.392a.976.976 0 0 1-.26-.116 2.515 2.515 0 0 1-.194-.135l-.087-.069a.08.08 0 0 0-.019-.013c.021-.06.06-.126.08-.17a4.334 4.334 0 0 1 .52-.852c.05-.063.097-.143.175-.166a.551.551 0 0 1 .222-.001c.17.033.303.11.413.238Zm-1.767 1.222c.003-.012.019-.013.026-.003.06.085.144.16.234.23.04.03.08.061.121.09.005.004.007.01.006.016a5.21 5.21 0 0 0-.159 1.223c0 .018-.027.022-.031.004-.116-.479-.274-1.278-.197-1.56Zm1.123.856a5.792 5.792 0 0 0-.054 1.031 5.857 5.857 0 0 0 .054.569.342.342 0 0 0-.127-.004c.009-.003-.014-.002-.023-.002h-.003l-.02-.002c-.047-.011-.051-.017-.089-.04a.471.471 0 0 1-.136-.15c-.093-.16-.113-.354-.12-.534a4.687 4.687 0 0 1 .083-1.057c.056.023.106.044.188.08.08.035.165.07.247.108v.001Z" fill="#fff"/><g opacity=".8" filter="url(#c)" stroke-miterlimit="10"><path opacity=".8" d="M17.282 45.055c-1.563 0-3.046-.098-4.29-.195l-.343-.027-.342-.047c-.15-.022-.354-.044-.55-.065-1.197-.13-3.423-.372-5.88-1.526l-.381-.18-.356-.2c-4.722-2.646-6.49-6.63-7.44-8.771l-.204-.454c-.48-.983-.784-1.87-1.042-2.68l-.057-.182-.048-.176c-.685-2.436-.858-4.54-.544-6.62.314-2.088 1.088-3.989 2.432-5.978l.697-1.138a2.3 2.3 0 0 0 .295-.747c.532-2.634 1.737-4.5 2.33-5.39a16.61 16.61 0 0 1 .803-3.164l.055-.156.06-.151.044-.133c.266-.802.89-2.678 2.488-4.648l.6-.727.611-.552a14.17 14.17 0 0 1 5.476-3.091 15.462 15.462 0 0 1 3.488-.617l.114-.008.173-.008a12.888 12.888 0 0 1 2.809.171c.454.076.92.023 1.346-.154a15.39 15.39 0 0 1 3.94-1.058l.29-.039a33.536 33.536 0 0 1 3.966-.256c2.322 0 4.321.301 6.11.92l.153.053.149.056c3.949 1.492 5.96 3.577 7.405 5.417l.069.087.199.177a13.769 13.769 0 0 1 3.279 3.688l.27.444.227.465c1.931 3.943 1.318 7.584 1.086 8.952l-.012.073c-.167 1.009-.431 2-.79 2.957-.133.923-.35 1.832-.65 2.716a15.747 15.747 0 0 1-2.242 4.384c-.56.791-1.192 1.53-1.889 2.205a1.536 1.536 0 0 0-.453.89c-.03.21-.065.416-.104.62-.566 3.038-1.895 5.152-2.437 5.994l-1.64 2.354c-1.974 2.46-4.316 4.082-7.15 4.954l-.688.215-.741.13a14.61 14.61 0 0 1-2.57.222c-.12 0-.24 0-.372-.004h-.038l-.146.01-.157.005h-.005a3.792 3.792 0 0 0-.968.16c-1.831.56-3.903.823-6.435.823Z" stroke="url(#d)" stroke-width="1.055"/><path opacity=".8" d="M17.282 43.436c-1.498 0-2.934-.095-4.142-.19l-.286-.022-.286-.04c-.179-.025-.396-.047-.607-.071-1.162-.127-3.105-.338-5.275-1.355l-.318-.15-.297-.167c-4.167-2.337-5.708-5.807-6.63-7.88a37.53 37.53 0 0 0-.221-.495c-.43-.881-.711-1.694-.949-2.443l-.047-.15-.042-.147c-.61-2.167-.767-4.016-.495-5.82.272-1.803.957-3.47 2.152-5.228l.893-1.458c.158-.258.266-.544.319-.842.445-2.477 1.615-4.233 2.147-5.032l.067-.102.025-.04.031-.072.096-.305c.14-1.017.386-2.015.736-2.98l.048-.129.051-.13c.016-.041.032-.086.076-.22.254-.764.78-2.348 2.16-4.049l.5-.605.508-.46a12.288 12.288 0 0 1 4.748-2.68 13.645 13.645 0 0 1 3.075-.54l.095-.007.143-.007c.174-.008.348-.012.517-.012.748-.001 1.494-.217 2.226-.066a2.771 2.771 0 0 0 1.681-.18c.986-.434 2.314-.608 3.835-.797a29.43 29.43 0 0 1 1.182-.136 30.298 30.298 0 0 1 2.82-.144c2.107 0 3.902.267 5.488.815l.127.044.124.048c3.5 1.323 5.23 3.093 6.579 4.81.074.095.151.193.18.227l.032.029.255.227.035.035a11.82 11.82 0 0 1 2.914 3.247l.224.37.191.387c1.662 3.392 1.141 6.478.919 7.796l-.012.07a13.82 13.82 0 0 1-.77 2.799 13.17 13.17 0 0 1-.597 2.584 13.93 13.93 0 0 1-1.983 3.879 13.545 13.545 0 0 1-2.008 2.265 1.893 1.893 0 0 0-.617 1.211 12.37 12.37 0 0 1-.148 1.005c-.499 2.682-1.666 4.536-2.2 5.366l-1.328 1.93c-1.765 2.268-3.856 3.751-6.39 4.532l-.572.18-.62.107c-.74.13-1.49.195-2.242.194-.11 0-.22 0-.34-.003h-.106s-.025 0-.073.004l-.131.008-.133.004-.263.01a3.824 3.824 0 0 0-1.027.179c-1.687.538-3.636.792-6.045.792Z" stroke="url(#e)" stroke-width="1.055"/><path opacity=".8" d="M17.282 41.53c-1.431 0-2.823-.093-3.995-.184l-.228-.018-.228-.032a24.442 24.442 0 0 0-.663-.078c-1.111-.121-2.789-.304-4.67-1.186l-.255-.12-.239-.133c-3.613-2.026-4.94-5.014-5.819-6.992l-.238-.537c-.382-.776-.637-1.516-.854-2.2l-.038-.12-.033-.118c-.534-1.897-.675-3.491-.445-5.017.233-1.548.84-2.99 1.91-4.54l.128-.184.138-.177c.087-.11.17-.22.252-.327l.538-.985c.176-.322.295-.672.351-1.034.342-2.21 1.406-3.807 1.898-4.543L4.794 13l.083-.125.105-.168c.04-.09.095-.208.143-.334.048-.149.104-.333.166-.524.117-.941.34-1.867.665-2.758l.037-.104.041-.105c.034-.087.06-.163.11-.312.234-.706.67-2.018 1.83-3.448l.401-.485.405-.366a10.397 10.397 0 0 1 4.02-2.268c.866-.258 1.76-.414 2.661-.465l.076-.006.116-.005a9.211 9.211 0 0 1 2.729.282c.65.165 1.337.092 1.938-.204.962-.467 2.25-.963 3.757-1.148a37.554 37.554 0 0 1 1.11-.13 28.253 28.253 0 0 1 2.64-.133c1.89 0 3.481.232 4.865.71l.101.035.1.037c3.215 1.216 4.654 2.808 5.751 4.204.242.307.278.355.444.503l.205.182.08.081c.529.41 1.61 1.254 2.557 2.814l.18.296.152.31c1.392 2.84.959 5.405.75 6.638l-.01.069c-.15.904-.401 1.788-.752 2.634l-.009.078a11.42 11.42 0 0 1-.534 2.38 12.08 12.08 0 0 1-1.724 3.375c-.627.898-1.38 1.7-2.235 2.383a1.824 1.824 0 0 0-.688 1.34c-.023.51-.082 1.017-.176 1.519-.432 2.325-1.447 3.937-1.965 4.741l-1.03 1.521c-1.55 2.072-3.39 3.413-5.613 4.094l-.457.143-.495.086a10.89 10.89 0 0 1-1.916.166c-.1 0-.201 0-.31-.003h-.136c-.018 0-.075 0-.19.007l-.106.007-.101.004-.53.02c-.372.012-.74.079-1.092.196-1.545.52-3.368.765-5.66.765Z" stroke="url(#f)" stroke-width=".989"/><path opacity=".8" d="M17.281 39.621c-1.367 0-2.712-.09-3.846-.178l-.171-.013-.171-.024c-.235-.032-.481-.06-.72-.085-1.044-.114-2.472-.27-4.066-1.017l-.19-.09-.178-.1c-3.06-1.717-4.186-4.25-5.009-6.101-.085-.19-.174-.392-.261-.584-.35-.703-.573-1.378-.758-1.955l-.028-.09-.025-.089c-.895-3.18-.559-5.41 1.2-7.956l.095-.138.103-.133c.117-.15.226-.293.334-.43.162-.212.326-.429.505-.651.111-.139.2-.294.266-.46l.202-.514c.085-.22.139-.45.159-.684.175-2.04 1.167-3.527 1.658-4.264l.003-.004.109-.164.115-.184.035-.048c.061-.123.18-.384.286-.657.057-.187.146-.474.234-.735 0-.01 0-.021.004-.033.094-.855.291-1.695.587-2.503l.028-.078.03-.079c.054-.135.092-.25.144-.406.21-.63.56-1.686 1.501-2.846l.301-.364.302-.273c2.222-2.016 4.708-2.19 5.539-2.246l.057-.004.088-.004a7.44 7.44 0 0 1 3.208.58 1.179 1.179 0 0 0 1.006-.049h.005c.845-.49 2.392-1.378 4.365-1.615.095-.015.183-.025.247-.034a26.578 26.578 0 0 1 3.249-.21c1.676 0 3.063.198 4.241.605l.076.026.075.029c2.755 1.04 3.943 2.347 4.924 3.596.264.334.382.489.677.75l.153.136.123.127.096.075c.467.362 1.335 1.035 2.106 2.303l.135.221.114.233c1.121 2.29.77 4.365.582 5.482l-.01.066a10.144 10.144 0 0 1-.689 2.359l-.027.065-.012.064a3.456 3.456 0 0 0-.034.216l-.011.088a9.504 9.504 0 0 1-.449 2.01 10.245 10.245 0 0 1-1.465 2.87c-.63.894-1.335 1.622-2.127 2.198a2.78 2.78 0 0 0-1.14 2.205 9.429 9.429 0 0 1-.157 1.6c-.366 1.97-1.206 3.304-1.73 4.116l-.747 1.122c-1.34 1.87-2.92 3.066-4.822 3.648l-.1.032c-.162.05-.326.09-.493.119l-.12.02a8.98 8.98 0 0 1-1.59.139c-.09 0-.182 0-.281-.003h-.165c-.037 0-.135 0-.313.011l-.079.005-.076.003c-.256.01-.573.02-.856.033a3.8 3.8 0 0 0-1.135.223c-1.37.489-3.044.72-5.216.72Z" stroke="url(#g)" stroke-width=".923"/><path opacity=".8" d="M17.281 37.714c-1.302 0-2.6-.088-3.698-.173l-.114-.009-.115-.016a25.786 25.786 0 0 0-.777-.092c-.96-.104-2.154-.234-3.46-.847l-.127-.06-.119-.066c-2.507-1.406-3.443-3.516-4.197-5.212-.093-.209-.19-.424-.286-.634-.296-.59-.495-1.193-.66-1.71l-.019-.06-.016-.058c-.739-2.623-.495-4.288.933-6.355l.063-.092.07-.088c.124-.16.238-.308.346-.452.373-.488.731-.959 1.267-1.53a.743.743 0 0 0 .199-.46l.04-.617-.015-.203.007-.21c.056-1.692.906-2.966 1.361-3.65.053-.079.107-.16.14-.212l.077-.122.07-.096c.086-.139.309-.612.478-1.066a28.1 28.1 0 0 1 .27-.843c.029-.092.032-.115.056-.312a8.828 8.828 0 0 1 .49-2.091l.018-.053.02-.053c.071-.18.12-.327.177-.498.18-.541.45-1.356 1.173-2.247l.201-.243.2-.18c1.556-1.414 3.252-1.681 4.396-1.758l.038-.003h.06a5.11 5.11 0 0 1 .246-.006c.978 0 2.147.469 2.76.752a1.232 1.232 0 0 0 .941.034 9.102 9.102 0 0 0 1.114-.49c.781-.454 2.077-1.202 3.686-1.39.088-.013.168-.023.234-.031a24.637 24.637 0 0 1 3.01-.196c1.459 0 2.642.164 3.616.501l.051.018.048.018c2.301.87 3.217 1.87 4.098 2.99.286.362.488.62.909.996l.102.092.095.095c.086.085.178.163.276.233.395.306 1.057.818 1.644 1.785l.09.148.076.155c.851 1.737.578 3.356.414 4.324l-.01.066c-.11.668-.3 1.32-.568 1.942v.005c-.074.16-.125.33-.152.506a4.65 4.65 0 0 0-.05.329l-.012.088a7.711 7.711 0 0 1-.364 1.64 8.285 8.285 0 0 1-1.206 2.366c-.778 1.11-1.677 1.89-2.76 2.385a1.566 1.566 0 0 0-.915 1.358 3.052 3.052 0 0 0-.004.27c.053.835.114 1.78-.072 2.754-.298 1.611-.98 2.694-1.493 3.489 0 0-2.353 3.274-4.493 3.927l-.23.072-.248.044c-.417.074-.839.11-1.262.109-.08 0-.163 0-.25-.002h-.196c-.084 0-.221 0-.434.014l-.052.004h-.051c-.82.03-1.593.057-1.809.099-.115.018-.227.05-.333.098-1.212.531-2.8.78-4.993.78Z" stroke="url(#h)" stroke-width=".858"/><path opacity=".8" d="M17.282 35.806c-1.238 0-2.49-.084-3.552-.167l-.056-.004-.057-.008c-.29-.04-.566-.07-.833-.1-.904-.098-1.838-.2-2.857-.677l-.064-.03-.059-.033C7.85 33.69 7.122 32.05 6.418 30.465c-.1-.225-.204-.458-.31-.69-.24-.47-.408-.976-.56-1.455l-.01-.03-.008-.03c-.587-2.088-.438-3.154.668-4.753l.032-.048.034-.044c.13-.166.248-.32.361-.47.532-.697.99-1.299 2.02-2.249l.003-.003a.539.539 0 0 0 .136-.572l-.185-.53a3.838 3.838 0 0 1-.079-.505v-.006l-.011-.143.004-.105c.037-1.15.642-2.055 1.041-2.655.063-.095.122-.182.169-.257l.038-.06.043-.058c.212-.287.557-1.079.738-1.57.048-.15.17-.557.272-.851.072-.222.119-.45.14-.682.06-.574.191-1.14.391-1.68l.01-.027.01-.027c.089-.226.15-.412.21-.592.16-.48.341-1.025.845-1.646l.1-.122.1-.09c1.105-1.004 2.317-1.206 3.252-1.268h.05c.053 0 .105-.004.157-.004.91 0 1.609.374 2.072.62l.108.058.016.008c.127.07.238.13.342.18.287.145.617.178.928.096.634-.17 1.622-.545 2.287-.91l.014-.009c.699-.405 1.752-1.016 2.987-1.151.077-.013.152-.022.222-.031.143-.018.381-.048.673-.074a23.025 23.025 0 0 1 2.095-.106c1.244 0 2.223.13 2.994.396l.025.009.026.01c1.846.697 2.52 1.427 3.27 2.384.305.389.594.756 1.141 1.243l.051.048.048.048c.148.149.307.286.477.41.328.255.778.603 1.182 1.268l.045.074.038.077c.58 1.186.387 2.331.246 3.167l-.011.066a6.31 6.31 0 0 1-.45 1.532 3.644 3.644 0 0 0-.264.882 7.187 7.187 0 0 0-.07.442l-.01.091a5.88 5.88 0 0 1-.28 1.27 6.384 6.384 0 0 1-.947 1.86c-.701 1.006-1.479 1.627-2.512 1.956-.494.156-.92.479-1.205.913l-.082.126-.09.103c-.263.299-.189 1.456-.143 2.146.047.758.098 1.542-.043 2.28-.233 1.261-.774 2.113-1.257 2.862 0 0-1.797 2.591-3.417 3.083l-.118.038-.124.021a5.156 5.156 0 0 1-.936.081h-.446c-.11 0-.286 0-.554.019h-.051c-1.087.04-1.743.063-2.106.133a3.212 3.212 0 0 0-.71.213c-.97.43-2.326.631-4.258.631Z" stroke="url(#i)" stroke-width=".858"/></g></g><defs><linearGradient id="d" x1="-4.346" y1="-3.912" x2="44.563" y2="47.422" gradientUnits="userSpaceOnUse"><stop offset=".206" stop-color="#89D0FF"/><stop offset=".398" stop-color="#EBBF9A"/><stop offset=".602" stop-color="#EB8280"/><stop offset=".841" stop-color="#A281FF"/></linearGradient><linearGradient id="e" x1="-2.441" y1="-1.715" x2="42.648" y2="45.803" gradientUnits="userSpaceOnUse"><stop offset=".206" stop-color="#89D0FF"/><stop offset=".398" stop-color="#EBBF9A"/><stop offset=".602" stop-color="#EB80DA"/><stop offset=".841" stop-color="#A281FF"/></linearGradient><linearGradient id="f" x1="-.53" y1=".194" x2="40.739" y2="43.894" gradientUnits="userSpaceOnUse"><stop offset=".206" stop-color="#89D0FF"/><stop offset=".398" stop-color="#EBBF9A"/><stop offset=".602" stop-color="#EB8280"/><stop offset=".841" stop-color="#A281FF"/></linearGradient><linearGradient id="g" x1="1.379" y1="2.109" x2="38.817" y2="41.98" gradientUnits="userSpaceOnUse"><stop offset=".206" stop-color="#89D0FF"/><stop offset=".398" stop-color="#EBBF9A"/><stop offset=".602" stop-color="#EB80E7"/><stop offset=".841" stop-color="#A281FF"/></linearGradient><linearGradient id="h" x1="3.286" y1="4.016" x2="36.903" y2="40.056" gradientUnits="userSpaceOnUse"><stop offset=".206" stop-color="#89D0FF"/><stop offset=".398" stop-color="#EBBF9A"/><stop offset=".602" stop-color="#EB80D3"/><stop offset=".841" stop-color="#A281FF"/></linearGradient><linearGradient id="i" x1="5.192" y1="5.924" x2="34.982" y2="38.146" gradientUnits="userSpaceOnUse"><stop offset=".206" stop-color="#89D0FF"/><stop offset=".398" stop-color="#EBBF9A"/><stop offset=".602" stop-color="#A280EB"/><stop offset=".841" stop-color="#A281FF"/></linearGradient><radialGradient id="b" cx="0" cy="0" r="1" gradientUnits="userSpaceOnUse" gradientTransform="rotate(90 -1.19 22.25) scale(23.9766)"><stop offset=".167" stop-color="#073183"/><stop offset="1" stop-color="#0054F9"/></radialGradient><filter id="c" x="-4.874" y="-4.439" width="52.713" height="50.418" filterUnits="userSpaceOnUse" color-interpolation-filters="sRGB"><feFlood flood-opacity="0" result="BackgroundImageFix"/><feBlend in="SourceGraphic" in2="BackgroundImageFix" result="shape"/><feColorMatrix in="SourceAlpha" values="0 0 0 0 0 0 0 0 0 0 0 0 0 0 0 0 0 0 127 0" result="hardAlpha"/><feOffset dx=".264" dy=".396"/><feGaussianBlur stdDeviation=".33"/><feComposite in2="hardAlpha" operator="arithmetic" k2="-1" k3="1"/><feColorMatrix values="0 0 0 0 0 0 0 0 0 0 0 0 0 0 0 0 0 0 0.12 0"/><feBlend in2="shape" result="effect1_innerShadow_1097_43769"/></filter></defs></svg>