<svg xmlns="http://www.w3.org/2000/svg" version="1.1" id="Layer_1" x="0" y="0" viewBox="0 0 2500 2500" style="enable-background:new 0 0 2500 2500" xml:space="preserve"><style>.st1{fill:#213147}</style><g id="Layer_x0020_1"><g id="_2405588477232"><path style="fill:none" d="M0 0h2500v2500H0z"/><path class="st1" d="M226 760v980c0 63 33 120 88 152l849 490c54 31 121 31 175 0l849-490c54-31 88-89 88-152V760c0-63-33-120-88-152l-849-490c-54-31-121-31-175 0L314 608c-54 31-87 89-87 152h-1z"/><path d="m1435 1440-121 332c-3 9-3 19 0 29l208 571 241-139-289-793c-7-18-32-18-39 0zm243-558c-7-18-32-18-39 0l-121 332c-3 9-3 19 0 29l341 935 241-139-422-1156v-1z" style="fill:#12aaff"/><path d="M1250 155c6 0 12 2 17 5l918 530c11 6 17 18 17 30v1060c0 12-7 24-17 30l-918 530c-5 3-11 5-17 5s-12-2-17-5l-918-530c-11-6-17-18-17-30V719c0-12 7-24 17-30l918-530c5-3 11-5 17-5v1zm0-155c-33 0-65 8-95 25L237 555c-59 34-95 96-95 164v1060c0 68 36 130 95 164l918 530c29 17 62 25 95 25s65-8 95-25l918-530c59-34 95-96 95-164V719c0-68-36-130-95-164L1344 25c-29-17-62-25-95-25h1z" style="fill:#9dcced"/><path class="st1" d="m642 2179 85-232 170 141-159 146z"/><path d="M1172 644H939c-17 0-33 11-39 27L401 2039l241 139 550-1507c5-14-5-28-19-28l-1 1zm408 0h-233c-17 0-33 11-39 27L738 2233l241 139 620-1701c5-14-5-28-19-28v1z" style="fill:#fff"/></g></g></svg>