<svg width="42" height="42" fill="none" xmlns="http://www.w3.org/2000/svg"><g clip-path="url(#a)"><path d="M21 42c11.598 0 21-9.402 21-21S32.598 0 21 0 0 9.402 0 21s9.402 21 21 21Z" fill="#2E3148"/><path d="M21 33.185c6.73 0 12.185-5.455 12.185-12.185S27.73 8.815 21 8.815 8.815 14.27 8.815 21 14.27 33.185 21 33.185Z" fill="#1B1E36"/><path d="M21.043 2.68c-2.267 0-4.105 8.221-4.105 18.363 0 10.143 1.838 18.365 4.105 18.365 2.267 0 4.105-8.222 4.105-18.365 0-10.142-1.838-18.364-4.105-18.364Zm.284 35.691c-.26.346-.519.087-.519.087C19.764 37.248 19.242 35 19.242 35c-1.826-5.877-1.391-18.494-1.391-18.494C18.709 6.49 20.27 4.124 20.8 3.599a.324.324 0 0 1 .416-.034c.77.546 1.417 2.83 1.417 2.83 1.91 7.087 1.736 13.741 1.736 13.741.173 5.79-.956 12.271-.956 12.271-.87 4.926-2.087 5.964-2.087 5.964Z" fill="#6F7390"/><path d="M36.972 11.904c-1.129-1.967-9.174.53-17.976 5.578-8.802 5.047-15.01 10.733-13.882 12.7 1.127 1.966 9.174-.531 17.976-5.578 8.801-5.047 15.01-10.734 13.882-12.7ZM6.155 29.912c-.432-.055-.335-.41-.335-.41.53-1.507 2.217-3.078 2.217-3.078 4.19-4.509 15.352-10.41 15.352-10.41 9.115-4.241 11.946-4.062 12.664-3.864a.324.324 0 0 1 .235.345c-.086.941-1.75 2.638-1.75 2.638-5.193 5.184-11.052 8.346-11.052 8.346-4.936 3.033-11.12 5.277-11.12 5.277-4.706 1.696-6.211 1.156-6.211 1.156Z" fill="#6F7390"/><path d="M36.932 30.247c1.138-1.962-5.055-7.674-13.826-12.76-8.77-5.084-16.816-7.613-17.952-5.647-1.136 1.965 5.056 7.674 13.831 12.759 8.776 5.085 16.81 7.613 17.947 5.648ZM5.908 12.597c-.168-.398.186-.494.186-.494 1.57-.296 3.776.38 3.776.38 6 1.366 16.7 8.068 16.7 8.068 8.237 5.764 9.5 8.303 9.69 9.024a.324.324 0 0 1-.18.376c-.86.394-3.16-.192-3.16-.192-7.09-1.902-12.762-5.385-12.762-5.385-5.095-2.748-10.133-6.977-10.133-6.977-3.828-3.223-4.116-4.795-4.116-4.795l-.001-.005Z" fill="#6F7390"/><path d="M21 23.16a2.16 2.16 0 1 0 0-4.32 2.16 2.16 0 0 0 0 4.32ZM29.858 14c.692 0 1.253-.58 1.253-1.296 0-.716-.561-1.297-1.253-1.297-.692 0-1.253.58-1.253 1.297 0 .716.56 1.296 1.253 1.296ZM9.29 18.407c.692 0 1.253-.58 1.253-1.296 0-.716-.56-1.296-1.253-1.296-.692 0-1.253.58-1.253 1.296 0 .716.561 1.296 1.253 1.296Zm9.16 15.902c.693 0 1.254-.58 1.254-1.297 0-.716-.561-1.296-1.253-1.296-.692 0-1.253.58-1.253 1.296 0 .716.56 1.297 1.253 1.297Z" fill="#B7B9C8"/></g><defs><clipPath id="a"><path fill="#fff" d="M0 0h42v42H0z"/></clipPath></defs></svg>