<svg width="42" height="42" viewBox="0 0 42 42" fill="none" xmlns="http://www.w3.org/2000/svg">
<g clip-path="url(#clip0_5604_37113)">
<path d="M21 42C32.598 42 42 32.598 42 21C42 9.40202 32.598 0 21 0C9.40202 0 0 9.40202 0 21C0 32.598 9.40202 42 21 42Z" fill="#2E3148"/>
<path d="M21 33.1852C27.7297 33.1852 33.1852 27.7297 33.1852 21C33.1852 14.2703 27.7297 8.81479 21 8.81479C14.2703 8.81479 8.81479 14.2703 8.81479 21C8.81479 27.7297 14.2703 33.1852 21 33.1852Z" fill="#1B1E36"/>
<path d="M21.0432 2.67909C18.7764 2.67909 16.9383 10.901 16.9383 21.0433C16.9383 31.1857 18.7764 39.4076 21.0432 39.4076C23.31 39.4076 25.1481 31.1857 25.1481 21.0433C25.1481 10.901 23.31 2.67909 21.0432 2.67909ZM21.3266 38.3712C21.0674 38.7169 20.8081 38.4576 20.8081 38.4576C19.7642 37.248 19.2422 35.0008 19.2422 35.0008C17.4162 29.1243 17.8508 16.507 17.8508 16.507C18.709 6.49017 20.27 4.12389 20.8013 3.59856C20.8555 3.54494 20.9269 3.51218 21.003 3.50603C21.079 3.49988 21.1547 3.52075 21.2169 3.56496C21.9877 4.11112 22.6341 6.39525 22.6341 6.39525C24.5431 13.4817 24.3702 20.136 24.3702 20.136C24.5431 25.9261 23.4137 32.4075 23.4137 32.4075C22.5443 37.3333 21.3266 38.3712 21.3266 38.3712Z" fill="#6F7390"/>
<path d="M36.9721 11.9043C35.8435 9.93736 27.7978 12.4349 18.9961 17.4819C10.1944 22.529 3.9858 28.2153 5.11359 30.1814C6.24137 32.1475 14.2879 29.6508 23.0896 24.6038C31.8913 19.5567 38.0999 13.8704 36.9721 11.9043ZM6.15485 29.9116C5.72276 29.8571 5.82036 29.502 5.82036 29.502C6.3504 27.9948 8.03712 26.4237 8.03712 26.4237C12.2275 21.9153 23.3888 16.0136 23.3888 16.0136C32.5035 11.7729 35.3346 11.9519 36.0528 12.1496C36.1265 12.1702 36.1906 12.2162 36.2336 12.2794C36.2767 12.3427 36.2959 12.4192 36.288 12.4953C36.2017 13.4361 34.5379 15.1329 34.5379 15.1329C29.3447 20.3172 23.4864 23.4793 23.4864 23.4793C18.5501 26.5117 12.366 28.7561 12.366 28.7561C7.66047 30.4517 6.15502 29.9116 6.15502 29.9116H6.15485Z" fill="#6F7390"/>
<path d="M36.9323 30.2469C38.0696 28.2852 31.8767 22.5728 23.1059 17.4878C14.3351 12.4028 6.29043 9.87436 5.15408 11.8395C4.01772 13.8046 10.2097 19.5135 18.9855 24.5986C27.7613 29.6836 35.7959 32.2122 36.9323 30.2469ZM5.90772 12.5975C5.73972 12.1991 6.09437 12.1032 6.09437 12.1032C7.6645 11.8067 9.87 12.4824 9.87 12.4824C15.8701 13.8487 26.5692 20.5506 26.5692 20.5506C34.8067 26.3148 36.0701 28.8538 36.2594 29.5746C36.2787 29.6485 36.2712 29.7268 36.2383 29.7958C36.2054 29.8647 36.1493 29.9198 36.0797 29.9514C35.2207 30.3447 32.9201 29.7587 32.9201 29.7587C25.8293 27.8574 20.1585 24.3739 20.1585 24.3739C15.0632 21.6258 10.0249 17.3972 10.0249 17.3972C6.19652 14.1738 5.9089 12.6018 5.9089 12.6018L5.90772 12.5975Z" fill="#6F7390"/>
<path d="M21 23.1605C22.1932 23.1605 23.1605 22.1932 23.1605 21C23.1605 19.8068 22.1932 18.8395 21 18.8395C19.8068 18.8395 18.8395 19.8068 18.8395 21C18.8395 22.1932 19.8068 23.1605 21 23.1605Z" fill="#B7B9C8"/>
<path d="M29.858 13.9999C30.55 13.9999 31.1111 13.4196 31.1111 12.7037C31.1111 11.9877 30.55 11.4074 29.858 11.4074C29.1659 11.4074 28.6049 11.9877 28.6049 12.7037C28.6049 13.4196 29.1659 13.9999 29.858 13.9999Z" fill="#B7B9C8"/>
<path d="M9.29007 18.4074C9.98214 18.4074 10.5432 17.8271 10.5432 17.1111C10.5432 16.3952 9.98214 15.8148 9.29007 15.8148C8.59799 15.8148 8.03696 16.3952 8.03696 17.1111C8.03696 17.8271 8.59799 18.4074 9.29007 18.4074Z" fill="#B7B9C8"/>
<path d="M18.4506 34.3086C19.1427 34.3086 19.7037 33.7283 19.7037 33.0123C19.7037 32.2964 19.1427 31.716 18.4506 31.716C17.7585 31.716 17.1975 32.2964 17.1975 33.0123C17.1975 33.7283 17.7585 34.3086 18.4506 34.3086Z" fill="#B7B9C8"/>
</g>
<defs>
<clipPath id="clip0_5604_37113">
<rect width="42" height="42" fill="white"/>
</clipPath>
</defs>
</svg>
