<svg width="26" height="26" fill="none" xmlns="http://www.w3.org/2000/svg"><path d="M10.152 16.945H4.236l-1.09 3.246H.414L5.611 5.624h3.267l5.197 14.566H11.24zm-.8-2.342-2.159-6.39-2.156 6.39H9.35zm10.214 5.526a6.418 6.418 0 0 1-1.93-.452 5.37 5.37 0 0 1-1.563-1.006 4.827 4.827 0 0 1-1.047-1.418 4.144 4.144 0 0 1-.41-1.746h2.526c.027.67.26 1.232.698 1.684.452.439 1.027.692 1.726.76v-4.067l-.966-.144c-1.109-.15-1.992-.568-2.65-1.253-.643-.685-.965-1.555-.965-2.61 0-.547.123-1.06.37-1.54a4.185 4.185 0 0 1 1.006-1.294 5.18 5.18 0 0 1 1.46-.925 5.937 5.937 0 0 1 1.745-.431v-1.91h1.5v1.95a5.724 5.724 0 0 1 1.705.494c.52.233.972.534 1.356.904.383.37.684.794.904 1.274.232.48.362.993.39 1.54h-2.527a1.937 1.937 0 0 0-.555-1.273 2.514 2.514 0 0 0-1.273-.76v3.76l.698.102c.52.082 1.014.226 1.48.43.465.207.87.474 1.211.803.356.328.63.725.822 1.19.205.453.308.967.308 1.54 0 .618-.116 1.18-.35 1.686a3.994 3.994 0 0 1-.944 1.314 5.09 5.09 0 0 1-1.438.925 6.23 6.23 0 0 1-1.787.453v2.115h-1.5zm1.5-2.198c.643-.11 1.143-.342 1.5-.7.355-.37.533-.835.533-1.396 0-.52-.17-.904-.513-1.15a2.742 2.742 0 0 0-1.17-.514l-.35-.061v3.82zm-1.5-10.087a2.9 2.9 0 0 0-1.48.637c-.396.329-.595.774-.595 1.335 0 .48.13.843.39 1.09.274.232.63.383 1.07.45l.615.104z" fill="#fff"/></svg>