<svg width="42" height="42" fill="none" xmlns="http://www.w3.org/2000/svg"><g clip-path="url(#a)" fill-rule="evenodd" clip-rule="evenodd"><path d="M21 0c11.596 0 21 9.404 21 21s-9.404 21-21 21S0 32.596 0 21 9.404 0 21 0Z" fill="#0055D5"/><path d="M11.424 13.894s-2.26-1.806-2.415 2.654c-.155 3.457-.151 10.168 1.449 13.34.676 1.192 1.58.827 3.26-.362 1.46-1.08 6.749-5.951 8.987-8.09 2.239-2.137 6.779-8.269 7.724-4.103.374 1.752.836 3.239.483 7.124-.11 1.197-.622 2.104-2.957.483-1.764-1.134-3.44-2.352-3.44-2.352s-.323-.58-1.087.36c-.601.753-.903.937.058 1.509.966.57 5.851 3.94 7.724 4.464 1.546.45 2.428.441 2.474-2.595-.008-2.411-.147-9.312-1.025-12.252-.663-1.831-1.638-2.663-3.742-.605s-8.74 8.493-12.369 11.408c-2.407 1.806-3.436 3.435-4.343.424-.638-2.28-1.466-9.379 1.147-8.026 1.634.78 2.448.777 1.81 1.268-.638.487-2.474 2.171-2.474 2.171s-.567.458-.302 1.45c.264.692.264 1.037 1.688-.303 1.424-1.34 2.474-2.352 2.474-2.352s.227-.357.903.302c.676.66.785.845.785.845s.181.491.903-.362c.727-.852 1.193-1.373-.18-2.171-1.37-.806-7.535-4.23-7.535-4.23Z" fill="#fff"/></g><defs><clipPath id="a"><path fill="#fff" d="M0 0h42v42H0z"/></clipPath></defs></svg>