<svg id="CIRCLE_OUTLINE_BLACK" data-name="CIRCLE OUTLINE BLACK" xmlns="http://www.w3.org/2000/svg" viewBox="0 0 512 512"><circle cx="256" cy="256" r="256" fill="#0b0609"/><path d="M244.1758,226.05488c-2.97678,2.71245-5.85755,5.54326-8.98676,8.06791a6.75929,6.75929,0,0,1-3.98646,1.07881q-62.15262.07941-124.30531.0952c-2.986.00573-4.05763-1.00318-3.738-3.86647.14418-1.29164-.29582-2.7292.12486-3.885a7.41227,7.41227,0,0,1,2.43883-2.64052c.31195-.25888,1.01531-.05256,1.53977-.05259q66.87315-.00264,133.74628-.00409,1.16024,0,2.3205,0Z" fill="#f46825"/><path d="M245.00963,189.98948q-2.06945,0-4.13891,0-66.09525-.01065-132.1905-.0237c-4.91476-.00125-7.5564-4.3318-5.26805-8.73707a2.77574,2.77574,0,0,1,1.82668-1.13137,21.28327,21.28327,0,0,1,3.53142-.09679c40.12927-.01167,80.259.0702,120.3872-.14209,5.13514-.02716,9.11038,1.02581,12.30081,5.11684,1.09014,1.39788,2.83694,2.28664,4.2837,3.408Z" fill="#f46825"/><path d="M246.10923,165.52264c-3.35542,3.17244-5.99175,5.888-8.89337,8.28411a6.66031,6.66031,0,0,1-3.97686,1.13185c-42.07979.04717-84.1597-.00423-126.23937.07827-3.28983.00645-4.25694-1.3052-3.80758-4.19955.36189-2.331-1.58177-5.82821,3.33256-5.82239q68.6253.08112,137.25076.035A19.10921,19.10921,0,0,1,246.10923,165.52264Z" fill="#f46825"/><path d="M244.22623,129.94029c-1.99792.09254-3.25853.20183-4.51915.202q-65.514.0074-131.02806-.04345c-1.7333-.00213-4.76634-.229-4.96146-.951-.65509-2.42388-.40621-5.12721-.2261-7.70433.0314-.44924,1.36809-1.011,2.16815-1.155a20.14839,20.14839,0,0,1,3.53166-.08754c39.47889-.0068,78.9613.26311,118.4338-.24028C235.82887,119.856,239.27535,124.716,244.22623,129.94029Z" fill="#f46825"/><path d="M276.5875,224.847q1.93129,0,3.86258,0,58.22291.00458,116.44571.05274c1.57226.00238,4.40584.44033,4.50039,1.02266a34.01378,34.01378,0,0,1-.00531,8.49011c-.03283.35678-1.79967.79145-2.76358.79253q-55.27234.06185-110.54465-.01827a5.725,5.725,0,0,1-3.49194-1.31048c-2.92248-2.59227-5.64447-5.40931-8.4433-8.14022Z" fill="#f46825"/><path d="M229.32316,239.78186c-5.12319,5.846-9.11045,10.3637-17.54877,10.21671-34.34572-.59823-68.708-.24623-103.06422-.25214-4.92161-.00087-7.58862-4.37031-5.29419-8.7646a2.8356,2.8356,0,0,1,1.834-1.12337,16.96976,16.96976,0,0,1,3.13752-.07165q58.02527-.00376,116.05053-.00494C225.74258,239.78182,227.04719,239.78186,229.32316,239.78186Z" fill="#f46825"/><path d="M229.35785,115.179c-2.13207,0-3.3036.00008-4.47513,0q-58.44824-.004-116.89638-.0583c-1.5403-.00263-4.27157-.50863-4.40577-1.18369a20.89988,20.89988,0,0,1,.09387-7.70728c.10516-.57364,2.48435-1.02913,3.81973-1.03665,14.43124-.08125,28.86306-.06846,43.29472-.06868,20.20432-.0003,40.427.51217,60.60425-.22216C219.89211,104.593,224.20934,109.02726,229.35785,115.179Z" fill="#f46825"/><path d="M291.54372,239.78218q1.72378,0,3.44756,0c34.08292.00168,68.166.052,102.24847-.06766,3.53145-.0124,4.91788.827,4.75146,4.55182-.14907,3.33621-.10808,5.60331-4.67961,5.577-31.06687-.17885-62.13549-.04739-93.20257-.20557-2.08123-.01059-4.39255-1.23779-6.17451-2.49453a76.18141,76.18141,0,0,1-6.99925-6.23777Z" fill="#f46825"/><path d="M320.86791,220.31106c-16.37227,0-31.51153.04235-46.64885-.10757a3.65339,3.65339,0,0,1-2.53713-2.4235c-1.07592-7.473-.64358-7.87778,6.96724-7.87821,8.894-.00051,17.79255.16609,26.67972-.079,3.591-.099,6.23369.87195,8.52915,3.60531C315.68793,215.607,317.9197,217.45044,320.86791,220.31106Z" fill="#f46825"/><path d="M208.0842,220.32115c1.9154-3.371,3.55883-6.49518,5.47082-9.44633.41671-.6432,1.79194-.93074,2.72865-.93687,9.67431-.06325,19.34961.01341,29.02367-.06624,2.42891-.02,3.31844,1.01867,3.1753,3.2824-.041.649.00247,1.30318.00185,1.955-.00509,5.2012-.00548,5.20856-5.12772,5.21059Q225.71868,220.32671,208.0842,220.32115Z" fill="#f46825"/><path d="M121.08059,220.31362c-4.97822,0-9.95759-.06265-14.93412.0287-2.206.04047-3.01587-.81926-2.99257-3.00554.0952-8.933-.67935-7.3258,7.19292-7.41223,8.25242-.09061,16.50857.07369,24.75876-.09027,2.95159-.05866,4.096.97,3.77763,3.84949a18.75978,18.75978,0,0,0-.01187,3.52336c.19083,2.40712-.91023,3.21171-3.24994,3.15656-4.8445-.11419-9.6936-.03446-14.54081-.03446Z" fill="#f46825"/><path d="M210.00263,194.93512c4.50133,0,9.27807-.00133,14.05481.00033,6.92712.00241,13.8559.09462,20.78058-.0333,2.70459-.05,3.66627.90908,3.70964,3.61243.10044,6.26475.217,6.39152-5.997,6.53942-8.62056.20518-17.24708.15039-25.86934.30311-2.41993.04285-3.3218-.77842-3.7097-3.29886C212.60678,199.68759,211.11862,197.48882,210.00263,194.93512Z" fill="#f46825"/><path d="M120.81367,205.01c-4.70155,0-9.4051-.08226-14.10388.0314-2.74441.06638-3.81834-1.08163-3.551-3.74865.1164-1.16139-.33131-2.50538.115-3.47431.51444-1.11678,1.71734-2.70424,2.64908-2.72315q15.08949-.306,30.18612-.02453c.93283.01752,1.98285,1.66537,2.686,2.74549.35917.55171.07231,1.52348.07241,2.30539.00069,5.19387.00026,5.19824-5.1133,5.206q-6.46951.00979-12.93906.00134Z" fill="#f46825"/><path d="M121.09019,145.01456c-4.83611,0-9.67461-.09-14.50736.0371-2.50149.06579-3.69045-.75919-3.423-3.36459a21.14134,21.14134,0,0,0,.00853-3.51594c-.136-2.08715.6737-3.17919,2.88284-3.1978q14.89629-.12548,29.79177-.33525c2.13532-.0314,3.17035.79427,3.02878,3.00007a23.71454,23.71454,0,0,0,.01386,3.90661c.28679,2.81278-1.04013,3.61912-3.68041,3.53813-4.701-.14421-9.40958-.04053-14.115-.04053Z" fill="#f46825"/><path d="M208.03894,134.94725c3.66,0,6.62421-.00114,9.58843.00021,8.78064.004,17.5665.1888,26.33967-.06426,4.214-.12155,4.61157,1.96428,4.59852,5.30582-.01254,3.21634-.39884,5.07248-4.4414,4.93673-8.90151-.29892-17.82072-.13894-26.73163-.0539-2.48424.02371-3.95437-.27749-4.60672-3.3022C212.31568,139.58987,210.10292,137.78378,208.03894,134.94725Z" fill="#f46825"/><path d="M210.07412,160.16286c1.17412-2.96977,1.99649-5.46492,3.16065-7.78992.46487-.9284,1.67522-2.09813,2.5612-2.11072q15.08911-.21459,30.18161.0243a3.47228,3.47228,0,0,1,2.38071,2.26494c1.26408,6.41273.223,7.602-6.20816,7.60746q-14.30866.0121-28.61733.00393C212.26582,160.163,210.99884,160.16286,210.07412,160.16286Z" fill="#f46825"/><path d="M289.8757,194.95809c4.31381.00183,8.64547.24389,12.93607-.0709,3.77762-.27715,4.9692,1.23005,4.47506,4.70547a10.98361,10.98361,0,0,0-.01047,2.34326c.16257,2.17821-.88153,3.07986-3.00464,3.075q-14.90184-.03437-29.8038-.00536c-2.20045.00362-3.01755-1.12123-2.91978-3.19336a37.08521,37.08521,0,0,0-.006-3.90889c-.12872-2.19694.88659-3.00528,3.03961-2.9722C279.67863,195.0094,284.77759,194.95626,289.8757,194.95809Z" fill="#f46825"/><path d="M289.37594,189.97949c-4.72212,0-9.4465-.0873-14.16547.034-2.66636.06851-3.6954-.87778-3.72257-3.63381-.063-6.393-.18766-6.395,6.36673-6.39282,8.52607.00288,17.057.18182,25.576-.06053,3.74-.10641,4.05431,1.75158,3.85665,4.58229-.18122,2.59551.93114,5.76119-3.74794,5.50968-4.70845-.25309-9.44124-.05568-14.16336-.05568Z" fill="#f46825"/><path d="M289.22766,115.16393c-4.7195.00521-9.44133-.083-14.15754.04144-2.45664.06482-3.7504-.66095-3.50521-3.316.11975-1.29664-.34178-2.77483.14-3.87456.49722-1.135,1.80471-2.7017,2.78439-2.7208q14.93892-.2911,29.88468.01727c.97516.02,2.32715,1.57808,2.76158,2.70651.48275,1.25387.03345,2.83932.13447,4.27027.16252,2.30266-1.00854,2.92575-3.09767,2.89458C299.19178,115.10837,294.20936,115.15872,289.22766,115.16393Z" fill="#f46825"/><path d="M289.32389,174.96784c-4.85122,0-9.70357-.06186-14.55319.0267-2.34433.04282-3.67718-.9214-3.15509-3.2182.52331-2.30236-2.09745-6.435,2.3612-6.60546,10.34194-.39533,20.71105-.16013,31.06586.01393.75083.01261,1.85032,1.49207,2.12039,2.47235.36862,1.33771.01805,2.85643.1163,4.288.15171,2.21127-.85012,3.04481-3.00874,3.01607-4.98146-.06632-9.96438-.02106-14.94673-.02106Z" fill="#f46825"/><path d="M289.66687,160.1445c-4.8523,0-9.70924-.1321-14.55557.03753-4.74429.16609-3.348-3.215-3.56307-5.69669-.22819-2.63359.10525-4.47441,3.65265-4.3965,9.569.21019,19.146.14513,28.71847.05407,2.57912-.02453,3.3782.92387,3.39814,3.45309.05142,6.51209.16111,6.51546-6.24113,6.53011-3.80314.00871-7.60633.00159-11.40949.00159Z" fill="#f46825"/><path d="M120.9629,150.14048c4.72068,0,9.44677.13634,14.16008-.04956,2.975-.11733,3.82835,1.04337,3.80431,3.89145-.05219,6.183.07879,6.1917-6.24269,6.18678-8.52345-.00661-17.0535-.23259-25.56776.039-4.89189.15607-3.74043-2.98583-3.97551-5.71672-.265-3.07906.587-4.57971,4.05652-4.38445,4.575.25747,9.17551.06331,13.76505.06331Z" fill="#f46825"/><path d="M289.63431,145.02186c-4.965,0-9.93172-.07556-14.89439.03283-2.37341.05184-3.3756-.86728-3.19945-3.213a25.42658,25.42658,0,0,0,.00548-3.5156c-.14554-2.27633.78714-3.37135,3.15827-3.36093q14.69866.06464,29.39772.00955c2.33439-.009,3.37111.96779,3.17213,3.30786a16.06167,16.06167,0,0,0,.00618,3.12345c.30033,2.68948-.75677,3.74817-3.53643,3.64864-4.69766-.16823-9.40579-.04618-14.10951-.04618Z" fill="#f46825"/><path d="M289.18155,130.14229c-4.71678,0-9.43581-.08558-14.14949.03494-2.477.06333-3.72361-.7359-3.48169-3.35478a23.48249,23.48249,0,0,0,.01278-3.525c-.12547-2.13371.77556-3.10474,2.9709-3.09512,9.95741.04367,19.91665-.05127,29.87026.14827.96637.01937,2.26322,1.564,2.7439,2.68348.47434,1.10476.01795,2.57636.12843,3.87361.20047,2.3546-.76354,3.297-3.15927,3.24608-4.97658-.10579-9.957-.03194-14.93582-.03194Z" fill="#f46825"/><path d="M414.34315,322.2874c-5.25434,5.47778-8.73281,10.28051-16.91115,10.18019-39.87184-.48915-79.753-.21242-119.63089-.20976-5.45267.00036-7.81-3.44117-5.67195-8.43556a3.262,3.262,0,0,1,2.025-1.4436,12.52058,12.52058,0,0,1,3.13116-.119q65.9165.01053,131.833.02772C410.50512,322.28768,411.89184,322.2874,414.34315,322.2874Z" fill="#f46825"/><path d="M413.97653,346.97966c-1.83244.11241-2.9745.2433-4.11666.24377q-66.45057.02709-132.90114-.01668c-1.56741-.00187-4.3232-.448-4.48573-1.15389a27.24658,27.24658,0,0,1-.15262-7.69445c.0247-.39377,1.17843-.93045,1.862-1.02427a28.99676,28.99676,0,0,1,3.92467-.09367c39.31986.00189,78.64395.30889,117.95631-.23057C404.4381,336.895,409.08549,340.6367,413.97653,346.97966Z" fill="#f46825"/><path d="M243.16839,383.36184c-2.98123,2.71448-5.86485,5.54969-9.00116,8.07243a6.80112,6.80112,0,0,1-4.002,1.03795q-55.04664.08019-110.093-.05208a10.059,10.059,0,0,1-5.47944-2.21264c-2.6914-2.0272-5.03578-4.51245-7.52549-6.80586l.51937-.90178H242.32Q242.74415,382.93084,243.16839,383.36184Z" fill="#f46825"/><path d="M412.55141,287.40077c-2.30574,0-3.60807-.00024-4.91045,0q-64.92784.01362-129.85575.02586c-5.67974.00084-7.44178-2.41774-5.68431-8.041a3.345,3.345,0,0,1,2.11074-1.794,15.9853,15.9853,0,0,1,3.91357-.14285c39.08789.00133,78.17948.29143,117.2606-.21755C403.64142,277.12372,407.53726,281.57782,412.55141,287.40077Z" fill="#f46825"/><path d="M397.11459,272.45505q-21.41793,0-42.83581-.00005-38.72582-.00081-77.45143-.05294c-1.54305-.00429-4.27746-.50419-4.41245-1.17983a19.27392,19.27392,0,0,1,.11515-7.67179c.13907-.64724,2.71043-1.08738,4.16682-1.09319,19.39538-.07743,38.7911-.065,58.18677-.06583,15.72622-.00067,31.45494.16956,47.177-.08375,4.46065-.07187,7.77683,1.09317,10.613,4.48215,1.46918,1.75554,3.52114,3.02626,5.30975,4.516Q397.549,271.88047,397.11459,272.45505Z" fill="#f46825"/><path d="M228.0421,398.12117c-2.84854,2.6542-5.589,5.44111-8.60767,7.88648a6.90518,6.90518,0,0,1-4.06409.96466c-26.89516.05434-53.7908.08625-80.68538-.05316a10.38648,10.38648,0,0,1-5.53735-2.21367,94.49877,94.49877,0,0,1-7.28213-6.44805l.65625-.92556h104.804Z" fill="#f46825"/><path d="M199.10877,376.46245c3.03794-2.82442,6.00537-5.73136,9.16383-8.41472a5.49247,5.49247,0,0,1,3.29884-.83657c10.76012-.06168,21.52134.02239,32.28074-.08625,2.7126-.02738,3.68262.9305,3.75508,3.62845.18363,6.83856.28556,6.83732-6.38967,6.83782q-20.65542.00155-41.31084.00031Z" fill="#f46825"/><path d="M150.15129,377.58274c-14.79715,0-29.59439-.02392-44.39137.02661-2.14139.00731-3.20371-.74095-3.10887-2.942a24.43919,24.43919,0,0,0-.02227-3.52491c-.31369-3.06627.94813-4.08074,4.06084-4.02773,9.95467.16951,19.91686.189,29.87021-.017a9.58433,9.58433,0,0,1,7.91446,3.29659,70.76717,70.76717,0,0,0,6.78451,5.77923Z" fill="#f46825"/><path d="M399.95424,382.12324c4.71011.00277,9.42242.08877,14.12936-.03286,2.4194-.06253,3.38471.90484,3.132,3.237a6.59619,6.59619,0,0,0-.002.78235c.07506,6.39528.07521,6.397-6.2062,6.39824-8.50435.00164-17.012-.13469-25.51137.06967-3.19624.07686-4.30245-1.04321-3.94154-4.0623a14.36346,14.36346,0,0,0,.00245-3.127c-.268-2.64876,1.02038-3.37,3.48308-3.30623C390.00839,382.21086,394.98247,382.12047,399.95424,382.12324Z" fill="#f46825"/><path d="M399.0231,377.584c-4.58213.00147-9.16772-.10431-13.7451.04266-2.58889.08312-3.82231-.57308-3.7656-3.46116.16262-8.28087-.498-6.91849,6.86058-6.9782,8.3782-.068,16.75953.0985,25.13514-.062,2.98334-.05718,4.07754,1.01057,3.72553,3.86762a10.37016,10.37016,0,0,0,.00216,2.73635c.47614,3.25625-1.09814,4.03084-4.07571,3.90587C408.45533,377.43769,403.73619,377.58256,399.0231,377.584Z" fill="#f46825"/><path d="M289.34763,392.50892c-4.58987.002-9.1843-.12189-13.76783.04845-2.74661.10208-3.88349-.90634-3.66151-3.61745a31.86519,31.86519,0,0,0,.01547-3.92078c-.09284-2.22029,1.00529-2.94,3.13011-2.9265q14.55591.09225,29.11243.00391c2.18537-.01395,3.15188.83254,3.05538,2.998a30.10392,30.10392,0,0,0,.01327,3.92059c.2421,2.80063-1.07877,3.623-3.73581,3.53541C298.79331,392.39517,294.0686,392.507,289.34763,392.50892Z" fill="#f46825"/><path d="M289.756,367.17c4.70361.00554,9.41021.10589,14.1096-.03409,2.60038-.07746,3.56814.99984,3.3949,3.46472a22.5635,22.5635,0,0,0-.001,3.51506c.24211,2.79726-1.10626,3.54621-3.73773,3.514-9.27518-.11339-18.55425-.13951-27.82823.01641-2.9782.05009-3.81534-1.07-3.83125-3.87564-.03767-6.604-.14984-6.60388,6.52659-6.60582Q284.07241,367.163,289.756,367.17Z" fill="#f46825"/><path d="M289.62251,302.31135c-4.72236-.00351-9.44669-.08507-14.16621.03-2.45372.05985-3.50553-.73743-3.60308-3.33623-.25321-6.743-.06-7.06763,6.84021-7.08327,8.13287-.01844,16.26882.12057,24.39738-.067,3.32026-.07663,4.316,1.1434,4.258,4.33176-.11149,6.11812.03594,6.12256-5.92041,6.12759Q295.52546,302.31922,289.62251,302.31135Z" fill="#f46825"/><path d="M376.65952,292.489c1.43852-.1083,2.56-.2651,3.68165-.26595,10.74186-.00813,21.48924.21336,32.22293-.07659,4.46079-.1205,4.72116,1.96616,4.7548,5.46.033,3.43114-.69965,4.87333-4.53283,4.76119-9.16171-.268-18.33736-.10189-27.50691-.04071-2.18258.01457-3.377-.27232-3.98989-2.96281C380.76493,297.06217,378.53694,295.14606,376.65952,292.489Z" fill="#f46825"/><path d="M378.87583,317.3674a83.14654,83.14654,0,0,1,2.8151-8.0908,3.79691,3.79691,0,0,1,2.83869-1.77188c9.95695-.11841,19.91761-.13111,29.87211.07486.95455.01974,2.32963,1.5666,2.69587,2.67246a8.54572,8.54572,0,0,1,.00461,4.63926c-.251.95011-1.47365,2.34218-2.269,2.34752-12.03736.08063-24.076-.03522-36.1143-.11857C378.64982,317.11978,378.58206,316.92856,378.87583,317.3674Z" fill="#f46825"/><path d="M379.03394,352.24c11.49865,0,23.2853.04192,35.07119-.03447,2.43127-.01575,3.32228.94757,3.1303,3.27078-.10727,1.29815.34158,2.76453-.12615,3.87659-.48148,1.1447-1.7556,2.76055-2.71187,2.78033-9.95609.206-19.91872.18536-29.87716.05022a3.82144,3.82144,0,0,1-2.807-1.89723A82.00369,82.00369,0,0,1,379.03394,352.24Z" fill="#f46825"/><path d="M289.41092,362.59788c-4.32195,0-8.65929-.22484-12.96125.06776-3.76219.25588-5.00522-1.27062-4.56747-4.75974a16.388,16.388,0,0,0,.02676-2.73988c-.09534-2.18518.969-2.98353,3.10339-2.97181,9.6913.0532,19.38342.07079,29.07442-.00536,2.42772-.01907,3.11555,1.04365,3.21479,3.29687.29127,6.61347.1904,6.79788-6.50506,6.81058q-5.69225.0108-11.38447.00132Z" fill="#f46825"/><path d="M230.0487,352.21225c4.44642,0,8.89817.13157,13.33743-.04629,2.95735-.11848,4.31533.76474,4.22825,3.9395-.19665,7.17246,1.04056,6.504-6.44966,6.47474-8.3671-.03273-16.73646-.358-25.09962-.2266-4.493.07061-3.77455-2.78527-3.85293-5.488-.07674-2.64676-.19491-4.94064,3.71659-4.70491,4.69088.28272,9.41195.06679,14.11994.06679Z" fill="#f46825"/><path d="M230.28715,337.25043c4.70747,0,9.41738.08922,14.12148-.036,2.51076-.06685,3.67708.82652,3.47409,3.38931a29.16759,29.16759,0,0,0-.00966,3.5188c.08747,2.07965-.73954,3.13948-2.96118,3.129q-14.90654-.07041-29.81353-.02233c-2.26.00641-2.7992-1.15491-2.89334-3.192-.31265-6.76472-.37638-6.76356,6.31346-6.76985q5.88435-.00554,11.76868-.00067Z" fill="#f46825"/><path d="M399.56931,397.05835c4.7103-.00059,9.42579.13156,14.129-.05026,2.812-.1087,3.81592.97623,3.5308,3.65432-.12365,1.16138.33938,2.52285-.1235,3.4745-.54766,1.12583-1.79174,2.69649-2.76133,2.71592-9.93984.19914-19.88521.10748-29.82895.13446-2.19118.006-3.0624-1.027-2.93793-3.14335a31.42952,31.42952,0,0,0-.004-3.91207c-.14975-2.26232.96074-2.93818,3.08042-2.90089C389.62427,397.11841,394.59734,397.059,399.56931,397.05835Z" fill="#f46825"/><path d="M230.15471,332.22153c-4.70564,0-9.41569-.1224-14.11532.04524-2.88829.103-3.88186-.92556-3.85874-3.83126.04868-6.12949-.09179-6.1365,6.2012-6.14549,8.49633-.01212,16.99972.19025,25.486-.10427,4.42134-.15343,3.96663,2.43654,4.04106,5.26466.07675,2.91439-.06122,5.11369-4.03361,4.863-4.55666-.28753-9.14567-.06668-13.72059-.06668Z" fill="#f46825"/><path d="M229.75757,317.38469c-4.70645,0-9.41464-.07443-14.11873.02991-2.52945.05613-3.39336-.94861-3.44277-3.46388-.12763-6.50056-.23211-6.50222,6.19054-6.50966,8.62857-.01,17.261.13491,25.88405-.08593,3.98359-.102,3.67093,2.29318,3.59923,4.83733-.07088,2.51656.73411,5.45351-3.60255,5.27274-4.8288-.20129-9.67255-.04611-14.50977-.04611Z" fill="#f46825"/><path d="M120.07965,362.2739c-4.57252-.00034-9.14944-.12563-13.71629.035-4.5475.16-3.60146-3.0147-3.71834-5.62324-.1125-2.5103-.09714-4.58368,3.5402-4.51211,9.40267.18495,18.81339.16839,28.21673-.00005,3.28014-.05876,3.76474,1.638,3.45574,4.14071-.2942,2.38279,1.45179,5.9678-3.27677,5.96148Q127.33028,362.266,120.07965,362.2739Z" fill="#f46825"/><path d="M229.598,272.42869c-4.7238,0-9.44976-.08449-14.17049.035-2.422.06134-3.13755-.93067-3.20752-3.24814-.20472-6.78371-.29142-6.7865,6.4496-6.792,8.26667-.00672,16.53713.14623,24.79851-.0624,4.68074-.11821,3.93933,2.92616,4.11651,5.77906.19386,3.121-.80139,4.55113-4.21219,4.36618-4.57906-.24829-9.18181-.06152-13.77442-.06152Z" fill="#f46825"/><path d="M120.04765,332.20705c-4.71568,0-9.43346-.087-14.14642.0259-4.21294.10091-3.13352-2.93532-3.22387-5.207-.09226-2.31986-.51367-4.81231,3.29634-4.75968,9.56054.13209,19.12439.08435,28.68627.01538,2.36731-.01709,3.1576.92533,3.24756,3.24846.25892,6.6853.34668,6.68369-6.46359,6.69072q-5.69816.00588-11.39629.00072Z" fill="#f46825"/><path d="M119.90912,272.42958c-4.58561-.00129-9.17392-.09535-13.75574.03611-2.50789.072-3.45838-.80589-3.52753-3.36956-.17651-6.54462-.1848-6.65779,6.23359-6.66538,8.2541-.00977,16.51615.21748,24.7592-.08228,4.59991-.16728,4.15442,2.5181,4.28687,5.51865.14013,3.17225-.491,4.88808-4.24444,4.63646C129.09609,272.19756,124.49474,272.43087,119.90912,272.42958Z" fill="#f46825"/><path d="M289.54159,307.41272c4.71169-.00107,9.43064.15872,14.13272-.05318,3.56434-.16063,3.82,1.91626,3.60307,4.48689-.199,2.35929,1.11467,5.611-3.3069,5.58959-9.554-.04613-19.10877-.06993-28.66224.01319-4.39063.0382-3.25539-3.0995-3.40254-5.50654-.15167-2.48084-.15345-4.733,3.50288-4.57756C280.11171,307.56511,284.82989,307.41377,289.54159,307.41272Z" fill="#f46825"/><path d="M119.96384,317.38c-4.58564,0-9.17707-.14235-13.75517.043-3.98674.16141-3.61639-2.457-3.54548-4.9612.0667-2.35638-.76472-5.12848,3.39309-5.05825,9.4306.15926,18.86631.0986,28.29882.01143,2.44723-.02262,3.495.70238,3.56194,3.32591.16945,6.64106.28483,6.64085-6.55456,6.65152q-5.6993.0089-11.39864.00106Z" fill="#f46825"/><path d="M229.75281,302.27368c-4.83889,0-9.67885-.05787-14.5163.02614-2.18763.038-3.13266-.83238-2.99709-3.00632a34.39925,34.39925,0,0,0,.00524-3.9105c-.10976-2.12235.81095-3.13492,2.975-3.13095,9.67765.01772,19.35549-.03681,29.03285.012,4.60429.02324,3.02,3.61491,3.29792,6.04791.30353,2.65646-.57648,4.158-3.67506,4.03532-4.70074-.18615-9.4144-.04866-14.12254-.04866Z" fill="#f46825"/><path d="M120.20813,302.27354c-4.58987.00268-9.19062-.19021-13.76607.06588-3.44224.19264-4.04241-1.54974-3.77486-4.29256.24232-2.48411-1.15492-5.86072,3.52441-5.81746,9.44116.08728,18.88377.04966,28.32558.01263,2.24486-.0088,3.48789.78511,3.34593,3.20246a34.47875,34.47875,0,0,0,.00173,3.92119c.12418,2.23919-.97665,2.96583-3.10069,2.9306C129.91334,302.21582,125.06029,302.27087,120.20813,302.27354Z" fill="#f46825"/><path d="M229.91246,287.39559c-4.72174,0-9.44559-.0832-14.16439.03424-2.44949.061-3.76133-.66813-3.50865-3.32488a22.6984,22.6984,0,0,0,.01033-3.52851c-.13143-2.1354.7605-3.11,2.9634-3.102,9.70557.03528,19.41138-.00379,29.1171.00075,4.41749.00207,2.98882,3.37685,3.2105,5.70989.23327,2.45429-.15738,4.38756-3.46462,4.26826-4.71554-.1701-9.44194-.04326-14.16367-.04326Z" fill="#f46825"/><path d="M120.36535,287.39582c-4.5829.00056-9.16967-.113-13.74724.04295-2.76663.09424-4.01408-.68-4.01728-3.70626-.0066-6.24631-.15459-6.25226,6.20089-6.25558,8.2492-.00432,16.5075.23361,24.744-.088,4.49309-.17543,4.31331,2.27118,4.3765,5.38494.06291,3.09927-.39627,4.95315-4.2059,4.69219C129.28529,287.16255,124.81729,287.39528,120.36535,287.39582Z" fill="#f46825"/><path d="M289.48238,397.05569c4.718.00224,9.441.13195,14.15218-.04656,2.812-.10654,3.60106,1.02788,3.62754,3.6706.06325,6.30648.16806,6.312-6.18294,6.32071-8.12547.01116-16.25945-.20923-24.373.10295-4.38227.16862-4.8227-1.89832-4.8563-5.44693-.03325-3.51605.91-4.95894,4.66359-4.67769C280.814,397.301,285.15754,397.05345,289.48238,397.05569Z" fill="#f46825"/><path d="M120.30254,337.27915c4.71873-.00114,9.44481.16063,14.15386-.05229,3.77186-.17055,3.51744,2.219,3.404,4.62227-.11418,2.41867.99265,5.48476-3.44459,5.41977q-14.15313-.20728-28.31114-.01548c-4.41434.05409-3.31349-3.02908-3.45086-5.44958-.1404-2.47336-.19227-4.74111,3.49488-4.575C110.85782,337.441,115.58383,337.2803,120.30254,337.27915Z" fill="#f46825"/></svg>