<svg xmlns="http://www.w3.org/2000/svg" viewBox="0 0 512 512"><circle cx="256" cy="256" r="256" fill="#0b0609"/><path d="M244.176 226.055c-2.977 2.712-5.858 5.543-8.987 8.068a6.76 6.76 0 0 1-3.986 1.079q-62.153.079-124.306.095c-2.986.006-4.057-1.003-3.738-3.867.144-1.291-.296-2.729.125-3.885a7.412 7.412 0 0 1 2.439-2.64c.312-.26 1.015-.053 1.54-.053l133.746-.004h2.32Zm.834-36.065h-4.14l-132.19-.024c-4.915-.001-7.556-4.332-5.268-8.737a2.776 2.776 0 0 1 1.827-1.132 21.283 21.283 0 0 1 3.531-.096c40.13-.012 80.26.07 120.387-.143 5.136-.027 9.11 1.026 12.301 5.117 1.09 1.398 2.837 2.287 4.284 3.408Zm1.1-24.467c-3.356 3.172-5.993 5.888-8.894 8.284a6.66 6.66 0 0 1-3.977 1.132c-42.08.047-84.16-.005-126.24.078-3.29.006-4.256-1.305-3.807-4.2.362-2.33-1.582-5.828 3.333-5.822q68.625.081 137.25.035a19.11 19.11 0 0 1 2.334.493Zm-1.884-35.583c-1.998.093-3.258.202-4.519.202q-65.514.008-131.028-.043c-1.733-.002-4.766-.23-4.961-.951-.656-2.424-.407-5.127-.227-7.704.032-.45 1.369-1.011 2.169-1.155a20.148 20.148 0 0 1 3.531-.088c39.48-.007 78.962.263 118.434-.24 8.204-.105 11.65 4.755 16.601 9.98Zm32.361 94.907h3.863q58.223.005 116.446.053c1.572.002 4.406.44 4.5 1.022a34.014 34.014 0 0 1-.005 8.49c-.033.357-1.8.792-2.764.793q-55.272.062-110.544-.018a5.725 5.725 0 0 1-3.492-1.31c-2.923-2.593-5.645-5.41-8.444-8.14Zm-47.264 14.935c-5.123 5.846-9.11 10.364-17.549 10.217-34.345-.599-68.708-.247-103.064-.253-4.921 0-7.588-4.37-5.294-8.764a2.836 2.836 0 0 1 1.834-1.124 16.97 16.97 0 0 1 3.138-.071q58.025-.004 116.05-.005h4.885Zm.035-124.603h-4.475q-58.449-.004-116.897-.058c-1.54-.003-4.271-.509-4.405-1.184a20.9 20.9 0 0 1 .093-7.707c.106-.574 2.485-1.03 3.82-1.037 14.431-.081 28.863-.068 43.295-.069 20.204 0 40.427.513 60.604-.222 8.5-.309 12.816 4.125 17.965 10.277Zm62.186 124.603h3.447c34.083.002 68.166.052 102.249-.067 3.531-.013 4.918.827 4.751 4.551-.149 3.337-.108 5.604-4.68 5.577-31.066-.179-62.135-.047-93.202-.205-2.081-.01-4.393-1.238-6.174-2.495a76.181 76.181 0 0 1-7-6.238Zm29.324-19.471c-16.372 0-31.512.042-46.649-.108a3.653 3.653 0 0 1-2.537-2.423c-1.076-7.473-.644-7.878 6.967-7.878 8.894 0 17.793.166 26.68-.08 3.59-.098 6.234.873 8.529 3.606 1.83 2.179 4.062 4.022 7.01 6.883Zm-112.784.01c1.916-3.37 3.559-6.495 5.471-9.446.417-.643 1.792-.93 2.729-.937 9.674-.063 19.35.013 29.023-.066 2.43-.02 3.319 1.018 3.176 3.282-.041.65.002 1.303.001 1.955-.005 5.201-.005 5.209-5.127 5.21q-17.638.008-35.273.002Zm-87.004-.007c-4.978 0-9.957-.063-14.934.028-2.206.04-3.015-.819-2.992-3.005.095-8.933-.68-7.326 7.193-7.412 8.252-.091 16.508.073 24.759-.09 2.951-.06 4.096.97 3.777 3.849a18.76 18.76 0 0 0-.012 3.523c.191 2.407-.91 3.212-3.25 3.157-4.844-.115-9.693-.035-14.54-.035Zm88.923-25.379h14.054c6.928.003 13.856.095 20.781-.033 2.705-.05 3.666.91 3.71 3.613.1 6.264.217 6.391-5.997 6.539-8.62.205-17.247.15-25.87.303-2.42.043-3.321-.778-3.71-3.299-.364-2.37-1.852-4.57-2.968-7.123Zm-89.189 10.075c-4.702 0-9.405-.082-14.104.031-2.745.067-3.819-1.081-3.551-3.748.116-1.162-.332-2.506.115-3.475.514-1.116 1.717-2.704 2.649-2.723q15.09-.306 30.186-.024c.933.017 1.983 1.665 2.686 2.745.36.552.072 1.524.072 2.306.001 5.194 0 5.198-5.113 5.206q-6.47.01-12.939.001Zm.276-59.995c-4.836 0-9.674-.09-14.507.037-2.502.065-3.69-.76-3.423-3.365a21.141 21.141 0 0 0 .008-3.516c-.136-2.087.674-3.18 2.883-3.198q14.896-.125 29.792-.335c2.135-.031 3.17.794 3.029 3a23.715 23.715 0 0 0 .014 3.907c.286 2.813-1.04 3.619-3.68 3.538-4.702-.144-9.41-.04-14.116-.04Zm86.949-10.068h9.588c8.781.004 17.567.19 26.34-.064 4.214-.121 4.612 1.964 4.599 5.306-.013 3.216-.4 5.073-4.442 4.937-8.901-.3-17.82-.14-26.731-.054-2.485.024-3.955-.278-4.607-3.302-.47-2.18-2.683-3.986-4.747-6.823Zm2.035 25.216c1.174-2.97 1.997-5.465 3.16-7.79.466-.928 1.676-2.098 2.562-2.11q15.09-.215 30.182.024a3.472 3.472 0 0 1 2.38 2.264c1.264 6.413.223 7.602-6.208 7.608q-14.309.012-28.617.004h-3.459Zm79.802 34.795c4.314.002 8.645.244 12.936-.07 3.777-.278 4.969 1.23 4.475 4.705a10.984 10.984 0 0 0-.01 2.343c.162 2.178-.882 3.08-3.005 3.075q-14.902-.034-29.804-.005c-2.2.003-3.018-1.122-2.92-3.194a37.085 37.085 0 0 0-.006-3.909c-.129-2.197.887-3.005 3.04-2.972 5.097.078 10.196.025 15.294.027Zm-.5-4.978c-4.722 0-9.447-.088-14.166.033-2.666.069-3.695-.877-3.722-3.633-.063-6.393-.188-6.395 6.367-6.393 8.526.003 17.057.182 25.576-.06 3.74-.107 4.054 1.75 3.856 4.582-.18 2.595.931 5.76-3.748 5.51-4.708-.254-9.44-.056-14.163-.056Zm-.148-74.816c-4.72.005-9.442-.083-14.158.041-2.457.065-3.75-.66-3.505-3.316.12-1.296-.342-2.774.14-3.874.497-1.135 1.805-2.702 2.784-2.721q14.94-.291 29.885.017c.975.02 2.327 1.578 2.762 2.707.482 1.254.033 2.84.134 4.27.163 2.303-1.009 2.926-3.098 2.895-4.98-.075-9.963-.024-14.944-.02Zm.096 59.804c-4.851 0-9.704-.062-14.553.027-2.345.042-3.677-.922-3.155-3.219.523-2.302-2.098-6.435 2.36-6.605 10.343-.395 20.712-.16 31.067.014.75.012 1.85 1.492 2.12 2.472.369 1.338.018 2.857.116 4.288.152 2.211-.85 3.045-3.008 3.016-4.982-.066-9.965-.02-14.947-.02Zm.343-14.824c-4.852 0-9.71-.132-14.556.038-4.744.166-3.348-3.215-3.563-5.697-.228-2.633.105-4.474 3.653-4.396 9.569.21 19.146.145 28.718.054 2.58-.025 3.379.924 3.398 3.453.052 6.512.162 6.515-6.24 6.53-3.804.009-7.607.002-11.41.002ZM120.963 150.14c4.72 0 9.447.137 14.16-.05 2.975-.116 3.828 1.044 3.804 3.892-.052 6.183.08 6.192-6.242 6.187-8.524-.006-17.054-.232-25.568.04-4.892.155-3.74-2.987-3.976-5.718-.265-3.079.587-4.58 4.057-4.384 4.575.257 9.175.063 13.765.063Zm168.671-5.118c-4.965 0-9.931-.076-14.894.033-2.373.052-3.376-.868-3.2-3.213a25.427 25.427 0 0 0 .006-3.516c-.146-2.276.787-3.371 3.158-3.36q14.699.064 29.398.009c2.334-.01 3.371.967 3.172 3.308a16.062 16.062 0 0 0 .006 3.123c.3 2.69-.757 3.748-3.536 3.649-4.698-.169-9.406-.047-14.11-.047Zm-.452-14.88c-4.717 0-9.436-.085-14.15.035-2.477.064-3.724-.736-3.482-3.355a23.482 23.482 0 0 0 .013-3.525c-.125-2.133.776-3.104 2.971-3.095 9.957.044 19.917-.05 29.87.149.967.019 2.264 1.564 2.744 2.683.475 1.105.018 2.576.129 3.874.2 2.354-.764 3.297-3.16 3.246-4.976-.106-9.957-.032-14.935-.032Zm125.161 192.145c-5.254 5.478-8.733 10.28-16.911 10.18-39.872-.489-79.753-.212-119.63-.21-5.454.001-7.81-3.44-5.673-8.435a3.262 3.262 0 0 1 2.025-1.443 12.52 12.52 0 0 1 3.131-.12q65.917.011 131.833.028h5.225Zm-.366 24.693c-1.833.112-2.975.243-4.117.243q-66.45.028-132.901-.016c-1.568-.002-4.323-.448-4.486-1.154a27.247 27.247 0 0 1-.153-7.695c.025-.393 1.179-.93 1.862-1.024a28.997 28.997 0 0 1 3.925-.094c39.32.002 78.644.31 117.956-.23 8.375-.115 13.022 3.627 17.914 9.97Zm-170.809 36.382c-2.98 2.714-5.864 5.55-9 8.072a6.801 6.801 0 0 1-4.003 1.038q-55.046.08-110.093-.052a10.059 10.059 0 0 1-5.48-2.213c-2.69-2.027-5.035-4.512-7.525-6.805l.52-.902H242.32l.848.862ZM412.551 287.4h-4.91l-129.856.027c-5.68 0-7.442-2.418-5.684-8.041a3.345 3.345 0 0 1 2.11-1.794 15.985 15.985 0 0 1 3.914-.143c39.088.001 78.18.291 117.26-.218 8.256-.107 12.152 4.347 17.166 10.17Zm-15.436-14.945h-42.836q-38.726 0-77.452-.053c-1.543-.004-4.277-.504-4.412-1.18a19.274 19.274 0 0 1 .115-7.672c.14-.647 2.71-1.087 4.167-1.093 19.395-.077 38.791-.065 58.187-.066 15.726 0 31.455.17 47.177-.083 4.46-.072 7.776 1.093 10.613 4.482 1.469 1.755 3.52 3.026 5.31 4.516l-.87 1.15ZM228.042 398.121c-2.848 2.654-5.589 5.441-8.608 7.887a6.905 6.905 0 0 1-4.064.964c-26.895.055-53.79.087-80.685-.053a10.386 10.386 0 0 1-5.537-2.214 94.499 94.499 0 0 1-7.283-6.448l.657-.925h104.804Zm-28.933-21.659c3.038-2.824 6.005-5.73 9.164-8.414a5.492 5.492 0 0 1 3.298-.837c10.76-.062 21.522.023 32.281-.086 2.713-.027 3.683.93 3.755 3.628.184 6.839.286 6.838-6.39 6.838q-20.655.002-41.31 0Zm-48.958 1.121c-14.797 0-29.594-.024-44.391.026-2.141.008-3.204-.74-3.109-2.942a24.44 24.44 0 0 0-.022-3.525c-.314-3.066.948-4.08 4.06-4.027 9.955.17 19.917.189 29.87-.017a9.584 9.584 0 0 1 7.915 3.296 70.767 70.767 0 0 0 6.785 5.78Zm249.803 4.54c4.71.003 9.423.089 14.13-.033 2.419-.062 3.384.905 3.132 3.237a6.596 6.596 0 0 0-.002.783c.075 6.395.075 6.397-6.207 6.398-8.504.002-17.012-.135-25.511.07-3.196.076-4.302-1.044-3.942-4.063a14.363 14.363 0 0 0 .003-3.127c-.268-2.648 1.02-3.37 3.483-3.306 4.968.129 9.942.038 14.914.041Zm-.931-4.539c-4.582.001-9.168-.104-13.745.043-2.589.083-3.822-.573-3.766-3.461.163-8.281-.498-6.919 6.861-6.979 8.378-.068 16.76.099 25.135-.062 2.983-.057 4.078 1.01 3.726 3.868a10.37 10.37 0 0 0 .002 2.736c.476 3.257-1.098 4.031-4.076 3.906-4.705-.197-9.424-.052-14.137-.051Zm-109.675 14.925c-4.59.002-9.185-.122-13.768.048-2.747.102-3.884-.906-3.662-3.617a31.865 31.865 0 0 0 .016-3.92c-.093-2.221 1.005-2.94 3.13-2.927q14.556.092 29.112.004c2.186-.014 3.152.832 3.056 2.998a30.104 30.104 0 0 0 .013 3.92c.242 2.8-1.079 3.623-3.736 3.536-4.716-.156-9.44-.044-14.161-.042Zm.408-25.339c4.704.006 9.41.106 14.11-.034 2.6-.078 3.568 1 3.394 3.465a22.564 22.564 0 0 0 0 3.515c.242 2.797-1.107 3.546-3.738 3.514-9.275-.114-18.554-.14-27.828.016-2.979.05-3.816-1.07-3.832-3.876-.037-6.604-.15-6.603 6.527-6.605q5.683-.002 11.367.005Zm-.133-64.859c-4.723-.003-9.447-.085-14.167.03-2.453.06-3.505-.737-3.603-3.336-.253-6.743-.06-7.068 6.84-7.083 8.133-.019 16.27.12 24.398-.067 3.32-.077 4.316 1.143 4.258 4.332-.112 6.118.036 6.122-5.92 6.127q-5.904.005-11.806-.003Zm87.037-9.822c1.438-.108 2.56-.265 3.681-.266 10.742-.008 21.49.213 32.223-.077 4.46-.12 4.721 1.967 4.755 5.46.033 3.432-.7 4.874-4.533 4.762-9.162-.268-18.337-.102-27.507-.041-2.182.015-3.377-.272-3.99-2.963-.524-2.302-2.752-4.218-4.63-6.875Zm2.216 24.878a83.147 83.147 0 0 1 2.815-8.09 3.797 3.797 0 0 1 2.839-1.772c9.957-.119 19.917-.131 29.872.075.954.02 2.33 1.566 2.696 2.672a8.546 8.546 0 0 1 .004 4.64c-.25.95-1.473 2.341-2.269 2.347-12.037.08-24.076-.035-36.114-.119-.07 0-.137-.191.157.247Zm.158 34.873c11.499 0 23.285.042 35.071-.034 2.431-.016 3.322.947 3.13 3.27-.107 1.298.342 2.765-.126 3.877-.481 1.145-1.755 2.76-2.712 2.78-9.956.206-19.918.186-29.877.05a3.821 3.821 0 0 1-2.807-1.897 82.004 82.004 0 0 1-2.68-8.046Zm-89.624 10.358c-4.321 0-8.658-.225-12.96.068-3.763.256-5.006-1.271-4.568-4.76a16.388 16.388 0 0 0 .027-2.74c-.095-2.185.969-2.984 3.103-2.972 9.692.053 19.384.071 29.075-.005 2.427-.02 3.115 1.043 3.215 3.297.29 6.613.19 6.798-6.506 6.81q-5.692.011-11.384.002Zm-59.361-10.386c4.446 0 8.898.132 13.337-.046 2.957-.119 4.315.765 4.228 3.94-.196 7.172 1.04 6.503-6.45 6.474-8.366-.033-16.736-.358-25.099-.226-4.493.07-3.774-2.786-3.853-5.488-.077-2.647-.195-4.941 3.717-4.705 4.69.282 9.412.066 14.12.066Zm.238-14.962c4.708 0 9.418.09 14.122-.036 2.51-.066 3.677.827 3.474 3.39a29.168 29.168 0 0 0-.01 3.519c.088 2.08-.74 3.139-2.961 3.129q-14.907-.07-29.814-.023c-2.26.007-2.799-1.155-2.893-3.192-.313-6.765-.376-6.763 6.313-6.77q5.885-.005 11.77 0Zm169.283 59.808c4.71 0 9.425.132 14.128-.05 2.812-.109 3.816.976 3.531 3.654-.124 1.162.34 2.523-.123 3.475-.548 1.126-1.792 2.696-2.762 2.716-9.94.199-19.885.107-29.829.134-2.19.006-3.062-1.027-2.938-3.143a31.43 31.43 0 0 0-.004-3.912c-.15-2.262.961-2.938 3.08-2.901 4.971.087 9.944.028 14.916.027Zm-169.415-64.836c-4.706 0-9.416-.123-14.116.045-2.888.103-3.881-.926-3.858-3.831.048-6.13-.092-6.137 6.2-6.146 8.497-.012 17 .19 25.487-.104 4.421-.154 3.966 2.436 4.04 5.264.078 2.915-.06 5.114-4.033 4.863-4.556-.287-9.145-.066-13.72-.066Zm-.397-14.837c-4.707 0-9.415-.075-14.12.03-2.529.056-3.393-.949-3.442-3.464-.128-6.5-.232-6.503 6.19-6.51 8.63-.01 17.262.135 25.885-.086 3.983-.102 3.67 2.293 3.599 4.837-.071 2.517.734 5.454-3.603 5.273-4.828-.201-9.672-.046-14.51-.046ZM120.08 362.274c-4.573 0-9.15-.126-13.717.035-4.547.16-3.601-3.015-3.718-5.623-.112-2.51-.097-4.584 3.54-4.512 9.403.185 18.814.168 28.217 0 3.28-.06 3.765 1.638 3.456 4.14-.295 2.383 1.451 5.968-3.277 5.962q-7.25-.01-14.501-.002Zm109.518-89.845c-4.724 0-9.45-.085-14.17.035-2.422.061-3.138-.931-3.208-3.248-.205-6.784-.291-6.787 6.45-6.792 8.266-.007 16.537.146 24.798-.063 4.68-.118 3.94 2.926 4.117 5.78.193 3.12-.802 4.55-4.213 4.365-4.579-.248-9.181-.061-13.774-.061Zm-109.55 59.778c-4.716 0-9.434-.087-14.147.026-4.213.1-3.133-2.935-3.224-5.207-.092-2.32-.513-4.812 3.297-4.76 9.56.132 19.124.085 28.686.016 2.367-.017 3.158.925 3.248 3.248.258 6.685.346 6.684-6.464 6.69q-5.698.007-11.396.002Zm-.138-59.777c-4.586-.002-9.175-.096-13.757.036-2.508.072-3.458-.806-3.527-3.37-.177-6.544-.185-6.658 6.233-6.665 8.255-.01 16.517.217 24.76-.083 4.6-.167 4.154 2.519 4.287 5.52.14 3.171-.491 4.887-4.245 4.636-4.565-.306-9.166-.073-13.752-.074Zm169.632 34.983c4.711-.001 9.43.158 14.132-.053 3.565-.161 3.82 1.916 3.603 4.486-.199 2.36 1.115 5.611-3.307 5.59-9.554-.046-19.108-.07-28.662.013-4.39.038-3.255-3.1-3.402-5.506-.152-2.481-.154-4.733 3.503-4.578 4.703.2 9.42.049 14.133.048Zm-169.578 9.967c-4.586 0-9.177-.142-13.755.043-3.987.161-3.617-2.457-3.546-4.961.067-2.357-.765-5.129 3.393-5.058 9.43.159 18.867.098 28.3.011 2.446-.023 3.494.702 3.561 3.326.17 6.641.285 6.64-6.555 6.651q-5.699.01-11.398.001Zm109.789-15.106c-4.84 0-9.679-.058-14.516.026-2.188.038-3.133-.833-2.998-3.007a34.4 34.4 0 0 0 .006-3.91c-.11-2.122.81-3.135 2.975-3.131 9.677.018 19.355-.037 29.033.012 4.604.023 3.02 3.615 3.297 6.048.304 2.656-.576 4.158-3.675 4.035-4.7-.186-9.414-.048-14.122-.048Zm-109.545 0c-4.59.002-9.19-.19-13.766.065-3.442.193-4.042-1.55-3.775-4.292.243-2.484-1.155-5.86 3.525-5.818 9.44.088 18.883.05 28.325.013 2.245-.009 3.488.785 3.346 3.202a34.479 34.479 0 0 0 .002 3.922c.124 2.239-.977 2.966-3.1 2.93-4.852-.08-9.705-.025-14.557-.022Zm109.704-14.878c-4.721 0-9.445-.084-14.164.034-2.45.06-3.761-.668-3.509-3.325a22.698 22.698 0 0 0 .01-3.529c-.13-2.135.761-3.11 2.964-3.102 9.706.036 19.412-.003 29.117.001 4.418.002 2.99 3.377 3.21 5.71.234 2.454-.157 4.388-3.464 4.268-4.715-.17-9.442-.043-14.164-.043Zm-109.547 0c-4.583 0-9.17-.113-13.747.043-2.767.094-4.014-.68-4.017-3.706-.007-6.247-.155-6.253 6.2-6.256 8.25-.004 16.508.234 24.745-.088 4.493-.175 4.313 2.271 4.376 5.385.063 3.1-.396 4.953-4.206 4.692-4.43-.303-8.899-.07-13.35-.07Zm169.117 109.66c4.718.002 9.441.132 14.153-.047 2.812-.106 3.6 1.028 3.627 3.67.063 6.307.168 6.313-6.183 6.321-8.125.012-16.26-.209-24.373.103-4.382.169-4.823-1.898-4.856-5.447-.033-3.516.91-4.958 4.663-4.677 4.301.322 8.645.074 12.97.077ZM120.303 337.28c4.718-.002 9.444.16 14.153-.053 3.772-.17 3.518 2.219 3.404 4.622-.114 2.419.993 5.485-3.444 5.42q-14.153-.207-28.311-.016c-4.415.055-3.314-3.029-3.451-5.45-.14-2.473-.192-4.74 3.495-4.574 4.709.212 9.435.051 14.154.05Z" fill="#f46825"/></svg>