<svg width="42" height="42" fill="none" xmlns="http://www.w3.org/2000/svg"><g clip-path="url(#a)"><path d="M21 42c11.598 0 21-9.402 21-21S32.598 0 21 0 0 9.402 0 21s9.402 21 21 21Z" fill="#F3BA2F"/><path d="M15.902 18.905 21 13.807l5.1 5.1 2.967-2.965L21 7.875l-8.064 8.064 2.966 2.966ZM7.875 21l2.966-2.966L13.807 21l-2.966 2.966L7.875 21Zm8.027 2.095L21 28.193l5.1-5.1 2.967 2.964L21 34.125l-8.064-8.064-.004-.004 2.97-2.962ZM28.192 21l2.967-2.966L34.125 21l-2.966 2.966L28.193 21Zm-4.184-.003h.003V21L21 24.01l-3.007-3.005-.005-.005.005-.004.526-.528.256-.256L21 17.99 24.01 21l-.002-.002Z" fill="#fff"/></g><defs><clipPath id="a"><path fill="#fff" d="M0 0h42v42H0z"/></clipPath></defs></svg>