<svg width="42" height="42" fill="none" xmlns="http://www.w3.org/2000/svg"><g clip-path="url(#a)"><path d="M21 42c11.598 0 21-9.402 21-21S32.598 0 21 0 0 9.402 0 21s9.402 21 21 21Z" fill="#F7931A"/><path d="M30.436 18.401c.412-2.75-1.684-4.23-4.548-5.217l.93-3.727-2.269-.565-.905 3.63c-.596-.15-1.208-.29-1.818-.429l.912-3.652-2.268-.566-.93 3.726c-.493-.113-.978-.223-1.448-.341l.002-.012-3.129-.78-.603 2.422s1.684.386 1.648.41c.919.23 1.084.837 1.057 1.32l-1.058 4.246c.063.016.144.04.236.075l-.24-.06-1.483 5.949c-.113.278-.398.697-1.041.538.024.033-1.649-.41-1.649-.41l-1.126 2.595 2.954.737c.548.137 1.086.282 1.615.417l-.938 3.77 2.266.564.93-3.728c.62.167 1.22.322 1.808.469l-.926 3.712 2.268.564.938-3.762c3.87.733 6.778.438 8.002-3.062.987-2.816-.048-4.442-2.084-5.502 1.483-.34 2.599-1.316 2.897-3.33Zm-5.184 7.269c-.7 2.818-5.445 1.294-6.983.912l1.247-4.994c1.538.385 6.47 1.145 5.736 4.082Zm.702-7.31c-.64 2.564-4.588 1.26-5.867.942l1.128-4.528c1.28.318 5.405.913 4.739 3.587Z" fill="#fff"/></g><defs><clipPath id="a"><path fill="#fff" d="M0 0h42v42H0z"/></clipPath></defs></svg>