<svg width="42" height="42" fill="none" xmlns="http://www.w3.org/2000/svg"><path d="M21 42c11.598 0 21-9.402 21-21S32.598 0 21 0 0 9.402 0 21s9.402 21 21 21Z" fill="#988430"/><path d="M21 41.327c11.227 0 20.327-9.1 20.327-20.327C41.327 9.774 32.227.673 21 .673 9.774.673.673 9.773.673 21c0 11.227 9.1 20.327 20.327 20.327z" fill="#7a6a2a"/><path d="M21 40.899c10.99 0 19.9-8.91 19.9-19.899 0-10.99-8.91-19.9-19.9-19.9C10.01 1.101 1.101 10.01 1.101 21c0 10.99 8.91 19.899 19.899 19.899z" fill="#ba9f33"/><path fill-rule="evenodd" clip-rule="evenodd" d="M9.182 18.757c-.12-.108-.245-.217-.36-.326a33.707 33.707 0 0 0-.354-.326l-.353-.336c-.058-.058-.12-.109-.177-.167-.058-.05-.126-.108-.184-.16-.469-.444-.94-.89-1.403-1.335.48.439.948.874 1.427 1.319l.167.166c.058.058.119.109.177.167l.353.326c.119.108.234.217.353.336.12.118.235.227.354.336zm-6.226-.067s1.706.177 2.539.296c.77.108 3.184.479 3.184.479zm0 0c.48.04.959.092 1.438.143.244.024.479.05.713.074l.36.041.354.051 1.427.228.714.119c.234.04.469.085.713.126a17.372 17.372 0 0 1-.713-.092l-.714-.102-1.427-.21c-.12-.018-.235-.042-.354-.059l-.36-.04c-.234-.025-.479-.059-.713-.086-.48-.058-.959-.119-1.438-.194Zm5.553 1.22s-1.821.462-2.437.638c-.604.167-2.436.724-2.436.724l4.873-1.363z" fill="#cfb66c"/><path fill-rule="evenodd" clip-rule="evenodd" d="M8.509 19.91c-.405.118-.807.234-1.217.343l-1.216.326c-.405.119-.807.234-1.21.353l-.605.167c-.2.057-.404.108-.611.166.2-.067.404-.136.604-.194l.605-.193c.405-.126.807-.245 1.21-.37.41-.102.815-.211 1.226-.31.391-.099.802-.197 1.214-.289zM3.89 22.392c.2-.075 2.51-1.152 3.048-1.403.269-.126 1.05-.403 1.05-.403z" fill="#cfb66c"/><path fill-rule="evenodd" clip-rule="evenodd" d="M3.89 22.393c.177-.067.344-.15.514-.227l.503-.235 1.01-.486c.335-.16.662-.336 1.008-.486a6.76 6.76 0 0 1 .53-.193l.269-.085c.092-.024.177-.051.269-.075-.336.16-.69.296-1.026.452-.336.166-.68.302-1.027.452l-1.026.452c-.344.14-.68.289-1.023.431zm.225.941s2.093-1.226 2.813-1.62c.378-.211 1.597-.816 1.597-.816z" fill="#cfb66c"/><path fill-rule="evenodd" clip-rule="evenodd" d="M4.115 23.334c.353-.217.714-.438 1.074-.662l.537-.326c.184-.11.36-.211.548-.32.183-.108.36-.217.547-.32.089-.054.182-.102.278-.142l.286-.142c.377-.184.754-.37 1.152-.53-.36.227-.731.42-1.101.621-.184.102-.37.194-.554.296-.184.102-.36.21-.547.31-.184.108-.36.21-.548.308l-.553.303-1.118.604Zm4.394-2.168s-1.302 1-1.723 1.319c-.421.32-1.662 1.216-1.662 1.216z" fill="#cfb66c"/><path fill-rule="evenodd" clip-rule="evenodd" d="m15.978 29.223-.666-1.26.387-1.577 2.763-1.067-1.176-2.412.58-2.437 1.092-2.182 3.37-.53 2.478-2.361 5.348.404 1.05 5.719-2.021 7.2-1.152 3.728-4.67.177-2.167-1.502-2.539-1.06z" fill="#e2cc85"/><path fill-rule="evenodd" clip-rule="evenodd" d="M24.167 29.183s-.646.295-1.747.227c-.319-.428-2.551-.628-2.551-.628s-.279-.085-.772.119c-.496.201-.965.176-1.403.285-.438.108-.874-.462-1.21-.581-.336-.126-.781-.428-.781-.428l-.94-.092-1.89-.799-3.002-2.99-.815 1.277-.252 1.58.908 1.873 2.443 2.225 4.764 1.21 2.824-.832 3.537-1.495.887-.952z" fill="#f1d789"/><path fill-rule="evenodd" clip-rule="evenodd" d="m7.241 18.615.605-1.832.72-1.183 2.321-.193-.696 2.032-1.94 3.452.805 3.082-1.427.714-.439-.673-.353-1.543-.024-1.733Z" fill="#f4ecb4"/><path fill-rule="evenodd" clip-rule="evenodd" d="m9.844 29.057-.445-.622s-.119-.296-.05-.554c.066-.262.057-.279.023-.377-.034-.099-.32-.439-.302-.73.016-.297-.024-.395.193-.63.228-.227.16-.621.16-.621l.295.183.068-.102s.108.085.108.218c.024-.184-.075-1.033.15-1.227.224-.193.621.907.621.907l-.244-1.597-.629-1.637-1.118-1.496-.067-1.648v-.142s-.513.788-.656 1.41c-.102.429.143.949.092 1.564-.041.612-.092.564.058.806.149.243.513.741.37 1.101-.126.31-.554.092-.554.092s-.085.251-.2.343a.76.76 0 0 0-.167-.336 1.837 1.837 0 0 1-.024.136s-.074-.234-.15-.53c-.1-.394-.21-.914-.308-1.193-.041.16-.143.646-.143.646l.058.748.278 1.026.27.672.26.822.228.552.184.422.16.948.77.815.412.184z" fill="#f3e19d"/><path fill-rule="evenodd" clip-rule="evenodd" d="M7.646 17.12s-.554.94-.714 1.889c-.16.948-.302 1.95-.201 3.241.101 1.302.295 2.1.452 2.671.268.948.965 2.267.965 2.267l.023-.051a3.582 3.582 0 0 1-.278-.697c-.092-.36-.126-.788-.211-.982-.075-.193-.2-.36-.262-.598-.058-.227-.067-.588-.244-.856-.075-.109-.167-.394-.194-.68-.034-.428.017-.907-.024-1.301-.075-.656-.126-1.101-.058-1.444.068-.344.422-1.319.64-2.093.142-.497.057-.915.319-1.346.261-.428.421-.806.479-1.067.067-.238-.693 1.046-.693 1.046Z" fill="#f2e8b0"/><path fill-rule="evenodd" clip-rule="evenodd" d="M10.272 16.742s-.285.085-.42.235c-.137.142-.195.261-.378.503-.184.24-.194.438-.344.74-.149.296-.479.741-.52.9-.04.16-.108.908-.193 1.261-.075.354.085.789.085.789l.193-.041s0 .252.194.422c.194.166.228-.565.228-.565l.724-2.443 1.09-.74.12-.599z" fill="#f5eec0"/><path fill-rule="evenodd" clip-rule="evenodd" d="M10.802 17.85s-.513.034-.764.218c-.102.074-.143.135-.251.227-.2.167-.405.32-.503.538-.11.217-.228.547-.31 1.169-.034.261-.034.503-.057.713-.035.286-.085.513-.058.672.034.326.37.497.403.867l.697-.354.655-2.586 1.394-.873-.789-.884-.417.292z" fill="#e6db9d"/><path fill-rule="evenodd" clip-rule="evenodd" d="m7.127 35.264.009-.077c.102-.874.119-1.536.194-1.95.108-.588.183-.807.166-1.027-.024-.353-.05-.611-.017-.883.051-.36.404-.789.394-1.084-.007-.235-.126-.388-.227-.53-.102-.143-.184-.262-.184-.262s.697-.48.69-2.41c.014.005.028.01.04.018l.344.975.235.285.9 1.679 1.159 1.125 1.712 1.152 1.074 1.168.109 3.116-1.404 1.822-.23.416a19.961 19.961 0 0 1-4.964-3.533Z" fill="#e5cb7a"/><path fill-rule="evenodd" clip-rule="evenodd" d="M11.414 38.245s.024-.387.343-.639c.051.085.085.167.075.228a2.026 2.026 0 0 1 1.376-.924c.915-.167 1.135-.833 1.135-.833l1.94-1.763 2.22-2.042 2.698-.949 1.26-.31s.024.093-.023.297c.234-.017.754-.136 1.294-.326.218-.085.422-.12.53-.007.16.15.184.503.194.713.262-.058.564-.309.806-.285.388.04.73.496 1.125.496.52 0 .754-.32 1.118-.571.218-.15.53-.336.707-.462.421-.31 4.88-1.672 4.88-1.672l1.563.102.251 1.679-.134 4.388-.05.048-7.107 3.712-9.852 1.51a19.761 19.761 0 0 1-6.298-2.166l-.05-.224z" fill="#d8c173"/><path fill-rule="evenodd" clip-rule="evenodd" d="M7.725 35.822c.14-.293.266-.537.288-.625.017.177.05.564.114.976-.136-.116-.27-.232-.402-.35z" fill="#f1d789"/><path fill-rule="evenodd" clip-rule="evenodd" d="m14.921 39.952 1.274-.354.109.034s.058.034.058.15c.16-.093.295-.076.394-.137.05.109.102.47.326.513.234.051.486-.102.74-.295.252-.2.538-.452.755-.554.08.146.15.297.21.452.286-.228.782-1.152 1.489-1.135a2.68 2.68 0 0 1 .982-1.186c.655-.445 1.067-.48 1.58-.439.203-.264.455-.489.74-.662.085.034.32.177.612.04.296-.135.629-.662 1.067-.73a1.03 1.03 0 0 1 .68.143s1.276-1.268 2.157-1.69c-.034-.101-.101-.485.931-1.335.058.051.018.194.058.202.017 0 .27-.109.588-.354.394-.295.867-.604 1.152-.69.537-.159 1.108.167 1.108.167a.509.509 0 0 1 .16-.075 1.97 1.97 0 0 0 .309-.067c-.007.177.091.48 0 .741.106.06.219.108.336.143-.058.125-.184.445-.394.598.176.085.2.183.451.269a4.997 4.997 0 0 0-.343.537c-.075.16-.343.822-.462 1.074-.126.251-.296.714-.377.806-.082.093-.378.486-.605.68a28.718 28.718 0 0 1 1.376-.422l-1.14 1.69a19.94 19.94 0 0 1-16.323 1.89z" fill="#e0cd81"/><path fill-rule="evenodd" clip-rule="evenodd" d="M10.886 17.758s-.295 0-.353.041c-.058.04.296.126.405.167.108.04.343.227.404.377.058.143 2.123.975 2.123.975l1.462-.075.504-.696-.959-.84.672-1.98-.89.143-2.14 1.276-1.075.412z" fill="#dfc57c"/><path fill-rule="evenodd" clip-rule="evenodd" d="M14.095 18.414a.23.23 0 0 0 .202.109c.302 0 .58.075.696.227.194.245.73 1.027.73 1.027l1.285.462.083-1.513-1.403-.975-1.597.588v.075z" fill="#e5cc7c"/><path fill-rule="evenodd" clip-rule="evenodd" d="M13.843 18.975s.235.017.53-.092c.296-.109.782-.343.993-.251.295.125.234.52.553.873.194.218.547.211.748.446.2.234.89.125.89.125l.262 1.411-1.05 1.346-.343 1.672h-1.42l-1.297-.515-.639-1.545.32-1.563Z" fill="#d2c281"/><path fill-rule="evenodd" clip-rule="evenodd" d="M16.59 19.043c.035.01.071.016.108.017-.04.034-.126.108-.092.302s.143.439.051.588c.073.08.128.175.16.279.058.166.075.319.452.343a.795.795 0 0 0-.15.119s.262.228.395.438c.135-.006.496-.118.496-.118l.074.051.16-.067s-.15-.058-.04-.421c.101-.32.193-.303.201-.326.008-.024.075-.36.075-.497.05-.176.091-.713.091-.713l-.108-1.186-.612-.37-.497-.48-.47.883-.308.308-.024.765z" fill="#e2c270"/><path fill-rule="evenodd" clip-rule="evenodd" d="M18.06 18.05s.11.31.15.548a.528.528 0 0 0 .024-.143s.085.469.102.663c.034-.007.067-.017.075.017.007.033.085.41.067.621a1.69 1.69 0 0 1 .57-.57c.137-.085.296-.177.463-.184.262-.007.452.167.764.167.755 0 1.438-.554 1.94-.724.37-.126.69-.218.915-.422a2.39 2.39 0 0 0 .479-.598c.234-.403.479-.754.724-.798a1.52 1.52 0 0 1-.336.024s.075-.075.201-.177c.127-.102.279-.228.496-.228.388 0 .581.058.799.058.217-.007.343-.058.343-.058s.228.16.74.16c.514.007.857.05 1.126.075.268.024 1.168-.075 1.427-.067.168.006.333.047.486.118l-.833-2.419-2.99-2.614-1.781 1.26-2.74 2.74-2.65.982-.554.622v.948h-.006z" fill="#ccb360"/><path fill-rule="evenodd" clip-rule="evenodd" d="M24.007 16.664s.075-.075.2-.177c.126-.101.28-.227.497-.227.387 0 .58.057.798.057.218-.006.344-.057.344-.057s.228.16.74.16c.514.006.857.05 1.125.074.269.023 1.17-.075 1.427-.067.169.006.334.046.486.119l-.377-1.091-.438-.833-1.25-1.37-1.513-.89a20.25 20.25 0 0 0-.52-.142l-1.36.822-1.232 3.191-.024.672.798.377c.2-.336.422-.605.629-.639-.187.02-.33.02-.33.02z" fill="#d5b457"/><path fill-rule="evenodd" clip-rule="evenodd" d="M23.99 16.892c-.118.007-.217-.017-.244-.102-.102-.285-.184-.326-.269-.326-.085 0-.2.183-.269.2-.068.017-.15-.21-.15-.21l-.074-.035s-.438.286-.748.622c-.309.337-.815.908-1.043 1.01-.227.101-1.009.135-1.277.193a1.656 1.656 0 0 0-.604.296c-.041.044.119.091.143.136.023.04-.262.023-.286.067-.017.034.067.227.109.326a.553.553 0 0 1 .234-.058c.262-.007.452.167.765.167.754 0 1.437-.554 1.94-.724.37-.126.69-.218.914-.422.109-.091.302-.295.48-.598.128-.207.254-.4.38-.543z" fill="#d2b257"/><path fill-rule="evenodd" clip-rule="evenodd" d="M13.171 33.709s-.067-.252-.69-.9c-.176-.184-.285-.337-.404-.446-.296-.279-.47-.353-.68-.513-.462-.343-.965-.343-1.352-.764-.387-.422-.839-1.227-1.152-2.05-.31-.822-.394-1.084-.394-1.107 0-.024.085-.184.193-.16.109.024.109.234.136.285.054.084.116.162.184.235.16.183.387.403.503.73a3.303 3.303 0 0 0-.12-.587s.599.377 1.108.77c.514.395.724.531.874.782.15.252.503.915.672 1.108.17.194 2.486.925 2.486.925l1.103.821.547 1.2-.428.672-.823.177-1.335-.598z" fill="#d2b159"/><path fill-rule="evenodd" clip-rule="evenodd" d="M10.204 29.577s.279.445.959.866c.611.37 1.58.707 2.443.908.496.119.992.21 1.437.217 1.2.017 2.025-.326 3.048-.438.554-.058 1.234-.102 1.94-.27.908-.217 1.445-.461 2.175-.805.53-.245 1.017-.428 1.41-.663.555-.326.959-.69 1.428-.798-.058.16-.12.445-.581.74.244-.007.58-.023.58-.023s-.325.193-.9.628c-.353.269-.822.724-1.301 1.026-.31.194-.646.336-.867.452-.537.296-.754.445-1.107.807a.482.482 0 0 1 .136 0s-.446.058-.765.227c-.067 0-.184-.023-.387.034-.16.051-.37.167-.588.228-.31.092-.411.051-.411.051l.05.102s-.403-.007-.537.007c.024.006.017.017.017.017a.209.209 0 0 0-.067.023.702.702 0 0 1-.21.092c-.042.007-.076.007-.127.017.017.04.15.269.211.403-.05.034-.815.612-.815.612a.579.579 0 0 1 .057.119c.024.075.034.183.058.234.058.102.092.12.092.12s-.092.016-.252.057c-.135.034-.302.092-.537.126a2.14 2.14 0 0 1-.218.017c.034.075.184.36-.092.69-.275.329-.36.377-.445.587a.916.916 0 0 0-.136-.085c-.091-.04-.217-.101-.261-.183-.026.109-.06.215-.102.32-.085.227-.21.451-.235.621-.091-.102-.261-.302-.496-.262-.234.041-.421.36-.462.452 0-.057-.04-.102-.05-.034-.008.075-.137.856-.857 1.489-.007-.16-.007-.514-.024-.629-.067.067-.15.167-.639.377-.479.21-.403.422-.403.422s-.04-.336.218-.69c.261-.353.42-.52.42-.547a.152.152 0 0 0-.033-.075c-.034-.034-.102-.075-.102-.102.04-.017.445-.21.421-.612a1.084 1.084 0 0 0-.285-.68c-.017-.016.16-.142.136-.183-.017-.023-.234-.183-.262-.268a.857.857 0 0 1 .034-.15c.024-.075.041-.126.034-.176-.017-.085-.109-.32-.136-.344.024.007.194 0 .194 0s-.136-.217-.16-.32c-.024-.101-.075-.37-.102-.42.058.006.2.016.2 0 .008-.052-.125-.136-.066-.202.04.007.118.04.193.136-.04-.109-.108-.32-.251-.404.067-.024.295-.086.496.033.2.12.269.286.269.286s.119.092.302.228c.21.166.48.403.907.57.092.051.326.051.496.017a.767.767 0 0 0 .211-.085.386.386 0 0 1 .075-.034 1.63 1.63 0 0 0-.126-.21c.058 0 .126.007.126.007s.04-.092-.143-.27c.041-.04.092-.066.092-.135-.058-.007-.16-.092-.183-.126.033-.024.084-.102.142-.126-.05-.04-.177-.21-.234-.227a1.07 1.07 0 0 0 .16-.075s-.286-.075-.378-.136c-.092-.067-.227-.183-.309-.217-.085-.034-.234-.051-.296-.12.058.018.15 0 .218 0 .05 0 .075.007.092.007-.007-.023-.007-.074.125-.091a.62.62 0 0 0 .184-.058s-.126-.007-.269-.143c-.143-.136-.261-.244-.343-.261-.085-.017-.245.058-.343.05-.136-.016-.194-.084-.194-.084s-.452.04-1.454-.571c-.867-.53-1.244-1-1.244-1a1.487 1.487 0 0 1-.234-.108c-.326-.17-.779-.523-.765-.986z" fill="#c2a44d"/><path fill-rule="evenodd" clip-rule="evenodd" d="M22.706 9.182a.441.441 0 0 1 .201.136c.16.183.262.53-.102.9.143.05.202.067.327.05-.126.15-.412.47-.429.749-.017.227.126.295.126.295s-.217.252-.227.672a2.72 2.72 0 0 1 .336-.32c.251-.2.598-.427.832-.57-.003.06.005.12.024.177 0 0 .438-.36.806-.2.167.074.092.308.092.308s.228-.085.387.075c.16.16.386.572.502.732.05.074.183.217.319.438.186.31.34.636.462.975.007-.177.051-.452.554-.279.503.177 1.074.548 1.553 1.277.48.73.598 1.553.84 1.867.244.302.495.805.512 1.016.017.21-.075.89.428 2.729.143-.571.36-1.839.36-1.839l.12-1.118.136-3.459-3.613-3-2.823-2.05-1.839.177.116.261z" fill="#caa13e"/><path fill-rule="evenodd" clip-rule="evenodd" d="M29.417 14.33s-.051-.337-.9-.908c-.85-.564-1.513-.564-2.124-1.043-.47-.377-.959-1.244-1.277-1.53-.31-.281-.36-1.097-.36-1.097l1.043-.873 1.551-2.243 1.312-1.444.629.874.873 1.026.486 2.06.177 3.013-1.412 2.165z" fill="#b59544"/><path fill-rule="evenodd" clip-rule="evenodd" d="M30.467 17.942a3.831 3.831 0 0 0-.166-1.352c-.224-.697-.714-1.934-.941-2.397-.092-.513-.024-.554.075-.611.098-.058.469-.27.672-1.01.202-.74.832-.764.832-.764l.387-.285.588 1.47.513 1.33.16 1.016.119.866-.279 1.832-1.376 1.243z" fill="#c89d3a"/><path fill-rule="evenodd" clip-rule="evenodd" d="M11.265 38.358v-.038a.288.288 0 0 0 .074-.067c.024-.034.041-.075.058-.085a.64.64 0 0 1 .279-.051c.085.016.31.108.428.102.245-.007.53-.194.982-.109.68.126.84.588 1.234.85.268.183.547.101.587.101H15c.017 0 .143-.142.21-.135.137.006.15.119.235.125.2.024.588-.102.782-.05a.373.373 0 0 1 .153.621c-.21.194-.411.377-.452.538.052.04.102.081.149.126a19.786 19.786 0 0 1-4.811-1.926v-.002z" fill="#ceb052"/><path fill-rule="evenodd" clip-rule="evenodd" d="M29.36 31.568s.53-.707.713-1.057c.183-.36-.581-4.93-.581-4.93l1.536-5.033-.041-1.637s.075-1.513.251-2.169c.211.378.867.833 1.01 1.074.067-.462.295-1.437.261-2.477.126.194.428 2.14.428 2.14l.303 1.312.394 1.394.438 1.471.262 1.016.15.245.125.428.12.462.342 1.084.202.89.16 1.614c.035.124.06.25.075.378.006.176-.024.278-.024.309 0 .03.058.387.034.656-.034.269-.034.479-.245.672-.21.193-.343 1.345-.343 1.345l-.377-.25s.075-.344-.102-.657a.663.663 0 0 0-.714-.326c-.194.04-.58.102-.707.21-.119.11-.41.446-.68.599-.335.201-.883.217-1.175.285-.296.067-.622.269-.965.503-.27.174-.553.324-.85.448z" fill="#cca847"/><path fill-rule="evenodd" clip-rule="evenodd" d="m29.36 38.993.065.038a19.96 19.96 0 0 0 6.361-4.715c-.019-.688-.044-1.393-.072-1.654-.058-.554-.017-1.118-.034-1.444-.017-.326-.2-1.655-.285-1.998-.092-.343-.27-.513-.296-.513-.024.007-.167.645-.167.806 0 .16-.034.547-.034.646-.024-.007-.034-.067-.034-.092-.034.085-.074.235-.091.252-.017.017.023-.143 0-.177-.024-.034-.068-.017-.058-.102.004-.05.012-.1.024-.15 0 0-.102.15-.177.53-.075.378-.075.388-.102.422-.024.04-.16.177-.166.228-.007.091.125.183.136.234.006.085-.12.48-.16.672-.041.193-.024.57-.068.764-.033.177-.067.28-.183.354.085.017.166.04.166.04s.12.503-.183.932c-.109.15-.136.217-.251.353-.228.252-.405.538-.422.724a1.215 1.215 0 0 1-.024-.167s-.353.412-.502.646c-.194.303-.463.285-.538.36-.075.075-.092.21-.067.32-.068.017-.194.04-.279.302a.637.637 0 0 1-.302.36c-.16.092-.354.12-.452.143.085.024.119.024.16.05-.052.086-.286.218-.548.388-.261.16-.387.394-.452.547-.067.143-.166.235-.326.252.067.04.167.136.218.166-.075.017-.202.017-.428.211-.238.197-.32.255-.429.272z" fill="#c39d3c"/><path fill-rule="evenodd" clip-rule="evenodd" d="M24.631 40.568a1.9 1.9 0 0 1 .42-.223c.53-.21 1.09-.251 1.311-.32.21-.066.377-.16.639-.21l-.02.169c-.77.242-1.556.437-2.351.584z" fill="#d2ba6b"/><path fill-rule="evenodd" clip-rule="evenodd" d="M34.406 26.627s-.108.588-.302.959c-.194.37-.403.883-.403.883.001-.116.015-.23.04-.343-.244.142-.839.486-1.007.639-.16.142-.429.394-.497.513.16-.47.327-.89.354-1.084-.245.177-1.387 1.118-1.981 1.74l-1.852 1.498a6.404 6.404 0 0 1-.66.309c-.319.136-.696.251-.974.36.074-.2.193-.377.36-.547.176-.167.706-.741.788-1.008.075-.279.092-.445-.007-.68-.092.024-.302.034-.445.075-.143.04-.296.194-.296.194s.11-.622.344-1.21a5.05 5.05 0 0 0-.48.058s.422-.707 1.143-1.2a3.72 3.72 0 0 0-.646.2c-.421.177-.883.439-1.226.581.193-.268 1.553-2.208 2.361-4.016.807-1.804 1.108-2.266 1.285-3.235.091-.479.067-1.187.091-1.821.024-.629.102-1.193.051-1.57.211.261 1 .999 1.027 2.647.023 1.648-.755 3.874-1.58 5.073.201.058.723.126 1.26-.806s.53-1.193.724-1.58c.024.193.017.261.017.261s.782-.948 1.152-2.14c.075.513.296.965-.051 1.906-.31.85-.714 1.057-.714 1.057s.2-.034.496-.21c.051.125.041.268.126.319.085.05.2.135.218.217.091-.136.234-.31.278-.438-.034.268-.057 1.444.068 2.042.261-.024.53-.04.713-.513-.125.462-.125.74-.04 1.135.139-.095.265-.265.265-.265z" fill="#c0993a"/><path fill-rule="evenodd" clip-rule="evenodd" d="M25.577 7.897s-.261.109-.707.109c-.387 0-.278-.15-.883-.15-.93 0-4.183.538-4.754.53-.37-.006 1.25.16 1.25.16l4.143.058.832-.067.31-.63-.19-.01z" fill="#a88f33"/><path fill-rule="evenodd" clip-rule="evenodd" d="M14.836 15.995s-.53.404-.755.713c-.224.31-.343.513-.598.765a.53.53 0 0 0 .177-.024s0 .067-.04.085a.237.237 0 0 1 .193.067c-.075.041-.279.245-.119.486.119.184.37.2.37.2s-.057.167.184.15c.52-.024 1.1-.251 1.37-.194.268.068.42.092.611.422.202.326.377.377.377.377s.12-.302.092-.754c.098-.244.152-.503.16-.765l-.177-1.301-.771-.975-1 .553-.074.194z" fill="#e3c571"/><path fill-rule="evenodd" clip-rule="evenodd" d="M15.784 15.801s.075.177.388.194c-.035.074-.035.085-.024.142l.017.143a.319.319 0 0 0 .091-.067c.017.075-.017.193 0 .278.01.052.028.102.051.15a.305.305 0 0 1 .017-.034c.007-.017.067.183.235.336 0-.024.005-.047.017-.067a.236.236 0 0 0 .04.119.125.125 0 0 1-.034-.024s.017.538.11.816a.382.382 0 0 0 .04-.058c0-.017-.007.15-.024.268-.024.12-.007.286-.007.286a.896.896 0 0 1 .2-.12c.103-.04.27-.166.371-.444.06-.158.105-.32.136-.486a.68.68 0 0 1 .067.201c.007.085.167.041.167.041l.034-.37.202-.84.183-.52.884-1.376 1.596-1.229 1.393.32 1.176-1.598-2.026-1.216-1.916.2-1.74 2.41-1.393 2.184-.251.36z" fill="#d8b65b"/><path fill-rule="evenodd" clip-rule="evenodd" d="M25.822 12.315s-.12.023-.462.201c-.343.178-.581.235-.714.496-.133.262-.143.47-.143.47s.235-.103.37-.137c.143-.034.303-.024.286.034a.392.392 0 0 1-.067.109s.269-.007.262.126a.702.702 0 0 1-.102.343c-.051.067-.262.167-.285.245-.058.16.023.166-.007.295-.024.126-.136.37-.503.799-.378.428-.538.73-.538.73s-.183-.343-.279-.638c-.067.034-.428.234-.428.234l-.835-2.912.016-.194s.075-.091.092-.261c-.125-.041-.143-.075-.31-.235-.166-.16-.302-.353-.58-.486-.04-.075-.092-.176-.296-.217-.204-.041-.326-.075-.326-.075s.109-.04.16-.126c-.126.017-.228.058-.503.051-.279-.007-.31-.017-.462.007-.153.024-.336.092-.404-.143-.075-.058-.235-.006-.371.194s-.183.36-.445.438a.911.911 0 0 1-.119.326c-.075.126-.194.252-.354.439-.251.295-.21.781-.611 1.152-.405.37.067-1.027.067-1.027l.645-1.545 1.839-1.798 2.854-.193.279 1.478 1.393.48.88 1.341v-.001z" fill="#d3ae4d"/><path fill-rule="evenodd" clip-rule="evenodd" d="m26.274 12.64-1.2-1.729-.839-.646s-.598-1.1-.639-1.134c-.034-.024-.598-.085-.958-.109l.067.166a.441.441 0 0 1 .202.136c.16.184.261.53-.102.9.143.052.201.068.326.052-.126.15-.411.469-.428.748-.017.227.125.295.125.295s-.217.251-.227.672c.103-.116.215-.223.336-.32a8.73 8.73 0 0 1 .832-.57.48.48 0 0 0 .024.176s.438-.36.807-.2c.166.075.091.31.091.31s.228-.086.388.074c.16.16.387.57.503.73.05.075.183.218.319.439.185.31.34.636.462.975.007-.136.034-.326.269-.326l-.357-.639Z" fill="#caa13e"/><path fill-rule="evenodd" clip-rule="evenodd" d="M8.291 17.554s-.085-.21 0-.621c.085-.411.218-.605.262-1.21.044-.605.438-1.36.438-1.36l1.091-.495.771.21.228 1.034-.975.537s-.051.228-.326.411c-.276.184-.656.326-.748.513a1.496 1.496 0 0 0-.119.36s-.278-.057-.445.126c-.177.187-.17.354-.177.496z" fill="#f4efc8"/><path fill-rule="evenodd" clip-rule="evenodd" d="M10.493 17.28s-.091.057-.16.2c-.067-.108-.227-.754-.234-1.335-.007-.58-.041-.725.093-.925.134-.2.662-.411.587-.772-.075-.343-.388-.486-.772-.387-.269.067-.469.639-.747.924-.211.217-.462.183-.53.302-.092.16-.007.32-.034.422a2.034 2.034 0 0 1-.245.438c-.31.445-.833 1.074-.9 1.638.023-.32.006-.326.091-.68l-.05-.085.335-1.1.218-.908.486-1.519.856-1.553.832-.93.867.057.102 1.301.496 2.444 1.043 1.284-1.672 1.125-.662.058z" fill="#ebcc73"/><path fill-rule="evenodd" clip-rule="evenodd" d="M11.013 17.74s-.143.035-.194.008c-.05-.027-.101-.058-.085-.092.017-.034.11-.092.11-.119a.095.095 0 0 0-.086-.102c-.078-.01-.102.04-.102.04s-.074-.057-.135-.066a.941.941 0 0 1 .108-.007 1.055 1.055 0 0 0-.295-.085c.085-.051.251-.2.36-.2.108 0 .176-.018.16-.075-.018-.058-.102-.143-.194-.177.034-.04.058-.102-.024-.269-.085-.166-.05-.279-.023-.319.023-.051.108-.143.149-.2.04-.058.075-.137.143-.177.034-.024.142-.068.251-.109.12-.04.218-.092.285-.04.075.05.041.118.041.118s.235-.085.445.024c.211.102.724.166.724.166l.184.37-1.216 1.044-.503.252-.102.016z" fill="#e5c66b"/><path fill-rule="evenodd" clip-rule="evenodd" d="M12.702 16.035s-.377.252-.462.344c.05.007.136.04.101.091-.04.051-.285.228-.42.395a2.603 2.603 0 0 0-.327.479c-.05.091-.438.36-.57.394.278 0 .839-.343 1.05-.343-.008.102.057.217.176.227.119.01.462.075.924-.21.462-.279.31-.486.503-.622.37-.245.52-.462.724-.598.204-.136.31-.167.31-.167s.006-.102.066-.091a.092.092 0 0 1 .075.057s.354-.251.806-.32a.047.047 0 0 1-.023-.023s.034-.017.04-.034c0 0 .024-.034.041-.017s.041.143.075.194c.075-.034.218-.354.218-.354l.343-.982v-.897l-.269.051-2.016.857-1.223 1.267-.143.302z" fill="#e6bd62"/><path fill-rule="evenodd" clip-rule="evenodd" d="M18.506 11.635a1.13 1.13 0 0 0 .31-.126c-.04.109-.04.228-.217.486-.177.259-.184.296-.327.564-.142.279-.16.68-.295.856a.59.59 0 0 1 .193-.057s-.136.119-.193.244c-.058.126-.16.388-.411.548-.252.16-.571.261-.915.639-.343.37-.696.839-.873 1.008.092-.16.217-.48.251-.69.035-.21-.006-.463.051-.741.058-.278.058-.48.336-.965.279-.486.755-2.175.755-2.175l1.026-.326.31.734z" fill="#b6933f"/><path fill-rule="evenodd" clip-rule="evenodd" d="M17.765 11.013s-.31.445-.394.84c-.085.394-.007.36-.058.553a.723.723 0 0 0 0 .36c.107-.172.254-.316.428-.42.292-.177.53-.303.672-.453.142-.16.261-.421.57-.622-.125-.017-.302-.074-.335-.067.125-.142.502-.36.883-.622.377-.268.354-.377.965-.645-.2.034-.295-.017-.462 0 .067-.143.302-.21.538-.445.235-.235-.15-.581-.15-.581L18.63 9.995l-.866 1.02z" fill="#c49937"/><path fill-rule="evenodd" clip-rule="evenodd" d="m12.902 10.204.041-.326.513-.822.537-1.444V5.637l-.04-1.141.084-.748.065-.238.068-.092.438.228.605.822.058 1.587-.588 2.505-1.679 1.831z" fill="#dfc068"/><path fill-rule="evenodd" clip-rule="evenodd" d="M14.238 3.327s-.269.007-.326 1.125c-.058 1.118-.085 1.705-.126 2.26-.04.553-.136.89-.184 1.216-.047.326-.074.771-.227 1.043-.067.126-.211.52-.547.816a3.37 3.37 0 0 1-1.027.57c-.15.034-.907.11-1.216.28-.109.057-.296.125-.503.319-.411.37-.958 1.033-1.353 1.831-.604 1.193-1.21 4.56-1.21 4.56l.137-.227s.017-.303.32-.833c.295-.53.21-1.125.621-2.14.16-.388.36-.89.605-1.32.387-.696.856-1.294 1.329-1.62.77-.53 1.62-.646 1.62-.646l.915-.604s.16-.31.37-.663c.296-.496.672-1.05.754-1.855.126-1.193-.176-1.975-.16-2.681.018-.707.024-1.227.167-1.353.143-.126.041-.078.041-.078Z" fill="#a88f33"/><path fill-rule="evenodd" clip-rule="evenodd" d="M14.238 8.662s.403-.993.588-1.873c.034-.177.102-.353.119-.496.085-.832.108-1.175 0-1.63-.085-.337-.411-.64-.581-.874-.167-.245-.245-.336-.211-.388a.377.377 0 0 1 .295-.126 1.012 1.012 0 0 1 .724.336c.262.303.47 1.33.47 1.33l.217 1.353L16.413 8l-2.175.663Z" fill="#c99e3d"/><path fill-rule="evenodd" clip-rule="evenodd" d="M18.027 7.629s-.075.034-.21 0a.303.303 0 0 1-.137.285c-.143-.058-1.478.058-1.478.058s-.622-.109-.816-.931c-.136-.547.102-1.302.024-1.798-.12-.73-.286-.873-.303-1.1-.017-.228-.034-.286-.034-.429-.074-.017-.119-.04-.193-.04-.017-.068.017-.127-.058-.245.04.017.32.05.646.36.268.251.268.343.309.394.05.05.462.403.639.754.177.352.52 1.472.598 1.655.024.075.075.15.201.32.198.244.486.65.813.716h-.001z" fill="#b58634"/><path fill-rule="evenodd" clip-rule="evenodd" d="M15.825 4.2c.206.333.39.678.554 1.033.2.452.32.822.57 1.125-.135-.394-.377-1.169-.52-1.444-.159-.292-.485-.605-.604-.714Z" fill="#a88f33"/><path fill-rule="evenodd" clip-rule="evenodd" d="M13.514 9.787s-.343.084-.982.42c-.21.11-.41.201-.605.286-.503.228-1.043.438-1.471.554.034.041.05.058.05.058s0 .166.093.261c-.051.052-.731.514-.53 2.06.135-.051.295-.12.319-.12.04.008.05.12.102.12.05 0 .217-.068.394-.296-.007.092-.109 1.016.438 1.638.102-.12.36-.513.36-.513l.007-.126s.024-.438.167-.84a2.23 2.23 0 0 1 .421-.696l1.454-2.076z" fill="#e6c367"/><path fill-rule="evenodd" clip-rule="evenodd" d="M12.155 12.835a.801.801 0 0 1-.218.109.84.84 0 0 1 .143-.663c.235-.343.748-.788.89-1.142.092-.228.051-.799.867-1.53.816-.73 1.135-.981 1.135-.981l1.318-.663 1.621.639-.805 3.156-.625 1.478-2.487-.468-1.84.065z" fill="#dcba5a"/><path fill-rule="evenodd" clip-rule="evenodd" d="m13.104 11.978.31-.387v-.275s.343-.092.713-.47c.37-.377.883-1.1 1.335-1.056.452.05.496.982.514 1.244.016.261.074.856.166 1.175.102.32-1.101 1.53-1.101 1.53l-.817.621z" fill="#e9ce77"/><path fill-rule="evenodd" clip-rule="evenodd" d="M14.061 15.203s.252-.394.067-.48a2.91 2.91 0 0 1 .31-.502s.142-.353.604-.788c.462-.435.748-.724.823-1.016.046-.19.071-.386.075-.582.05.041.103.078.16.11.074.033.427.325.377.913-.051.588-.27.833-.27.833s-.21.21-.36.32c-.16.108-.217.234-.485.244a.323.323 0 0 1 .091-.051s-.278-.034-.428.102c-.15.136-.468.554-.627.68-.16.101-.336.217-.336.217z" fill="#cdae50"/><path fill-rule="evenodd" clip-rule="evenodd" d="M25.36 8.594a4.093 4.093 0 0 0-1.25-.245c-.714-.024-1.758.017-2.78.024-1.101.006-2.1-.378-3.487-.445-.227-.136-.806-.731-2.613.53.109-.007 1.312-.28 1.73.244.421.52.302 1.404.244 1.614-.108.47-.462 1.152-.604 1.631-.143.48-.11.731-.211 1.067-.102.336-.326.503-.194.89.177-.108.269-.108.564-.77.296-.663.235-1.136.724-1.696.48-.564 1.277-1.336 1.58-1.53.304-.193 2.712-1.444 5.233-.25.608-.065 1.064-1.065 1.064-1.065z" fill="#d2a83e"/><path fill-rule="evenodd" clip-rule="evenodd" d="M16.246 8.131a.31.31 0 0 0-.017-.075.543.543 0 0 0-.092-.136s-.598-.108-.9-.074c-.53.057-1.01.713-1.234 1.05-.224.336-.502.856-.805 1.124a.112.112 0 0 0-.017-.074s.017.023-.017.057-.034.051-.017.068l.051.05c.017 0 .486-.21 1.125-.806.68-.622 1.2-.94 1.471-1.05a2.07 2.07 0 0 1 .452-.134z" fill="#c29637"/><path fill-rule="evenodd" clip-rule="evenodd" d="M27.847 5.576s-.109.136-.245.286c-.302.319-.696.679-1.033 1.05-.319.353-.68.628-1.084 1.09-.404.462-.873.975-.992 1.125-.109.15-.194.394-.194.52-.057-.04-.125-.085-.125-.085a.849.849 0 0 0 .102.15c.085.119.217.269.285.36.084.116.144.248.177.387.04.007.302.058.628-.479.327-.537.755-1.125.755-1.125l.68-1.009.428-.856.537-.958.082-.456z" fill="#ac8132"/><path fill-rule="evenodd" clip-rule="evenodd" d="M28.544 4.89s-.411.336-.571.538c-.16.201-.538.73-.538.73l.136-.017.69-.611.269-.48Z" fill="#a88f33"/><path fill-rule="evenodd" clip-rule="evenodd" d="M28.418 31.894s-.007-.278.15-.445c.16-.167.564-.411.958-1.329.394-.917.438-1.124.438-1.124s-.707.605-1.142.747c.102-.21.16-.36.21-.469-.057-.05-.302-.108-.326-.136.136-.136.21-.469.486-.69.354-.268 1-.73 1.5-1.142.503-.412 1.49-1.37 1.615-1.648a.614.614 0 0 1 .092.177s-.496.645-.755 1.056c-.227.354-.21.554-.21.554l.469-.201s.136.503-.48 1.267c.27-.101.378-.04.53-.125-.25.16-.598.377-.924.975-.319.598-.754 1.294-1.488 1.73-.713.458-1.125.801-1.125.801z" fill="#a67a2e"/><path fill-rule="evenodd" clip-rule="evenodd" d="M26.576 8.947s-.278.581-.32 1.033c-.006.109-.033.194-.033.32-.007.404.024.856-.067 1.066-.034-.085-.051-.142-.085-.176-.051.143-.143.588-.218.754a3.538 3.538 0 0 1-.102-.93c.007-.446.017-.531.017-.623-.017.136-.109.32-.143.428-.05-.091-.108-.21-.176-.309-.041.068-.092.167-.136.218a3.08 3.08 0 0 1-.034-.303c-.007-.176-.017-.404-.007-.452.017-.091.16-.451.462-.781.36-.394.73-1.152.84-1.386.108-.235.57-1.21.57-1.21h.354l-.513 1.169s-.31.639-.47.873c-.159.235-.495.908-.645 1.17.109-.143.2-.218.31-.354.105-.095.397-.506.397-.506z" fill="#8c6228"/><path fill-rule="evenodd" clip-rule="evenodd" d="M28.55 4.846a1.463 1.463 0 0 1-.268.486c-.211.251-.663.587-.884.856-.201.261-.604.975-.421 1.821.067-.183.194-.547.53-.958.336-.411.697-.884.874-1.25.176-.371.2-.663.2-.663l.067-.085-.04-.194-.059-.013h.002z" fill="#cba94c"/><path fill-rule="evenodd" clip-rule="evenodd" d="M35.432 27.385s-.136-.37-.177-.707c-.04-.336.067-.403-.058-.788-.075-.235-.21-.202-.245-.235-.033-.033-.057-.387-.05-.58.006-.194-.007-.446-.041-.555-.051-.04-.085-.074-.16-.326-.085-.251-.126-.377-.166-.452-.041-.074-.16-.142-.16-.217 0-.15.136-.228.136-.269-.007-.085-.11-.017-.136-.04-.034-.041.085-.286.04-.32-.016-.017-.135.126-.166.085-.034-.04-.075-.445-.136-.714-.058-.261-.119-.451-.126-.53-.006-.074-.469-1.393-.58-1.712a8.097 8.097 0 0 1-.228-.823c-.034-.16-.058-.486-.075-.452-.017.034-.007.2-.034.194-.024-.007-.109-.588-.136-.68-.024-.091-.167-.403-.201-.628a64 64 0 0 1-.16-1.227c-.051-.404-.075-.57-.075-.672a4.19 4.19 0 0 0-.04-.74 6.898 6.898 0 0 0-.32-1.251c-.228-.571-.833-2.032-.941-2.396 0-.091.119-.04.119-.04s.295.74.513 1.311c.21.571.411 1.074.462 1.125.04.05.36.611.503 1.529.143.917.194 1.764.279 2.328.04.268.075.553.16.839.091.31.234.629.42 1.118.16.411.28.754.344 1.05.075.377.075.663.119.85.04.16.102.479.245.94.143.462.353 1.057.496 1.428.279.74.403 1.359.445 1.689.037.34.163 1.515.129 1.868z" fill="#a88f33"/><path fill-rule="evenodd" clip-rule="evenodd" d="m28.568 4.805-.017.04s.05.018.04.086c.001.093-.005.186-.017.278-.017.12-.05.21-.057.286 0 .16.024.343-.202.798-.067.126-.109.235-.143.31-.084.183-.101.21-.176.295.119-.067.547-.336.764-.296-.15.085-.377.252-.52.47.034.006.177.034.404 0 .377-.058.798-.194 1.168-.167.405.024.245-.486.245-.486l-.467-1.026-.883-.622-.14.034Z" fill="#be9c44"/><path fill-rule="evenodd" clip-rule="evenodd" d="M30.872 12.491s-.395-.394-.555-1.747c-.16-1.36-.125-3.36-.125-3.36l-.32-.781s-.067-.52-.234-.714c-.167-.193-.496-.52-.646-.68-.15-.16-.32-.377-.421-.41.05-.086.279-.565 1.152-.571.873-.007 1.142.479 1.233.655.091.177.503.941.656 2.397.143 1.454.15 1.563.126 2.066-.017.279-.109.924-.269 1.614-.146.585-.306 1.237-.598 1.533v-.002z" fill="#a17c34"/><path fill-rule="evenodd" clip-rule="evenodd" d="M29.635 13.65a.66.66 0 0 0 .377-.085c.126-.007.581.051.931-.394.024.102.085.377-.075.622.086-.085.211-.12.228-.143.007.126.126.513-.377 1.454.136-.15.296-.142.438-.16.007.177.102.772-.15 1.091-.166.218-.438.15-.438.15a.85.85 0 0 0 0-.143c-.006-.092-.04-.183-.016-.244a1.219 1.219 0 0 1-.354-.245c-.295-.279-.68-.754-.707-1.108-.034-.394.32-.479.32-.479a.379.379 0 0 1-.075-.092c-.017-.058-.034-.15-.102-.224Z" fill="#8c6228"/><path fill-rule="evenodd" clip-rule="evenodd" d="M27.014 9.375s-.017-.023-.108.085c.017-.108.034-.21.04-.31.044-.09.1-.175.167-.25-.05.101-.085.193-.085.193s.126-.234.31-.377c.125-.102.285-.15.353-.245.075-.102.057-.119.075-.136 0 0 .166-.108.421-.428.034-.04.085-.085.119-.126a5.43 5.43 0 0 0 .353-.166c.167-.092.354-.218.47-.27.227-.101.468-.09.58-.25.085-.024.177-.28.16-.497.126.051.771.452.992 1.329.16.622-.126 1.58-.245 2.042-.118.463-.135.806-.302 1.016-.21.28-.89.672-1.057.867-.142.16-.57.564-.554.856.017.217.286.336.344.377.058.041.057.092.166.067.109-.024.15-.074.194-.074.05.006.05.017.075.017a.244.244 0 0 0 .05-.007s-.016.309-.74.403c-.051.007-.102.024-.167.034.085-.04.136-.04.228-.167-.102-.017-.394-.034-.47-.057a.905.905 0 0 1 .167-.2c.058-.052-.006-.068-.057-.042-.088.06-.172.125-.252.194-.085.075-.16.177-.295.269a.662.662 0 0 1 .125-.581c-.04.006-.119.125-.193.102a1.082 1.082 0 0 1 .023-.37c.041-.154.262-.422.262-.422l1.067-1.907.228-1.444Z" fill="#92723a"/><path fill-rule="evenodd" clip-rule="evenodd" d="M26.957 9.457s-.058.04.058.119c-.017.024-.058.108-.11.166-.057.067-.118.11-.142.167-.05.119-.091.2-.091.251 0 .051-.018.378-.16.588-.051.075-.11.2-.15.286-.085.149-.16.268-.177.336a3.527 3.527 0 0 0-.057.445l.102-.126c-.041.085-.085.177-.15.245.04-.034.16-.12.36-.296.279-.234.714-.629 1.244-.94-.16.057-.296.057-.404.074.085-.085.85-.982 1.25-1.067a.16.16 0 0 0 .034-.109l-.343-.034-.697.15-.102-.538-.465.282Z" fill="#b18e3e"/><path fill-rule="evenodd" clip-rule="evenodd" d="M28.065 12.515s-.092.092-.177.32a1.065 1.065 0 0 1-.167-.228c-.125-.21-.319-.48-.77-.326-.008-.143-.018-.218 0-.32.074-.017.302-.2.53-.469.159-.183.308-.394.41-.662.068-.051.184-.136.336-.235.218-.15.48-.353.52-.58-.102.04-.32.142-.645.125.125-.058.319-.119.295-.37a1.34 1.34 0 0 1 .092-.058.336.336 0 0 0-.119-.017c-.007-.024-.017-.058-.075-.041-.058.017-.067.017-.075.04-.023.008-.101 0-.16.042-.057.04-.217.176-.278.2.024-.04.058-.102.058-.102s-.167.017-.286.067c-.217.075-.469.211-.723.344.023-.041.034-.068.05-.075.017-.008.058-.017.058-.024 0-.007-.017-.067-.007-.091.077-.162.167-.317.27-.463.118-.16.142-.387.142-.387l.52-.262 1.461-.336.948.058-.119.656-.56 1.145-.479 1.043-.547.64z" fill="#543e26"/><path fill-rule="evenodd" clip-rule="evenodd" d="M30.433 9.677s-.57.707-.73.815c.101-.217.73-1.512.958-1.872-.051-.04-.12-.04.04-.672-.135.32-.183.486-.295.57-.112.086-.126.059-.202.059a.142.142 0 0 0 .017-.085s-.479-.058-.806-.058c-.328 0-.975.177-1.336.32-.285.118-.445.118-.547.193-.102.085-.16.177-.21.2-.041.024-.235.085-.28.15-.04.067-.108.142-.108.16 0 .016-.017.04.034.023.017-.007.143-.075.286-.16.193-.108.428-.234.598-.309.486-.193.639-.16.856-.2.227-.041.554-.136.771-.136.218-.007.629 0 .724.017-.04.034-.075.075-.058.217 0 .041-.034.085-.067.184-.102.278-.295.74-.403.975-.15.32-.32.588-.403.754-.084.167-.27.605-.452.84-.183.234-.279.377-.336.428-.058.051-.47.353-.439.462a2.27 2.27 0 0 0 .89-.588c.344-.386.412-.622.68-.832.269-.211.48-.564.605-.856.105-.272.082-.357.214-.599z" fill="#806031"/><path fill-rule="evenodd" clip-rule="evenodd" d="M18.129 14.952s-.075.309-.245.462c-.166.15-.462.278-.496.53-.04.251.296.377.296.377s-.184.302-.184.53c0 .235-.007.279.017.503a.223.223 0 0 0-.067.067s.017.218.183.353c.167.136.31.218.394.184a.811.811 0 0 1 .034.085s.126-.32.211-.598c.085-.285.16-.245.194-.629s.403-1.043.403-1.043l.252-.563-.411-.32-.581.061z" fill="#b6903c"/><path fill-rule="evenodd" clip-rule="evenodd" d="M18.893 15.505a2.4 2.4 0 0 0-.234.279c-.108.15-.193.285-.353.343-.16.058-.262.058-.252.218.01.16.16.227.245.309a.398.398 0 0 1 .126.387c.05-.023.143-.05.227-.234.085-.183.68-1.301.68-1.301h-.439z" fill="#685026"/><path fill-rule="evenodd" clip-rule="evenodd" d="M21.235 12.926s.051-.136 0-.234c-.05-.102-.36-.136-.513-.252-.16-.119-.354-.201-.513-.15.024-.057.119-.183.04-.21-.074-.024-.353.102-.427.16-.075.058-.245.126-.28.166-.033.041-.091.12-.125.085-.034-.023-.05-.085-.109-.05-.058.033-.336.26-.387.393a2.017 2.017 0 0 1-.513.765c-.347.336-.496.554-.394.68.102.125.15.034.166.142a.918.918 0 0 1-.017.32c-.04.177-.108.343-.017.377.235.075.463-.067.513-.024.102.092-.057.422.184.486.245.067.486-.058.486-.058l.89-.479.857-.452.438-.866-.235-.724-.045-.075z" fill="#d4b968"/><path fill-rule="evenodd" clip-rule="evenodd" d="M20.395 14.996s-.15-.228.034-.429c.184-.2.445-.285.547-.41a.157.157 0 0 0-.075-.052.677.677 0 0 1 .296-.278.283.283 0 0 0-.193-.092c-.167 0-.27.102-.422.102-.15 0-.166-.075-.166-.075s.251-.024.227-.136c-.024-.119-.067-.119-.067-.119s.486-.201.57-.309c.086-.107.075-.234.093-.285.057 0 .394-.177.53-.102s.04.278.04.278.412-.309.621-.612c.184.017.27-.126.404-.126.166 0 .428.228.479.714.034.278.085.438.034.93-.024.28-.017.874.067 1.17.058.234.194.21.194.21a.38.38 0 0 1-.12.184c-.091.085-.101.31-.091.394.013.062.03.123.05.184 0 0-.108.125-.135.21-.024.085-.136.143-.218.143-.081 0-.04-.007-.149 0-.109.007-.143.024-.21 0-.069-.024-.12-.051-.092-.269.023-.217-.84-.724-.84-.724l-1.41-.502h.002z" fill="#cca849"/><path fill-rule="evenodd" clip-rule="evenodd" d="M18.774 17.143s.31.411 1.58.411c.605 0 .816-.057.941-.091.136-.035.646-.235 1.159-.84.462-.547.36-.771.36-.771l-.269-.04-.873.118-2.585 1.101-.314.112z" fill="#585136"/><path fill-rule="evenodd" clip-rule="evenodd" d="M19.722 17.245s-1.1.245-1.1-.452c0-.68.679-1.393.849-1.519.177-.125.598-.268.598-.268h1.016l.194.513-.085 1.107z" fill="#252211"/><path fill-rule="evenodd" clip-rule="evenodd" d="M20.738 15.213s-.21-.194-.69.067c-.478.261-.866.807-.89 1.302-.024.438.36.765.958.782a3.05 3.05 0 0 0 .85-.068c-.034-.04-.21-.261-.21-.261l-.017-1.822z" fill="#c3b378"/><path fill-rule="evenodd" clip-rule="evenodd" d="M20.531 15.322s-.05-.041-.201.04c-.126.068-.31.245-.452.37-.092.076-.15.11-.202.167-.21.252-.387.663-.285.867.102.204.438.438 1.295.279l-.157-1.723z" fill="#e6d89c"/><path fill-rule="evenodd" clip-rule="evenodd" d="M20.253 15.743s-.136.21-.136.547c0 .344.193.89.907.931.547.034.914-.788 1.311-1.107.303-.245.486-.252.486-.252s-.309-.336-1.134-.771c-.816-.438-1.73-.496-2.226.177.234-.017.992-.211.992-.211l.37.119z" fill="#252211"/><path fill-rule="evenodd" clip-rule="evenodd" d="M21.32 16.188c-.024-.05-.041-.119.057-.136.099-.016.143-.006.177.068.034.074.067.136.017.166-.051.027-.184 0-.252-.098zm-.16-.479s-.034.024-.017-.024c.006-.057.05-.16.16-.135.108.024.084.142.067.176-.018.034-.11.092-.177.068a.057.057 0 0 1-.039-.034.057.057 0 0 1 .005-.051z" fill="#6f674d"/><path fill-rule="evenodd" clip-rule="evenodd" d="M11.962 15.926s.268.202.58.194c.31-.007.707-.326.89-.53.11-.119.202-.245.303-.343.085-.085.143-.126.184-.184.057-.067.119-.193.15-.234-.076.058-.184.16-.296.228a3.503 3.503 0 0 1-.439.227c-.091.034-1.043.538-1.043.538l-.33.104z" fill="#ac924c"/><path fill-rule="evenodd" clip-rule="evenodd" d="M12.372 13.416s.15-.102.439-.167c.278-.067.84-.119.84-.119l.461.202.184.696-.336.724-.428.269-.486-.782-.672-.822z" fill="#9f8e57"/><path fill-rule="evenodd" clip-rule="evenodd" d="m11.768 14.037-.16.12s.04-.075.074-.303c.034-.227.211-.781.47-1.1.258-.32.251-.303.251-.303a.171.171 0 0 0-.136.034c.034-.075.252-.344.47-.479.217-.134.302-.176.53-.067.227.11.285.167.451.16.167-.007.31-.184.31-.184s.033.11-.092.36c-.126.252-.622.765-.622.765l-1.033.707-.513.291z" fill="#eac970"/><path fill-rule="evenodd" clip-rule="evenodd" d="M12.532 13.33s.748.103.975-.108c.007.024.034.024.034.04a.059.059 0 0 1-.017.035.57.57 0 0 1 .075-.007c.03.009.06.015.092.017.025 0 .05-.003.075-.007a.128.128 0 0 1-.051.085c.034 0 .067.007.067.034 0 .027.007.109-.034.126a.154.154 0 0 1-.102-.007c.002.064.02.127.05.184.068.125.212.268.404.227 0 0 .102.245-.326.788-.058.075-.12.177-.194.262a.993.993 0 0 0-.067.2s.724-.278.931-.914c.211-.639.252-1.267.211-1.855a.958.958 0 0 0-.075-.37c-.102-.211-.387-.177-.503-.058-.166.167-.445.581-.832.866-.395.286-.411.336-.714.463z" fill="#d7bc6b"/><path fill-rule="evenodd" clip-rule="evenodd" d="M11.635 14.248s-.143.085-.217.403c-.075.326.067.724.149.85.082.126.269.469.656.486a.72.72 0 0 0 .278-.058c.136-.062.262-.14.378-.234.166-.126.302-.235.285-.245-.04-.017-1.026-.833-1.026-.833l-.37-.413-.133.045z" fill="#585136"/><path fill-rule="evenodd" clip-rule="evenodd" d="M12.566 15.6s.2-.016.32-.091c.119-.075-.697-.884-.697-.884l.058.874.32.101z" fill="#453a25"/><path fill-rule="evenodd" clip-rule="evenodd" d="M11.7 14.187s-.102.194-.102.245c-.017.166.034.69.074.856.041.176.262.445.548.445.176 0 .421-.109.421-.136 0-.034-.252-.067-.32-.194-.04-.067-.057-.234-.067-.403-.006-.108-.006-.227.034-.269.092-.102.11-.394.11-.394l.325-.606h-.429l-.513.32-.082.136z" fill="#84754b"/><path fill-rule="evenodd" clip-rule="evenodd" d="M11.574 14.374s.336-.445.639-.547c.303-.102.438-.041.438-.041l-.177.452-.251.279.017.142s-.041.377.21.64c.252.26.439.25.548.25.109 0 .42-.091.58-.468.143-.354.262-.807-.023-1.261-.279-.452-.771-.47-.867-.47-.095 0-.842.038-1.114 1.023z" fill="#252211"/><path fill-rule="evenodd" clip-rule="evenodd" d="M20.201 15.886c-.125-.058-.006-.411.12-.52a.886.886 0 0 1 .564-.252c.101-.006.2.058.183.126-.024.126-.2.303-.36.428-.22.174-.364.282-.506.218z" fill="#f7f7e7"/><path fill-rule="evenodd" clip-rule="evenodd" d="M13.405 13.96c.092-.008.211.066.235.166.024.109-.058.326-.235.326-.142 0-.217-.177-.217-.228a.26.26 0 0 1 .034-.119c.007-.01.024-.129.183-.146z" fill="#f8f6de"/><path fill-rule="evenodd" clip-rule="evenodd" d="M12.08 14.037s-.234.11-.343.336a.892.892 0 0 0-.067.538c.017.085.102.296.16.37.057.075.135.126.193.12.058-.008.177-.16.177-.252s.007-.48.119-.69c.098-.21-.238-.421-.238-.421z" fill="#d4c38b"/><path fill-rule="evenodd" clip-rule="evenodd" d="M12.114 14.02c-.04.024-.109.058-.092.102.017.041.16.068.211.167a.35.35 0 0 1 .04.262.416.416 0 0 0 .12-.085c.075-.085.166-.2.244-.2.051 0 .102.023.15.023.075 0 .15-.024.16-.102.017-.102-.143-.194-.235-.177.017-.067.041-.166-.034-.234-.075-.068-.309.05-.36.085-.051.034-.204.16-.204.16z" fill="#e2d59d"/><path fill-rule="evenodd" clip-rule="evenodd" d="m17.514 21.16.503-.149.142.102s.102.218.262.245c-.051.108-.184.201-.177.278a.236.236 0 0 0 .075.136s-.452.748.438 1.501c-.21.085-.479.202-.622.269.102.024.32.067.412.15.091.082.091.108.176.16.085.05.136.118.12.149-.059-.034-.252-.136-.286-.041-.034.095-.84.058-.84.058l-1.359.261s.051-.136-.091-.261c-.167-.15-.37.006-.588-.16-.286-.218-.296-.469-.388-.564.092-.058.279-.143.724-.202-.017-.034-.075-.136-.04-.227.04-.12.21-.194.16-.336.074-.017.108-.017.295-.252.177-.234.285-.285.421-.302.136-.017.218 0 .47-.235.176-.166.118-.309.118-.309s.116-.037.075-.272z" fill="#cbac5a"/><path fill-rule="evenodd" clip-rule="evenodd" d="M16.029 21.235c.006-.034.034-.05.217-.034.184.017 1.346-.108 1.662-.125.32-.024 1.444-.008 1.991.108a39.11 39.11 0 0 1 1.37.32c.268.074.353.101.343.135-.007.034-.067.067-.102.058-.034-.007-.924-.279-1.2-.336-.274-.057-1.226-.21-1.747-.201-.485.006-.68-.007-1.09.04-.412.051-1.091.12-1.295.092-.202-.024-.16-.024-.15-.058v.001z" fill="#d6bc6f"/><path fill-rule="evenodd" clip-rule="evenodd" d="M18.764 23.899s.697.377.948.839c.184.343-.108.513-.108.513s.394 0 .343.218c-.024.135-.68.502-1.118.696-.445.194-.428.184-.646.218-.21.034-.788-.068-.907.101-.12.17-.067.344-.034.37.034.025.31.059.31.059s-.059.16-.63.176c-.57.018-.713.058-.747.12-.034.057.108.023.37.067.262.04.629.067.629.067s-.12.102-.428.183c-.354.092-.908.177-1.074.279.085.058.21.143.269.15a1.7 1.7 0 0 0-.378.135c.051.034.12.075.12.075s-.286.343-.453.428c-.166.085-1.124.53-1.454.445-.822-.217-.924-1.117-1.125-1.185-.302-.102-.445.101-.713-.041.119-.085.183-.136.309-.194-.136-.067-.84-.513-.84-.513a5.2 5.2 0 0 0-.244-.469c-.136-.235-.336-.547-.486-.822-.326-.605-.343-.884-.639-1.227.051-.067.228-.058.228-.058l2.477.816 4.393.127 1.142-1.631z" fill="#dfc677"/><path fill-rule="evenodd" clip-rule="evenodd" d="M12.257 26.386c.026.03.057.055.091.075.086.058.211.126.296.227.034-.05.12-.142.269 0 .15.143.336.041.452.075.119.041.125.058.125.058s.068-.058.218-.12c.092-.033.2-.057.32-.09.108-.024.227-.059.309-.059.075.051.343.337 1.42-.084 1.016-.395 1.25-.439 1.42-.378.018-.04.035-.119.296-.108 0-.11-.217-.48-.217-.48l-1.2-.41H15.4l-1.967.36-1.09.622-.085.313z" fill="#c4a859"/><path fill-rule="evenodd" clip-rule="evenodd" d="M11.601 25.696s.024.184.296.377c.268.194.353.31.353.31s.051-.068.092-.136c.04-.075.075-.16.142-.184.136-.057.446.051.514.034.057-.017.04-.136.102-.136.142-.007.234.092.285.092.051 0 .176-.007.194-.034.016-.027.023-.31.217-.445a.581.581 0 0 1 .538-.051c0 .05.006.177.142.183.136.007.15-.017.269.024.12.041.262-.006.326.194.058-.017.194-.034.16-.228.067-.05.126-.085.269-.285.034-.051.091-.109.136-.184.119 0 .261-.023.451.143-.057.04-.091.067-.108.109.05.049.095.102.136.16.05.067.085.149.15.166.142.04.376-.017.638 0 .252.017.462.109.554.166.034-.016.034-.023.119-.006.085.017.15.023.058-.085.05.024.108.075.16.024.05-.052.091-.126.234-.143.143-.017.194.007.251-.143.075-.183-.183-.183-.183-.183s.119-.11.251-.252c.16-.15.344-.343.388-.58.075-.44-.354-.497-.354-.497l-2.076.639-2.538-.126-2.165 1.077z" fill="#927d49"/><path fill-rule="evenodd" clip-rule="evenodd" d="M9.735 19.699s-.067.084-.108.285c-.042.2-.024.177-.058.32-.034.142-.452 1.562-.295 2.042.156.479.428.655.598 1.043.034.085.067.136.085.21.057.252.007.446.074.697a.77.77 0 0 0 .177.285c.202.211.53.412.672.554.2.211.486.64.85.68.193.024.469-.058.696-.194.202-.125.326-.302.538-.403.15-.075.309-.102.452-.136.295-.058.564-.067.724-.034.244.051.822.228 1.142.228.25-.004.499-.038.74-.102.487-.143 1.074-.387 1.462-.496.227-.067.41-.085.598-.126.32-.075.588-.177.74-.37-.101-.12-.227-.303-.907-.296-.77.017-1.661.445-2.1.513-.438.068-.628.126-1.118-.05-.48-.18-.495-.297-.495-.297s-.504-.353-.715-1.251c-.21-.898 0-1.553.547-2.175.143-.16.109-.302.109-.302s.36-.486.261-.941c-.108-.452-.805-.36-.805-.36l-3.863.676z" fill="#6e6342"/><path fill-rule="evenodd" clip-rule="evenodd" d="M10.316 21.21a.352.352 0 0 0-.04.184c.007.092.034.21.309.48.234.234.183.495.183.495s.118.024.439-.126c.251-.119.336.092.336.092a.71.71 0 0 1 .234-.075.512.512 0 0 0 .21-.067s.296.302.555.445c.234.126.37.21.486.126.108-.075.108-.228.101-.296a.882.882 0 0 0-.101-.176c-.075-.11-.194-.235-.202-.336-.017-.235.177-.514.136-.581-.041-.068-.194-.085-.57.05-.391.13-2.077-.213-2.077-.213l.002-.001z" fill="#39331f"/><path fill-rule="evenodd" clip-rule="evenodd" d="M11.207 22.73s-.194-.184-.126-1.074c.082-.001.164.007.245.024 0 0 .105.69-.12 1.05z" fill="#292311"/><path fill-rule="evenodd" clip-rule="evenodd" d="M9.827 19.019a.521.521 0 0 0 .075-.067c-.067.125-.377.628-.126 1.42.252.788.884 1.376 1.662 1.404.778.027 1.187-.354 1.655-.925.183-.227.394-.513.58-.706.28-.303.497-.388.497-.68 0-.598-.612-.867-1.512-1.135s-1.713-.235-2.134-.052c-.411.2-.588.411-.697.741z" fill="#252211"/><path fill-rule="evenodd" clip-rule="evenodd" d="m12.719 22.998.067-.034s.017-.269.126-.262c.108.017.16.16.15.211-.007.051-.035.136-.143.126-.143.003-.2-.04-.2-.04z" fill="#3f3824"/><path fill-rule="evenodd" clip-rule="evenodd" d="M12.416 21.856s.068-.023.15.058c.067 0 .36-.034.452.024a.344.344 0 0 1 .119.109s-.343.074-.53 0c-.19-.065-.19-.19-.19-.19z" fill="#2d2815"/><path fill-rule="evenodd" clip-rule="evenodd" d="M13.929 21.907c0-.017-.184-.142-.377-.183-.034-.007-.041.017-.068.017-.017-.007-.023-.058-.023-.058l-.11.058s-.018.024.04.067c.051.04.136.075.16.143.024.067.024.091.034.102.007.006.126 0 .183-.035.058-.034.167-.09.16-.111z" fill="#82764f"/><path fill-rule="evenodd" clip-rule="evenodd" d="M12.213 22.597s.034-.234.261-.245c.235-.017.279.211.279.211l-.136.136c0-.003-.102-.146-.403-.102z" fill="#2d2816"/><path fill-rule="evenodd" clip-rule="evenodd" d="M13.69 21.588s-.125.136-.403.177c-.024-.035-.075-.102 0-.211.074-.109.16-.143.244-.109a.2.2 0 0 1 .16.143z" fill="#574f35"/><path fill-rule="evenodd" clip-rule="evenodd" d="M14.204 21.754c.007-.034-.017-.04 0-.057s.109-.051.126-.034c.006.006 0 .034 0 .067s0 .067-.017.091c-.024.034-.092.051-.126.041-.034-.01-.04-.057-.04-.067.016-.007.057-.024.057-.04zm.58-.367c0-.017.058-.05.092-.05.05 0 .05.04.058.05.016.007.016-.006.034.024.017.031.04.085.023.12-.017.033-.085.057-.101.05a.906.906 0 0 1-.106-.194z" fill="#82764f"/><path fill-rule="evenodd" clip-rule="evenodd" d="M13.616 21.833s.075.016.177.102c-.034.023-.085.05-.085.05s-.007-.078-.092-.153z" fill="#6e6342"/><path fill-rule="evenodd" clip-rule="evenodd" d="M13.45 21.085c-.017-.017.05-.058.091-.051.041.007.058.034.102.04.044.007.051-.016.067-.033.016-.017.075-.007.085 0a.19.19 0 0 1 .017.023.094.094 0 0 1 .034-.067.107.107 0 0 1 .092-.017c.007.024.04.109.034.126-.007.017-.109.04-.126.024.017.04.092.126.102.142.01.017-.075.058-.109.052a1.387 1.387 0 0 1-.39-.238v-.001zm.445-.564a.078.078 0 0 0-.034-.04c-.024-.008-.102 0-.102.04s.067.269.143.387c.085.12.142.218.2.245a.079.079 0 0 0 .102-.034c.007-.017.024-.143.017-.438-.007-.296-.017-.582-.034-.599-.017-.017-.085-.016-.109.017a3.158 3.158 0 0 0-.183.422z" fill="#585136"/><path fill-rule="evenodd" clip-rule="evenodd" d="M13.592 22.26s-.119-.074-.234-.023c-.109.051-.102.252-.102.252a.161.161 0 0 0 .15-.018c.074-.05.17-.135.186-.21z" fill="#574f35"/><path fill-rule="evenodd" clip-rule="evenodd" d="M13.816 22.53c-.006-.068-.067-.068-.067-.103a.077.077 0 0 1 .075-.058c.034 0 .067.041.109.068.04.023.102.067.108.119.007.051-.067.193-.149.193-.082 0-.058-.153-.075-.22zm.656-.093s-.136.041-.125 0c.01-.04.04-.05.085-.05a.134.134 0 0 1 .085-.041.073.073 0 0 1 .05.017s.092-.041.12-.017c.026.023.006.023.023.05a.24.24 0 0 1 .041.103c0 .027-.102.084-.184.074-.095-.02-.078-.119-.095-.136zm.792-.153s.04.024.007.052a.554.554 0 0 1-.245.074c-.102 0-.193.017-.193-.017s.085-.102.135-.119a.11.11 0 0 1 .085-.04c.041 0 .2-.018.245-.024.04-.007.075.017.05.05-.01.024-.084.024-.084.024zm.235-1.049s-.052.109-.11.109c-.057-.007-.057-.024-.057-.04 0-.025.058-.086.051-.103-.017 0-.058 0-.05-.04 0-.035.057-.075.108-.068a.224.224 0 0 1 .136-.05c.057 0 .108.016.108.05s-.067.109-.091.126c-.028.027-.062.045-.095.017zm-.775 2.008s-.068.007-.068.041c0 .017.017.017.041.007a.183.183 0 0 0 .041-.007c.007.007.007.04.058.04a.323.323 0 0 0 .119-.04c.04-.017.075-.034.075-.067-.017-.058-.052-.085-.102-.085a.136.136 0 0 0-.075.017s-.017-.034-.075 0c-.058.034-.051.034-.034.05.03.028.02.046.02.046zm-.384.354c0-.017.085-.051.108-.04.024.006.092.135.092.149 0 .017-.085.057-.119.057-.034 0-.091-.058-.091-.067 0-.007.04-.017.04-.024.01-.017-.03-.058-.03-.075zm-.269-.496c.017-.007.017-.024.04-.041a.058.058 0 0 1 .052-.007.083.083 0 0 1 .058-.04c.04-.008.074 0 .067.016 0 .051.034.085.034.126 0 .04-.024.092-.109.126a.603.603 0 0 1-.217.017c-.017-.007-.034-.075-.017-.11a.282.282 0 0 1 .091-.087z" fill="#82764f"/><path fill-rule="evenodd" clip-rule="evenodd" d="M14.18 23.124s-.059.034-.059.05a.151.151 0 0 0-.006.052c0 .01.075-.007.085-.017.003-.007-.02-.068-.02-.085z" fill="#6e6342"/><path fill-rule="evenodd" clip-rule="evenodd" d="M13.674 22.964c.034.007.091 0 .136.017.034.017.057.051.023.092-.034.04-.067.102-.142.091-.085-.006-.167-.05-.167-.084a.164.164 0 0 1 .041-.12c.034-.026.05-.01.109.004z" fill="#585136"/><path fill-rule="evenodd" clip-rule="evenodd" d="M13.633 22.998s-.108.085-.136.126c-.034.04-.2.251-.251.295a.634.634 0 0 1 .057-.085.348.348 0 0 0-.142.184c-.041.126.228.194.404.245.177.05.245.067.245.067a1.898 1.898 0 0 1-.167-.31c-.067-.159-.102-.176-.058-.25.034-.075.085-.126.085-.184-.02-.054-.037-.088-.037-.088z" fill="#574f35"/><path fill-rule="evenodd" clip-rule="evenodd" d="M9.76 23.267a.23.23 0 0 0 .074 0c.05-.007.581-.202 1.135-.167.415.025.826.093 1.227.202.696.183 1.563.547 2.123.754.15.058.296.16.404.2.428.167.445.167.696.211.296.04.598-.058.914-.126.388-.085 1.05-.126 1.631-.21.188-.026.374-.069.554-.126 0 0-.462.462-1.57.629a4.912 4.912 0 0 1-1.352.017 4.126 4.126 0 0 1-.764-.136c-.201-.058-.612-.211-1.119-.336-.353-.092-.747-.16-1.199-.245-1.115-.204-2.324-.438-2.755-.666v-.001z" fill="#252211"/><path fill-rule="evenodd" clip-rule="evenodd" d="M8.509 21.167c-.27.227-.554.445-.833.655l-.84.645c-.284.21-.563.428-.849.639-.285.21-.57.411-.873.605a14.6 14.6 0 0 1 .839-.646c.285-.207.581-.41.857-.62l.839-.646c.289-.21.567-.428.86-.632zm-1.485 2.378s.302-.251.68-.605c.468-.438 1.043-.998 1.226-1.1l-1.906 1.706z" fill="#cfb66c"/><path fill-rule="evenodd" clip-rule="evenodd" d="M7.024 23.545c.15-.15.31-.295.469-.438l.244-.21c.075-.068.16-.143.235-.218.15-.15.296-.31.445-.462.074-.077.152-.15.235-.218a.635.635 0 0 1 .135-.092c.041-.023.085-.067.143-.075-.034.052-.075.075-.109.12-.04.033-.074.074-.108.108-.075.075-.16.143-.235.21-.16.137-.326.27-.486.412-.16.142-.309.296-.469.438-.173.146-.333.29-.5.426zm2.032-1.36S7.948 23.27 7.72 23.448l1.336-1.261z" fill="#cfb66c"/><path fill-rule="evenodd" clip-rule="evenodd" d="M9.056 22.186c-.1.115-.207.224-.32.326l-.336.32c-.109.108-.21.217-.326.326-.12.101-.228.201-.354.295l.327-.32c.108-.108.227-.2.343-.308l.326-.32c.112-.112.22-.22.34-.32zm.05.588a7.059 7.059 0 0 1-.36.832c-.285.571-.713 1.285-.9 1.648z" fill="#cfb66c"/><path fill-rule="evenodd" clip-rule="evenodd" d="M9.107 22.774a.954.954 0 0 1-.075.343 3.36 3.36 0 0 1-.136.32 5.47 5.47 0 0 1-.167.309c-.057.098-.125.2-.176.302l-.343.605c-.12.202-.235.404-.36.598.084-.217.2-.421.309-.622.119-.201.227-.403.336-.612.053-.103.1-.21.142-.319.051-.109.102-.21.143-.309.051-.109.092-.21.143-.31.057-.105.105-.207.183-.305z" fill="#cfb66c"/><path fill-rule="evenodd" clip-rule="evenodd" d="M10.316 25.56s-.335.445-.302 1.01c.092-.296.207-.748.303-1.01zm.32.446s-.119 1.21-.217 1.805c.139-.688.166-.63.217-1.805zm2.226 1.876s-.503 1.479-.514 1.89c.11-.423.32-1.286.514-1.89z" fill="#dec270"/><path fill-rule="evenodd" clip-rule="evenodd" d="M14.037 25.469s.816 1.345 1.428 2.494c-.166-.578-.547-1.638-1.428-2.494z" fill="#cbaf59"/><path fill-rule="evenodd" clip-rule="evenodd" d="M16.23 27.45c.447.791.85 1.607 1.209 2.443-.068-.578-.252-1.567-1.21-2.443z" fill="#e3c677"/><path fill-rule="evenodd" clip-rule="evenodd" d="M22.672 29.434c.136-.085.404-.548.639-.663.234-.119.41-.143.622-.377.21-.245.268-.394.73-.588.646-.279.202-.64.202-.64.07-.069.147-.134.227-.193.167-.125.36-.278.344-.547-.024-.452-.109-1.107-.48-1.488.36-.075 1.05-.126 1.479-.234.496-.126.724-.303.724-.303s-.286-.486.176-.975c.462-.49.84-.782 1.118-1.329-.32-.04-.806-.21-2.049.262.067.031.132.068.194.108 0 0-.764.211-1.043.446-.486.41-.547.747-1.074.999-.527.251-1.057.183-1.495.387-.438.204-.503.377-.663.452.034.04-.007.109.058.166-.04.058-.279.446-.52.446.024.091.228.16.228.16s-.15.108-.53.135c.193.202.377.422.883.741-.04.085-.21.21-.143.37.075.16.27.378 1.044.555-.395.016-.857.108-1.479.023-.622-.075-.724-.119-1.108-.024.041.041.15.041.245.15-.102.007-.74-.075-.958.21-.228.296-.326.782-.31 1.108-.118.058-.234.16-.176.37.058.212.36.28.554.412.194.143.21.194.394.16.194-.041.48-.235.646-.235.166 0 .285.126.285.126s.452-.217.496-.177c.041.041.007.303.051.343.045.031.554-.271.69-.356z" fill="#ecd592"/><path fill-rule="evenodd" clip-rule="evenodd" d="M32.55 15.835c-2.124-5.484-7.374-6.5-7.374-6.5H10.198l.057 5.586h2.983v12.474h-3.04v5.576h14.564c3.51 0 6.323-3.527 6.323-3.527 4.506-6.395 1.465-13.609 1.465-13.609zm-7.71 9.85s-1.143 1.65-2.386 1.65h-2.486l-.059-12.4H23.1s1.478.309 2.511 3.234c0 0 1.37 4.19-.771 7.517z" fill="#fff" fill-opacity=".8"/></svg>