<svg width="42" height="42" fill="none" xmlns="http://www.w3.org/2000/svg"><g clip-path="url(#a)"><path d="M21 42c11.598 0 21-9.402 21-21S32.598 0 21 0 0 9.402 0 21s9.402 21 21 21Z" fill="#627EEA"/><path d="M21.654 5.25v11.642l9.84 4.397-9.84-16.039Z" fill="#fff" fill-opacity=".602"/><path d="m21.654 5.25-9.841 16.039 9.84-4.397V5.25Z" fill="#fff"/><path d="M21.654 28.833v7.91L31.5 23.121l-9.846 5.712Z" fill="#fff" fill-opacity=".602"/><path d="M21.654 36.743v-7.911l-9.841-5.711 9.84 13.622Z" fill="#fff"/><path d="m21.654 27.002 9.84-5.713-9.84-4.395v10.108Z" fill="#fff" fill-opacity=".2"/><path d="m11.813 21.289 9.84 5.713V16.895l-9.84 4.394Z" fill="#fff" fill-opacity=".602"/></g><defs><clipPath id="a"><path fill="#fff" d="M0 0h42v42H0z"/></clipPath></defs></svg>