<svg width="42" height="42" fill="none" xmlns="http://www.w3.org/2000/svg"><circle cx="21" cy="21" r="21" fill="#0E052F"/><path d="M23.74 30.907c-1.096 0-2.11-.156-3.041-.466a8.134 8.134 0 0 1-2.493-1.397 8.33 8.33 0 0 1-1.808-2.164 9.601 9.601 0 0 1-1.013-2.849h-2.602v-2h2.383a2.902 2.902 0 0 1-.028-.41V20.58c.018-.2.028-.365.028-.493h-2.383v-2h2.574c.201-1.077.548-2.045 1.041-2.903a7.943 7.943 0 0 1 1.863-2.164 7.978 7.978 0 0 1 2.547-1.37 9.816 9.816 0 0 1 3.068-.465c1.26 0 2.31.164 3.15.493.84.329 1.552.74 2.137 1.232l-1.37 2.63c-.62-.475-1.242-.803-1.863-.986-.602-.183-1.278-.274-2.026-.274-1.334 0-2.448.329-3.342.986-.895.658-1.47 1.598-1.726 2.821h7.971l-.959 2h-7.231c0 .164-.01.329-.027.493v.959c.018.164.027.328.027.493H25.3l-.958 2h-5.506c.256 1.204.822 2.136 1.698 2.793.895.658 2 .986 3.315.986.821 0 1.534-.1 2.136-.301.621-.22 1.15-.493 1.589-.822l1.589 2.493a6.718 6.718 0 0 1-2.329 1.287c-.876.292-1.908.439-3.095.439Z" fill="#fff"/></svg>