<svg xmlns="http://www.w3.org/2000/svg" width="300" height="300.006"><g fill="none" fill-rule="nonzero"><path fill="#0090FF" d="M150 300.006c-82.5 0-150-67.5-150-150.75.75-82.5 67.5-150 150.75-149.25 82.5.75 149.25 67.5 149.25 151.5-.75 81.75-67.5 148.5-150 148.5Z"/><path fill="#FFF" d="m164.25 132.006-4.5 24 42.75 6-3 11.25-42-6c-3 9.75-4.5 20.25-8.25 29.25-3.75 10.5-7.5 21-12 30.75-6 12.75-16.5 21.75-30.75 24-8.25 1.5-17.25.75-24-4.5-2.25-1.5-4.5-4.5-4.5-6.75 0-3 1.5-6.75 3.75-8.25 1.5-.75 5.25 0 7.5.75 2.25 2.25 4.5 5.25 6 8.25 4.5 6 10.5 6.75 16.5 2.25 6.75-6 10.5-14.25 12.75-22.5 4.5-18 9-35.25 12.75-53.25v-3l-39.75-6 1.5-11.25 41.25 6 5.25-23.25-42.75-6.75 1.5-12 44.25 6c1.5-4.5 2.25-8.25 3.75-12 3.75-13.5 7.5-27 16.5-39s19.5-19.5 35.25-18.75c6.75 0 13.5 2.25 18 7.5.75.75 2.25 2.25 2.25 3.75 0 3 0 6.75-2.25 9-3 2.25-6.75 1.5-9.75-1.5-2.25-2.25-3.75-4.5-6-6.75-4.5-6-11.25-6.75-16.5-1.5-3.75 3.75-7.5 9-9.75 14.25-5.25 15.75-9 32.25-14.25 48.75l41.25 6-3 11.25-39.75-6"/></g></svg>