<svg version="1.1" id="Layer_1" xmlns="http://www.w3.org/2000/svg" x="0" y="0" viewBox="0 0 74.5 71.4" style="enable-background:new 0 0 74.5 71.4" xml:space="preserve"><style>.st1{fill:#fff}.st2{fill:#f79422}.st3{fill:none;stroke:#221f1f;stroke-linejoin:round}.st4{fill:#5a595c}.st5{fill:#929497}.st6,.st7{fill:none;stroke:#221f1f}.st6{stroke-linecap:round;stroke-linejoin:round}.st7{stroke-miterlimit:10}.st8{fill:none;stroke:#171717;stroke-linecap:round;stroke-linejoin:round}.st10{fill:#221f1f}</style><g id="Layer_2_00000096758436641758334450000017841725478599035553_"><g id="Layer_4"><path d="M65.9 53.7c-.8 9.5-12 17.5-28.8 17.1-15.8-.4-26.9-7-27.7-16.5-.1-1.2 0-2.4.1-3.7.5-3.7 1.8-7.2 3.7-10.4l1.2.5c3.1-1.2 6.3-2.1 9.6-2.7 4.3-.6 8.7-.7 13-.4 4.3-.3 8.7-.2 13 .4 3.3.6 6.5 1.5 9.6 2.7l1.2-.5.8-.4c1.9 3.2 3.2 6.7 3.9 10.4.2 1.1.3 2.3.2 3.4" style="fill:#f4a427"/><path class="st1" d="M65.9 53.7c-.8 9.4-11.9 17.1-28.8 17-15.8-.4-26.9-7-27.7-16.5-.1-1.2 0-2.4.1-3.7 1.7-.4 3.4-.4 5.1-.1 3.2.5 5 2.5 7.3 3.5 1.3.6 2.6-.4 3.8-1.5 3.2-3.1 7.5-4.9 11.9-5 4.5-.1 8.2 1.7 12.1 5.3.8.8 1.9 1.3 3 1.2 1-.3 2-.8 2.8-1.5 3-2 6.6-2.8 10.1-2.3.3 1.3.4 2.4.3 3.6"/><path class="st2" d="M19.4 30.3c-1.1 1.1-2.5 1.9-4 2.2l-.6.1c-.6.2-1.2.3-1.9.3h-.4c-.3-.1-.7-.2-1-.3-1.1-.5-2.1-1.1-3-1.9-1.8-1.5-3.5-3.2-4.8-5.2C-1.8 17.5-.1 6.7 7.5.7 8 .4 8.6.4 9 .9c.2.3.3.6.2.9C8.5 5 7.9 10 10.9 14.3c2.6 3.6 8 7.1 11.3 7.1.7 4-.4 6.7-2.8 8.9"/><path class="st3" d="M19.4 30.3c-1.1 1.1-2.5 1.9-4 2.2l-.6.1c-.6.2-1.2.3-1.9.3h-.4c-.3-.1-.7-.2-1-.3-1.1-.5-2.1-1.1-3-1.9-1.8-1.5-3.5-3.2-4.8-5.2C-1.8 17.5-.1 6.7 7.5.7 8 .4 8.6.4 9 .9c.2.3.3.6.2.9C8.5 5 7.9 10 10.9 14.3c2.6 3.6 8 7.1 11.3 7.1.7 4-.4 6.7-2.8 8.9z"/><path class="st4" d="m33.8 16.5-1.3 12.8h-.1c-2 .3-4.7.7-8.4 1.3-3.4.5-8 2.9-10.7 4.5L13 33c.6-.1 1.3-.2 1.9-.3l.6-.1c1.5-.3 2.9-1.1 4-2.2 2.3-2.3 3.5-4.9 2.7-9l.4.1c1.2-1.3 2.6-2.3 4.2-3.1 2.1-1.2 4.5-1.8 7-1.9"/><path class="st3" d="m33.8 16.5-1.3 12.8h-.1c-2 .3-4.7.7-8.4 1.3-3.4.5-8 2.9-10.7 4.5L13 33c.6-.1 1.3-.2 1.9-.3l.6-.1c1.5-.3 2.9-1.1 4-2.2 2.3-2.3 3.5-4.9 2.7-9l.4.1c1.2-1.3 2.6-2.3 4.2-3.1 2.1-1.2 4.5-1.8 7-1.9z"/><path class="st5" d="m63 39.5-.8.4-.8.4-1.2.5c-3.1-1.2-6.3-2.1-9.6-2.7-4.3-.8-8.6-1.2-13-1.2s-8.7.3-13 1.2c-3.3.6-6.5 1.5-9.6 2.7-.4-.2-.8-.4-1.2-.5l-1.7-.8c.1-1.4 0-2.2 0-3.6.3-.2.8-.5 1.3-.8l.1-.1c2.6-1.6 7.2-3.9 10.6-4.5 3.7-.6 6.3-1 8.4-1.3 1.3-.1 2.7-.1 4.1-.1 2.1 0 4 0 5.9.1 2 .3 4.7.7 8.5 1.3 3.5.5 8.1 2.9 10.8 4.5h.1c.5.3.9.5 1.2.8-.1 1.5-.2 2.3-.1 3.7"/><path class="st6" d="m63 39.5-.8.4h0l-.8.4-1.2.5c-3.1-1.2-6.3-2.1-9.6-2.7-4.3-.7-8.6-1.1-13-1.1h0c-4.4 0-8.7.3-13 1.1-3.3.6-6.5 1.5-9.6 2.7-.4-.2-.8-.4-1.2-.5l-1.7-.8c.1-1.4 0-2.2 0-3.6.3-.2.8-.5 1.3-.8l.1-.1c2.6-1.6 7.2-3.9 10.6-4.5 3.7-.6 6.3-1 8.4-1.3 1.3-.1 2.7-.1 4.1-.1 2.1 0 4 0 5.9.1 2 .3 4.7.7 8.5 1.3 3.5.5 8.1 2.9 10.8 4.5h.1c.5.3.9.5 1.2.8-.1 1.5-.2 2.3-.1 3.7z"/><path class="st5" d="M42.4 29.3c-1.8-.1-3.8-.2-5.9-.1-1.4 0-2.8.1-4.1.1h.1l1.3-12.8.3-2.6c1-.6 2.2-.9 3.3-.9h.2c1.2 0 2.3.3 3.3.9l.3 2.6v.1l1.2 12.7z"/><path class="st6" d="M42.4 29.3c-1.8-.1-3.8-.2-5.9-.1-1.4 0-2.8.1-4.1.1h.1l1.3-12.8.3-2.6c1-.6 2.2-.9 3.3-.9h.2c1.2 0 2.3.3 3.3.9l.3 2.6v.1l1.2 12.7zm19.8 10.6h0m3.7 13.9c-.8 9.5-12.9 17.1-28.8 17.1h0c-15.8-.4-26.9-7-27.6-16.5-.1-1.2 0-2.4.1-3.7.5-3.7 1.8-7.2 3.7-10.4l1.2.5c3.1-1.2 6.3-2.1 9.6-2.7 4.3-.8 8.6-1.1 13-1.2h0c4.4 0 8.7.4 13 1.2 3.3.6 6.5 1.5 9.6 2.7l1.3-.5.8-.4c1.9 3.2 3.2 6.7 3.9 10.4.3 1.2.3 2.4.2 3.5z"/><path class="st2" d="M70.8 25.5c-1.4 1.9-3 3.7-4.9 5.2-.9.8-1.9 1.4-3 1.9l-.5.2-.3.1c-.7.2-1.1 0-2.4-.2l-.6-.1c-1.5-.3-2.9-1.1-4-2.2-2.3-2.3-3.5-4.9-2.7-9 3.2.1 8.7-3.4 11.3-7.1C66.6 10 66 5 65.3 1.8c-.1-.6.2-1.1.8-1.3.3-.1.7 0 .9.2 7.6 6 9.3 16.9 3.8 24.8"/><path class="st3" d="M70.8 25.5c-1.4 1.9-3 3.7-4.9 5.2-.9.8-1.9 1.4-3 1.9l-.5.2-.3.1c-.7.2-1.1 0-2.4-.2l-.6-.1c-1.5-.3-2.9-1.1-4-2.2-2.3-2.3-3.5-4.9-2.7-9 3.2.1 8.7-3.4 11.3-7.1C66.6 10 66 5 65.3 1.8c-.1-.6.2-1.1.8-1.3.3-.1.7 0 .9.2 7.6 6 9.3 16.9 3.8 24.8z"/><path class="st4" d="m62.1 32.9-.4 2.2c-2.7-1.6-7.3-4-10.8-4.5-3.8-.6-6.4-1-8.5-1.3l-1.3-12.8c2.3.1 4.6.8 6.7 1.9 1.6.8 3 1.9 4.2 3.1l.4-.1c-.8 4 .4 6.7 2.7 9 1.1 1.1 2.5 1.9 4 2.2.1 0 .5.2.6.2.8.3 1.6.3 2.4.1"/><path class="st3" d="m62.1 32.9-.4 2.2c-2.7-1.6-7.3-4-10.8-4.5-3.8-.6-6.4-1-8.5-1.3l-1.3-12.8c2.3.1 4.6.8 6.7 1.9 1.6.8 3 1.9 4.2 3.1l.4-.1c-.8 4 .4 6.7 2.7 9 1.1 1.1 2.5 1.9 4 2.2l.6.1c1.3.2 1.7.4 2.4.2zm-21-16.4h-.4"/><path class="st2" d="M62.2 32.4c.7.8.5 2-.3 2.7l-.2.2"/><path class="st7" d="M62.2 32.4c.7.8.5 2-.3 2.7l-.2.2"/><path class="st2" d="M12.9 32.4c-.7.8-.5 2 .3 2.7l.2.2"/><path class="st7" d="M12.9 32.4c-.7.8-.5 2 .3 2.7l.2.2"/><path class="st8" d="M33.8 57.6c.7.2 1.5.1 2.2-.3 1.1-.4 1.8-1.5 1.7-2.7-.1 1.2.6 2.3 1.7 2.7.7.3 1.4.4 2.1.3"/><path d="M41.6 51.2c0 1.2-1.8 2.8-4 2.8s-4-1.6-4-2.8 1.8-1.6 4-1.6 4 .5 4 1.6" style="fill:#171717"/><path class="st1" d="M39.2 50.8c0 .3-.8.7-1.7.7s-1.7-.4-1.7-.6.8-.2 1.7-.2 1.7-.2 1.7.1"/><path class="st8" d="M31.3 54.6c-.1 1.4.8 2.6 2.2 2.9h.3m3.9-4.3v1.4m3.9 3h.3c1.4-.3 2.4-1.5 2.2-2.9"/><path class="st3" d="M67 .7c7.6 6 9.2 16.8 3.7 24.7m-51.3 4.9c-1.1 1.1-2.5 1.9-4 2.2l-.6.1c-.6.2-1.2.3-1.9.3h-.4c-.3-.1-.7-.2-1-.3-1.1-.5-2.1-1.1-3-1.9-1.8-1.5-3.5-3.2-4.8-5.2C-1.8 17.5-.1 6.7 7.5.7 8 .4 8.6.4 9 .9c.2.3.3.6.2.9C8.5 5 7.9 10 10.9 14.3c2.6 3.6 8 7.1 11.3 7.1.7 4-.4 6.7-2.8 8.9z"/><path class="st10" d="M30.3 44.7c0 2.2-1.3 3.9-2.9 3.9s-2.9-1.8-2.9-3.9c0-1.9 1-3.5 2.3-3.9l3.2 2.4c.2.5.3 1 .3 1.5z"/><path class="st1" d="M29.2 44.2c0 .8-.5 1.4-1 1.4s-1-.6-1-1.4.5-1.4 1-1.4 1 .6 1 1.4"/><path class="st10" d="M26.8 47.7c-1.1.9-2.1 1.9-3 3-.4.5-.8 1.1-1.1 1.8-.3.6-.5 1.3-.6 2-.1.3-.1.7-.1 1v3.2c.1.7.2 1.5.3 2.2.1.4.1.7.2 1.1.1.3.2.7.4 1-.2-.3-.3-.7-.5-1-.1-.3-.3-.7-.4-1-.2-.7-.4-1.4-.6-2.2-.1-.7-.2-1.5-.3-2.2v-2.2c.1-.8.2-1.6.5-2.3.3-.7.6-1.4 1-2.1.9-1.3 1.8-2.5 2.9-3.5.4-.3.9-.3 1.3 0 .3.2.4.8 0 1.2z"/><path class="st10" d="M26.1 47.4h-.5l-.5-.1c-.3-.1-.6-.1-.9-.1-.6 0-1.3 0-1.9.2l-.9.3c-.9.4-1.7 1.1-2.2 1.9.3-.7.6-1.3 1.1-1.8.2-.3.5-.5.8-.7l.9-.6c.6-.4 1.3-.6 2.1-.8.4-.1.7-.1 1.1-.1h1s.1 0 0 0c.5 0 .9.4 1 .9s-.5.9-1.1.9c.1 0 0 0 0 0m24.7-2.7c0 2.2-1.3 3.9-2.8 3.9s-2.9-1.8-2.9-3.9c0-.5.1-1 .2-1.5l3.2-2.4c1.3.4 2.3 2 2.3 3.9z"/><path class="st1" d="M46.1 44.2c0 .8.5 1.4 1 1.4s1-.6 1-1.4-.5-1.4-1-1.4-1 .6-1 1.4"/><path class="st10" d="M49.8 46.3c1.1 1.1 2 2.2 2.8 3.5.4.6.8 1.3 1.1 2 .3.7.5 1.5.6 2.2.1.8.1 1.5 0 2.3-.1.7-.2 1.5-.3 2.2-.1.7-.3 1.4-.5 2.1-.1.3-.2.7-.4 1-.1.3-.3.7-.5 1 .1-.3.3-.7.4-1 .1-.3.2-.7.3-1 .1-.7.3-1.4.3-2.1.1-.7.1-1.4.1-2.2 0-.7-.1-1.4-.2-2.1-.2-.7-.4-1.3-.7-1.9-.3-.6-.7-1.2-1.2-1.7-.9-1.1-1.9-2.1-3-3-.4-.4-.4-.9 0-1.3.3-.3.8-.4 1.2-.1v.1"/><path class="st10" d="M49.2 45.6h1.1c.4 0 .8 0 1.2.1.8.1 1.5.3 2.2.6.7.3 1.3.8 1.9 1.3.5.5.9 1.2 1.2 1.8-.4-.6-.9-1.1-1.5-1.5-.6-.4-1.2-.7-1.9-.8-.7-.1-1.4-.1-2.1-.1-.3 0-.7.1-1 .1l-.5.1h-.5c-.5.1-1-.3-1-.8-.1-.5.3-1 .8-1h.2"/></g></g></svg>