<svg width="42" height="42" fill="none" xmlns="http://www.w3.org/2000/svg"><g clip-path="url(#a)"><g clip-path="url(#b)"><path d="M21 42c11.598 0 21-9.402 21-21S32.598 0 21 0 0 9.402 0 21s9.402 21 21 21Z" fill="#00EF8B"/><path d="M30.198 17.724h-5.922v5.922h5.922v-5.922Zm-11.844 8.148a2.24 2.24 0 0 1-2.226 2.226 2.24 2.24 0 0 1-2.226-2.226 2.24 2.24 0 0 1 2.226-2.226h2.226v-5.922h-2.226c-4.494 0-8.148 3.654-8.148 8.148s3.654 8.148 8.148 8.148 8.148-3.654 8.148-8.148v-2.226h-5.922v2.226Zm8.148-11.13h6.678V8.82h-6.678c-4.494 0-8.148 3.654-8.148 8.148v.756h5.922v-.756a2.24 2.24 0 0 1 2.226-2.226Z" fill="#fff"/><path d="M24.276 17.724h-5.922v5.922h5.922v-5.922Z" fill="#16FF99"/></g></g><defs><clipPath id="a"><path fill="#fff" d="M0 0h42v42H0z"/></clipPath><clipPath id="b"><path fill="#fff" d="M0 0h42v42H0z"/></clipPath></defs></svg>