<svg width="16" height="20" fill="none" xmlns="http://www.w3.org/2000/svg"><path d="M.582 16.652c.876 0 1.533-.201 1.972-.603.438-.42.657-1.077.657-1.972v-2.794H.61V8.462h2.602V5.996c0-.858.137-1.634.411-2.328a5.113 5.113 0 0 1 1.15-1.808A5.164 5.164 0 0 1 6.552.71c.695-.274 1.47-.411 2.33-.411.766 0 1.478.119 2.136.356a4.97 4.97 0 0 1 1.753 1.04 4.773 4.773 0 0 1 1.15 1.644c.292.64.438 1.352.438 2.137h-3.424c0-.62-.173-1.141-.52-1.561-.347-.439-.858-.658-1.534-.658-.749 0-1.306.238-1.67.712-.366.475-.549 1.096-.549 1.863v2.63h3.917v2.82H6.662v2.822c0 .238-.018.484-.054.74a2.65 2.65 0 0 1-.22.74c-.09.237-.219.447-.383.63a1.232 1.232 0 0 1-.63.328v.055h4.41c.858 0 1.46-.201 1.808-.603.365-.402.548-1.022.548-1.862h3.26c0 1.826-.476 3.204-1.425 4.136-.95.931-2.328 1.397-4.136 1.397H.582v-3.013Z" fill="#fff"/></svg>