<svg version="1.1" id="Layer_1" xmlns="http://www.w3.org/2000/svg" x="0" y="0" viewBox="0 0 400 400" style="enable-background:new 0 0 400 400" xml:space="preserve"><style>.st1{fill:url(#SVGID_00000086676275963215266160000010661415873992010152_)}</style><linearGradient id="SVGID_1_" gradientUnits="userSpaceOnUse" x1="0" y1="182.253" x2="400" y2="182.253" gradientTransform="matrix(1 0 0 -1 0 399.89)"><stop offset="0" style="stop-color:#0082fa"/><stop offset="1" style="stop-color:#00f2fe"/></linearGradient><path d="M48.5 69.1C51 66 53.6 63 56.2 60c.1-.1.4-.2.5-.3.2-.3.6-.5.9-.8l.2-.3c1.8-1.7 3.8-3.5 6-5.2 8-6 16.2-10.6 24.9-13.7 28-9.8 59.1-3.8 83.5 19.3 34.1 31.9 31 83.4 3.8 117.6-34.4 51-93.4 122.1-11.7 185.8 14.7 11.5 25.6 20.9 71.9 34.3-30.3 5.6-58.4 3.8-89.6-4.1-22.1-12.5-56.9-39.2-68.7-75.3-17.9-54.7 31.5-136.6 55.3-168.1 32.7-43.6-20.2-90.8-59.3-38.1C53.7 138.6 18 216.3 30.4 274c7.2 32.7 16.9 56.5 55.2 89.3-7.1-4.2-14-8.9-20.7-14.3C-24 266.1-13.7 137.9 48.5 69.1z" style="fill:url(#SVGID_1_)"/><linearGradient id="SVGID_00000027590406948247584680000011222828394992047503_" gradientUnits="userSpaceOnUse" x1="0" y1="217.527" x2="400" y2="217.527" gradientTransform="matrix(1 0 0 -1 0 399.89)"><stop offset="0" style="stop-color:#0082fa"/><stop offset="1" style="stop-color:#00f2fe"/></linearGradient><path style="fill:url(#SVGID_00000027590406948247584680000011222828394992047503_)" d="M351.5 330.9c-2.5 3.1-5.1 6.1-7.7 9.1-.1.1-.4.2-.5.3-.2.3-.6.5-.9.8l-.2.3c-1.8 1.7-3.8 3.5-6 5.1-8 6-16.2 10.6-24.9 13.7-28 9.8-59.1 3.8-83.5-19.3-34.1-31.9-31-83.4-3.8-117.6 34.4-51 93.4-122.1 11.7-185.8C221 26 210.1 16.6 163.8 3.2c30.3-5.6 58.4-3.8 89.6 4.1 22.1 12.5 56.9 39.2 68.7 75.3 17.9 54.7-31.5 136.6-55.3 168.1-32.7 43.6 20.2 90.8 59.3 38.1 20.4-27.5 56.1-105.2 43.7-162.9-7.2-32.7-16.9-56.5-55.2-89.3 7.1 4.2 14 8.9 20.7 14.3 88.7 83 78.4 211.2 16.2 280z"/></svg>