<svg version="1.0" id="katman_1" x="0" y="0" xml:space="preserve" width="508.2" height="508.3" xmlns:xlink="http://www.w3.org/1999/xlink" xmlns="http://www.w3.org/2000/svg"><style id="style6309">.st1{clip-path:url(#SVGID_00000170985874484226784740000010197121833159053193_)}</style><path d="M254 0c140.4 0 254.2 113.8 254.2 254.2 0 140.4-113.8 254.1-254.1 254.1C113.7 508.3 0 394.5 0 254.2-.1 113.8 113.7 0 254 0Z" style="fill:#8247e5" id="path6311"/><defs id="defs6314"><path id="SVGID_1_" d="M231.5 155.3h333.1v291.9H231.5Z"/></defs><clipPath id="SVGID_00000119824040907289936360000005545950198423505064_"><use xlink:href="#SVGID_1_" style="overflow:visible" id="use6316"/></clipPath><g clip-path="url(#SVGID_00000119824040907289936360000005545950198423505064_)" id="g6321" transform="translate(-145.8 -45.4)"><path d="M483.1 244.2c-6.1-3.5-13.9-3.5-20.8 0L413.7 273l-33 18.3L333 320c-6.1 3.5-13.9 3.5-20.8 0l-37.3-22.7c-6.1-3.5-10.4-10.5-10.4-18.3v-43.6c0-7 3.5-13.9 10.4-18.3l37.3-21.8c6.1-3.5 13.9-3.5 20.8 0l37.3 22.7c6.1 3.5 10.4 10.5 10.4 18.3v28.8l33-19.2v-29.6c0-7-3.5-13.9-10.4-18.3l-69.4-41c-6.1-3.5-13.9-3.5-20.8 0L242 198.9c-6.9 3.5-10.4 10.5-10.4 17.4v81.9c0 7 3.5 13.9 10.4 18.3l70.3 41c6.1 3.5 13.9 3.5 20.8 0l47.7-27.9 33-19.2 47.7-27.9c6.1-3.5 13.9-3.5 20.8 0l37.3 21.8c6.1 3.5 10.4 10.5 10.4 18.3v43.6c0 7-3.5 13.9-10.4 18.3l-36.4 21.8c-6.1 3.5-13.9 3.5-20.8 0L425 384.5c-6.1-3.5-10.4-10.5-10.4-18.3v-27.9l-33 19.2v28.8c0 7 3.5 13.9 10.4 18.3l70.3 41c6.1 3.5 13.9 3.5 20.8 0l70.3-41c6.1-3.5 10.4-10.5 10.4-18.3v-82.8c0-7-3.5-13.9-10.4-18.3z" style="fill:#fff" id="path6319"/></g></svg>