<svg width="42" height="42" fill="none" xmlns="http://www.w3.org/2000/svg"><circle cx="21" cy="21" r="21" fill="#DBDBDB"/><path d="m28.29 10.139-5.048 7.5c-.349.511.322 1.13.806.7l4.968-4.329c.134-.107.322-.027.322.162v13.522c0 .188-.242.269-.349.135L13.951 9.816a2.484 2.484 0 0 0-1.96-.914h-.538c-1.396 0-2.55 1.156-2.55 2.581v19.034a2.58 2.58 0 0 0 2.577 2.58c.886 0 1.719-.456 2.202-1.236l5.049-7.5c.349-.511-.323-1.13-.806-.7l-4.968 4.302c-.134.107-.322.027-.322-.161V14.306c0-.188.242-.269.349-.134l15.038 18.012a2.523 2.523 0 0 0 1.96.914h.538a2.58 2.58 0 0 0 2.578-2.581V11.483a2.58 2.58 0 0 0-2.578-2.58 2.6 2.6 0 0 0-2.23 1.236Z" fill="#000"/></svg>