<svg width="42" height="42" viewBox="0 0 42 42" fill="none" xmlns="http://www.w3.org/2000/svg">
<path d="M21 42C32.598 42 42 32.598 42 21C42 9.40202 32.598 0 21 0C9.40202 0 0 9.40202 0 21C0 32.598 9.40202 42 21 42Z" fill="#FF0420"/>
<path d="M15.2307 26.88C13.9641 26.88 12.9263 26.5751 12.1173 25.9653C11.3191 25.3446 10.9199 24.4626 10.9199 23.3193C10.9199 23.0798 10.9466 22.7858 10.9997 22.4373C11.1382 21.6533 11.335 20.7115 11.5905 19.6116C12.3142 16.6172 14.1823 15.12 17.1946 15.12C18.0141 15.12 18.7486 15.2615 19.3978 15.5447C20.0471 15.8169 20.558 16.2306 20.9305 16.786C21.3031 17.3305 21.4894 17.9838 21.4894 18.746C21.4894 18.9747 21.4628 19.2632 21.4095 19.6116C21.2499 20.5808 21.0583 21.5226 20.8348 22.4373C20.4622 23.9291 19.8183 25.0452 18.9029 25.7856C17.9875 26.5152 16.7635 26.88 15.2307 26.88ZM15.4542 24.528C16.0503 24.528 16.5559 24.3483 16.971 23.989C17.3967 23.6297 17.7001 23.0798 17.8811 22.3393C18.1259 21.3158 18.3122 20.4229 18.4399 19.6607C18.4824 19.432 18.5037 19.1979 18.5037 18.9583C18.5037 17.9674 17.9982 17.472 16.987 17.472C16.3909 17.472 15.88 17.6517 15.4542 18.011C15.0391 18.3703 14.7411 18.9202 14.5601 19.6607C14.3685 20.3902 14.1769 21.2831 13.9854 22.3393C13.9428 22.5571 13.9215 22.7858 13.9215 23.0253C13.9215 24.0271 14.4324 24.528 15.4542 24.528Z" fill="white"/>
<path d="M22.2225 26.7167C22.1054 26.7167 22.015 26.6786 21.951 26.6023C21.8979 26.5152 21.8819 26.4173 21.9031 26.3083L24.1065 15.6917C24.1277 15.5719 24.1863 15.4739 24.2821 15.3977C24.3779 15.3215 24.479 15.2833 24.5854 15.2833H28.8324C30.0138 15.2833 30.9611 15.5338 31.6743 16.0347C32.3981 16.5356 32.76 17.2597 32.76 18.207C32.76 18.4793 32.7281 18.7624 32.6642 19.0564C32.3981 20.3086 31.8606 21.2341 31.0516 21.8331C30.2533 22.4319 29.157 22.7314 27.7627 22.7314H25.6072L24.8728 26.3083C24.8515 26.4281 24.793 26.5261 24.6972 26.6023C24.6014 26.6786 24.5003 26.7167 24.3938 26.7167H22.2225ZM27.8744 20.4774C28.3214 20.4774 28.7099 20.3521 29.04 20.1017C29.3805 19.8512 29.604 19.4919 29.7105 19.0237C29.7424 18.8386 29.7584 18.6752 29.7584 18.5337C29.7584 18.2179 29.6679 17.9784 29.487 17.815C29.306 17.6408 28.9974 17.5537 28.5609 17.5537H26.645L26.0383 20.4774H27.8744Z" fill="white"/>
</svg>
