<svg width="42" height="42" fill="none" xmlns="http://www.w3.org/2000/svg"><g clip-path="url(#a)"><circle cx="21" cy="21" r="21" fill="url(#b)"/><path fill-rule="evenodd" clip-rule="evenodd" d="M21 0c11.599 0 21 9.401 21 21s-9.401 21-21 21S0 32.599 0 21 9.401 0 21 0Zm11.427 25.616H13.57c-.204 0-.4.08-.544.223l-3.725 3.695a.382.382 0 0 0 .271.654H28.43c.204 0 .4-.08.544-.224l3.725-3.696a.383.383 0 0 0-.271-.652Zm-3.998-6.946H9.573l-.089.01a.382.382 0 0 0-.184.643l3.728 3.696.092.078a.79.79 0 0 0 .451.145h18.856l.089-.01a.382.382 0 0 0 .184-.643l-3.728-3.696-.092-.078a.775.775 0 0 0-.451-.145Zm3.998-6.858H13.57c-.204 0-.4.08-.544.224l-3.725 3.696a.382.382 0 0 0 .271.652H28.43c.204 0 .4-.08.544-.223l3.725-3.695a.381.381 0 0 0-.271-.653Z" fill="#000"/></g><defs><linearGradient id="b" x1="26.592" y1="14.038" x2="14.266" y2="27.505" gradientUnits="userSpaceOnUse"><stop stop-color="#76F8A4"/><stop offset=".541" stop-color="#678FD3"/><stop offset="1" stop-color="#904BF7"/></linearGradient><clipPath id="a"><path fill="#fff" d="M0 0h42v42H0z"/></clipPath></defs></svg>