<svg width="256" height="256" fill="none" xmlns="http://www.w3.org/2000/svg"><circle style="fill:#6fbcf0;fill-opacity:1;stroke:none;stroke-width:5" cx="128" cy="128" r="128"/><path fill-rule="evenodd" clip-rule="evenodd" d="M66.56 194.624c12.823 22.214 35.792 35.473 61.44 35.473 25.647 0 48.612-13.26 61.44-35.473 12.824-22.21 12.824-48.73 0-70.943l-54.038-93.595c-3.29-5.699-11.515-5.699-14.804 0L66.559 123.68c-12.823 22.21-12.823 48.73 0 70.943zm46.217-120.01 11.521-19.957c1.646-2.85 5.758-2.85 7.403 0l44.324 76.772c8.143 14.105 9.672 30.428 4.585 45.366a47.687 47.687 0 0 0-2.267-7.45c-6.122-15.45-19.966-27.373-41.153-35.44-14.568-5.525-23.866-13.651-27.644-24.155-4.866-13.537.217-28.3 3.231-35.137zm-19.646 34.028-13.156 22.787c-10.025 17.364-10.025 38.091 0 55.455C90 204.247 107.95 214.609 128 214.609c13.316 0 25.71-4.575 35.47-12.735 1.273-3.205 5.214-14.934.345-27.024-4.498-11.163-15.32-20.075-32.171-26.494-19.048-7.225-31.422-18.504-36.773-33.516a47.04 47.04 0 0 1-1.74-6.198z" fill="#1d2947" style="fill:#fff;stroke:#fff;stroke-width:5.80523;stroke-opacity:0"/></svg>