<svg width="42" height="42" fill="none" xmlns="http://www.w3.org/2000/svg"><circle cx="21" cy="21" r="21" fill="#fff"/><g fill="#ff007a"><path d="M15.957 8.925c-.377-.058-.393-.065-.216-.093.341-.052 1.145.02 1.7.15 1.293.31 2.47 1.097 3.726 2.494l.334.373.478-.077c2.011-.323 4.057-.066 5.769.725.47.217 1.213.65 1.306.76.03.037.085.265.12.509.128.842.064 1.488-.193 1.972-.14.262-.149.344-.055.57a.55.55 0 0 0 .493.311c.426 0 .884-.688 1.096-1.644l.084-.38.167.188c.916 1.038 1.635 2.452 1.758 3.459l.033.263-.155-.239c-.264-.41-.53-.69-.87-.916-.615-.406-1.265-.545-2.985-.635-1.554-.082-2.433-.214-3.305-.498-1.484-.485-2.23-1.129-3.994-3.44-.783-1.028-1.266-1.596-1.748-2.053-1.092-1.04-2.167-1.586-3.543-1.798z"/><path d="M29.405 11.218c.039-.688.133-1.141.32-1.557a1.682 1.682 0 0 1 .155-.298c.011 0-.022.122-.072.27-.137.402-.16.952-.065 1.592.12.812.187.93 1.045 1.807.404.412.872.93 1.041 1.154l.309.405-.309-.29c-.378-.354-1.245-1.044-1.438-1.144-.127-.066-.147-.065-.226.014-.073.073-.09.182-.099.7-.016.804-.126 1.322-.39 1.839-.144.278-.166.22-.036-.096.096-.236.106-.34.105-1.119-.001-1.566-.188-1.943-1.278-2.588-.276-.164-.73-.4-1.011-.525-.281-.124-.504-.233-.496-.24.032-.032 1.095.279 1.523.443.638.245.743.278.82.248.051-.02.077-.171.102-.615zm-12.714 2.681c-.766-1.055-1.24-2.674-1.139-3.884l.033-.373.174.03c.328.061.893.271 1.157.431.726.44 1.04 1.022 1.36 2.512.094.438.216.932.273 1.099.09.269.435.897.715 1.306.202.294.067.434-.377.394-.681-.061-1.602-.698-2.196-1.516zm11.784 7.852c-3.583-1.441-4.844-2.693-4.844-4.805 0-.31.011-.566.023-.566.014 0 .153.103.308.229.727.582 1.54.831 3.793 1.16 1.324.193 2.07.349 2.758.577 2.186.725 3.54 2.197 3.862 4.201.093.582.039 1.675-.113 2.25-.12.455-.486 1.275-.584 1.306-.026.008-.053-.095-.06-.235-.036-.752-.418-1.485-1.056-2.035-.726-.624-1.701-1.12-4.087-2.08zm-2.514.601a6.358 6.358 0 0 0-.174-.758l-.09-.272.169.192c.235.263.42.6.577 1.05.12.343.135.445.134 1.003-.002.546-.017.66-.128.97a3.074 3.074 0 0 1-.755 1.203c-.655.666-1.496 1.035-2.71 1.188a27.14 27.14 0 0 1-1.367.098c-1.363.071-2.26.218-3.065.501-.116.041-.22.065-.23.055-.034-.033.516-.36.968-.578.64-.308 1.276-.475 2.702-.713.704-.117 1.43-.26 1.615-.317 1.744-.533 2.64-1.913 2.354-3.62z"/><path d="M27.602 25.268c-.476-1.023-.585-2.011-.325-2.932.03-.099.074-.18.101-.18.027 0 .14.062.25.136.219.147.658.397 1.83 1.034 1.462.798 2.297 1.415 2.863 2.12.497.619.804 1.323.951 2.181.085.485.035 1.654-.09 2.144-.392 1.542-1.306 2.754-2.609 3.462a3.422 3.422 0 0 1-.381.189c-.019 0 .05-.177.154-.393.44-.917.49-1.809.158-2.8-.203-.608-.617-1.35-1.452-2.603-.972-1.457-1.21-1.844-1.45-2.358zm-13.455 5.52c1.33-1.122 2.984-1.919 4.49-2.165.65-.104 1.73-.062 2.332.09.965.248 1.826.801 2.275 1.459.438.642.627 1.204.821 2.45.078.492.163.986.187 1.099.148.646.433 1.163.789 1.422.561.412 1.53.438 2.485.066.163-.063.302-.107.312-.097.035.034-.445.356-.785.525a2.668 2.668 0 0 1-1.299.315c-.873 0-1.6-.444-2.203-1.35-.12-.178-.388-.712-.595-1.186-.64-1.458-.955-1.902-1.697-2.387-.645-.423-1.478-.499-2.104-.191-.824.403-1.052 1.454-.464 2.12.235.265.672.494 1.029.538a1.097 1.097 0 0 0 1.242-1.1c0-.438-.168-.687-.592-.879-.58-.26-1.201.044-1.198.588 0 .232.102.377.334.483.15.067.153.073.031.047-.53-.11-.655-.75-.228-1.175.513-.51 1.573-.285 1.937.411.153.292.17.876.037 1.227-.298.788-1.168 1.202-2.05.977-.601-.153-.847-.32-1.571-1.067-1.26-1.296-1.748-1.548-3.563-1.83l-.348-.055z"/><path fill-rule="evenodd" clip-rule="evenodd" d="M8.199 6.823c4.204 5.103 7.141 7.962 7.462 8.407.267.367.166.698-.29.957-.251.143-.772.29-1.032.29-.296 0-.627-.143-.87-.372-.17-.162-.86-1.192-2.452-3.662a262.9 262.9 0 0 0-2.266-3.486c-.064-.06-.063-.058 2.141 3.886 1.385 2.477 1.852 3.353 1.852 3.47 0 .239-.065.364-.36.691-.489.546-.707 1.16-.866 2.432-.177 1.425-.675 2.43-2.056 4.153-.808 1.009-.94 1.193-1.145 1.6-.256.51-.327.797-.356 1.444-.03.683.03 1.124.238 1.777.182.572.373.95.86 1.705.422.652.664 1.137.664 1.326 0 .15.029.15.68.003 1.56-.352 2.828-.972 3.54-1.731.441-.47.546-.73.55-1.375.002-.42-.014-.509-.128-.751-.186-.395-.522-.723-1.267-1.231-.974-.667-1.392-1.203-1.505-1.942-.096-.604.015-1.032.554-2.162.557-1.17.696-1.669.789-2.847.061-.762.145-1.062.364-1.304.228-.251.434-.336.997-.414.922-.125 1.508-.364 1.99-.808.42-.385.594-.756.621-1.315l.021-.425-.234-.272c-.847-.986-9.063-8.82-9.115-8.82-.012 0 .266.35.619.776zm1.998 20.583a.75.75 0 0 0-.23-.987c-.3-.202-.772-.107-.772.155 0 .08.044.138.144.19.168.086.18.182.048.382-.134.2-.123.377.03.497.248.194.597.087.78-.237zm7.313-9.496c-.433.132-.852.592-.983 1.072-.08.292-.035.807.084.966.193.255.378.323.882.32.984-.007 1.84-.43 1.94-.957.081-.432-.295-1.032-.812-1.295-.268-.137-.836-.19-1.11-.106zm1.15.9c.153-.216.086-.449-.172-.607-.492-.301-1.235-.052-1.235.412 0 .232.387.485.742.485.238 0 .561-.141.666-.29z"/></g></svg>