<svg width="50" height="50" fill="none" xmlns="http://www.w3.org/2000/svg"><g filter="url(#a)"><mask id="c" style="mask-type:alpha" maskUnits="userSpaceOnUse" x="4" y="0" width="42" height="42"><circle cx="25" cy="21" r="21" fill="url(#b)"/></mask><g mask="url(#c)"><circle cx="25" cy="21" r="21" fill="#31D8A4"/><circle cx="25" cy="21" fill="#fff" r="18.2"/></g><circle cx="25" cy="21" fill="#0E052F" r="16.1"/><path d="M25 37.1c8.892 0 16.1-7.208 16.1-16.1 0-8.892-7.208-16.1-16.1-16.1-8.892 0-16.1 7.208-16.1 16.1 0 8.892 7.208 16.1 16.1 16.1Z" fill="#0E052F"/><g style="mix-blend-mode:multiply" opacity=".4"><path d="m13.406 18.908-1.071 3.64L18.8 26.4l-.3-4.667-5.095-2.826Z" fill="#FB8E2F" style="mix-blend-mode:multiply" opacity=".4"/><path d="m24.11 12.785 4.966 2.869-10.575 6.08-5.095-2.826 10.704-6.123Z" fill="#FB8E2F" style="mix-blend-mode:multiply" opacity=".4"/><path d="m30.361 19.55-1.285-3.896-10.575 6.08.3 4.667 11.56-6.85Zm-13.474-2.633v3.922l.888.492h.306v-5.097l-1.194.683Z" fill="#FB8E2F" style="mix-blend-mode:multiply" opacity=".4"/><path d="m26.263 17.272.713-.41V14.44l-.713-.411v3.243Zm-7.375 4.239 1.426-.82v-5.734l-1.426.815v5.74Z" fill="#FB8E2F" style="mix-blend-mode:multiply" opacity=".4"/><path d="m18.8 26.401-.3-4.667-5.094-2.826" stroke="#FB8E2F" stroke-width=".25" stroke-miterlimit="10" stroke-linecap="round" style="mix-blend-mode:multiply" opacity=".4"/><path d="M18.479 21.774c-1.115-.645-4.014-2.249-5.073-2.865 1.07.564 3.992 2.19 5.116 2.787a.045.045 0 1 1-.043.078Z" fill="#FB8E2F" style="mix-blend-mode:multiply" opacity=".4"/><path d="M29.077 15.654c-.004-.026-10.672 6.253-10.526 6.077l.25 4.67-.35-4.663v-.032c.02-.015 10.605-6.035 10.628-6.052h-.002Z" fill="#FB8E2F" style="mix-blend-mode:multiply" opacity=".4"/></g><path d="m13.406 18.468-1.071 3.64L18.8 25.96l-.3-4.667-5.095-2.825Z" fill="#FA9B3D"/><path d="m24.11 12.345 4.966 2.869-10.575 6.08-5.095-2.826 10.704-6.123Z" fill="#FFDB59"/><path d="m30.361 19.11-1.285-3.896-10.575 6.08.3 4.666 11.56-6.85Z" fill="#FEBD59"/><path d="M16.887 16.476v3.922l.888.493h.306v-5.098l-1.194.683Zm9.376.355.713-.41V14l-.713-.412v3.243Zm-7.375 4.239 1.426-.819v-5.735l-1.426.815v5.74Z" fill="#FEEC96"/><path d="m18.8 25.96-.3-4.667-5.094-2.825" stroke="#fff" stroke-width=".25" stroke-miterlimit="10" stroke-linecap="round"/><path d="M18.479 21.333c-1.115-.645-4.014-2.248-5.073-2.865 1.07.564 3.992 2.19 5.116 2.787a.045.045 0 0 1 .018.061.045.045 0 0 1-.061.018v-.001Z" fill="#fff"/><path d="M29.077 15.214c-.004-.027-10.672 6.252-10.526 6.076l.25 4.67-.35-4.663v-.032c.02-.015 10.605-6.035 10.628-6.051h-.002Z" fill="#fff"/><g style="mix-blend-mode:multiply" opacity=".4"><path d="m20.671 23.488-1.07 3.64 6.466 3.853-.3-4.667-5.096-2.826Zm10.705-6.123 4.967 2.868-10.576 6.08-5.096-2.825 10.705-6.123Zm6.252 6.765-1.285-3.897-10.576 6.08.3 4.668 11.56-6.851Z" fill="#FB8E2F" style="mix-blend-mode:multiply" opacity=".4"/><path d="M24.153 21.497v3.921l.889.493h.305v-5.097l-1.194.683Zm9.377.355.712-.41V19.02l-.713-.412v3.244Zm-7.375 4.239 1.425-.82v-5.735l-1.425.816v5.74Z" fill="#FB8E2F" style="mix-blend-mode:multiply" opacity=".4"/><path d="m26.067 30.98-.3-4.666-5.096-2.826" stroke="#FB8E2F" stroke-width=".25" stroke-miterlimit="10" stroke-linecap="round" style="mix-blend-mode:multiply" opacity=".4"/><path d="M25.745 26.353c-1.114-.645-4.014-2.248-5.074-2.864 1.071.564 3.994 2.19 5.118 2.786a.046.046 0 0 1 .013.059.045.045 0 0 1-.024.02.045.045 0 0 1-.032 0Z" fill="#FB8E2F" style="mix-blend-mode:multiply" opacity=".4"/><path d="M36.343 20.233c-.004-.026-10.672 6.253-10.526 6.078l.25 4.67-.35-4.664v-.031c.02-.016 10.605-6.036 10.628-6.053h-.002Z" fill="#FB8E2F" style="mix-blend-mode:multiply" opacity=".4"/></g><path d="m20.671 23.047-1.07 3.64 6.466 3.853-.3-4.667-5.096-2.826Z" fill="#FA9B3D"/><path d="m31.376 16.924 4.967 2.869-10.576 6.08-5.096-2.826 10.705-6.123Z" fill="#FFDB59"/><path d="m37.628 23.69-1.285-3.897-10.576 6.08.3 4.667 11.56-6.85Z" fill="#FEBD59"/><path d="M24.153 21.056v3.922l.889.492h.305v-5.097l-1.194.683Zm9.377.354.712-.41v-2.42l-.713-.413v3.244Zm-7.375 4.24 1.425-.82v-5.735l-1.425.816v5.74Z" fill="#FEEC96"/><path d="m26.067 30.54-.3-4.667-5.096-2.826" stroke="#fff" stroke-width=".25" stroke-miterlimit="10" stroke-linecap="round"/><path d="M25.745 25.913c-1.114-.645-4.014-2.249-5.074-2.865 1.071.564 3.994 2.19 5.118 2.786a.046.046 0 0 1-.044.08v-.001Z" fill="#fff"/><path d="M36.343 19.793c-.004-.027-10.672 6.252-10.526 6.077l.25 4.67-.35-4.664v-.031c.02-.015 10.605-6.035 10.628-6.052h-.002Z" fill="#fff"/><g style="mix-blend-mode:multiply" opacity=".4"><path d="m17.205 17.69-1.07 3.64 6.465 3.853-.3-4.668-5.095-2.825Z" fill="#FB8E2F" style="mix-blend-mode:multiply" opacity=".4"/><path d="m27.91 11.566 4.967 2.87-10.576 6.08-5.096-2.826 10.705-6.124Z" fill="#FB8E2F" style="mix-blend-mode:multiply" opacity=".4"/><path d="m34.162 18.332-1.285-3.897-10.576 6.08.3 4.668 11.56-6.851Zm-13.476-2.634v3.922l.889.493h.306v-5.098l-1.195.683Z" fill="#FB8E2F" style="mix-blend-mode:multiply" opacity=".4"/><path d="m30.063 16.053.712-.41v-2.421l-.712-.412v3.243Zm-7.375 4.24 1.426-.82v-5.736l-1.426.816v5.74Z" fill="#FB8E2F" style="mix-blend-mode:multiply" opacity=".4"/><path d="m22.6 25.183-.3-4.668-5.095-2.825" stroke="#FB8E2F" stroke-width=".25" stroke-miterlimit="10" stroke-linecap="round" style="mix-blend-mode:multiply" opacity=".4"/><path d="M22.278 20.555c-1.115-.646-4.014-2.248-5.073-2.865 1.07.564 3.992 2.19 5.117 2.787.01.006.016.015.019.027a.045.045 0 0 1-.063.052v-.001Z" fill="#FB8E2F" style="mix-blend-mode:multiply" opacity=".4"/><path d="M32.877 14.435c-.005-.026-10.673 6.252-10.526 6.077l.25 4.67-.35-4.664v-.03c.02-.016 10.606-6.037 10.63-6.053h-.004Z" fill="#FB8E2F" style="mix-blend-mode:multiply" opacity=".4"/></g><path d="m17.205 17.249-1.07 3.64 6.465 3.853-.3-4.667-5.095-2.826Z" fill="#FA9B3D"/><path d="m27.91 11.125 4.967 2.87-10.576 6.08-5.096-2.826 10.705-6.124Z" fill="#FFDB59"/><path d="m34.162 17.891-1.285-3.897-10.576 6.08.3 4.668 11.56-6.851Z" fill="#FEBD59"/><path d="M20.686 15.258v3.921l.889.493h.306v-5.097l-1.195.683Zm9.377.355.712-.41V12.78l-.712-.412v3.244Zm-7.375 4.239 1.426-.82v-5.735l-1.426.816v5.74Z" fill="#FEEC96"/><path d="m22.6 24.742-.3-4.667-5.095-2.826" stroke="#fff" stroke-width=".25" stroke-miterlimit="10" stroke-linecap="round"/><path d="M22.278 20.114c-1.115-.645-4.014-2.248-5.073-2.864 1.07.564 3.992 2.19 5.117 2.786a.046.046 0 0 1-.044.08v-.002Z" fill="#fff"/><path d="M32.877 13.994c-.005-.026-10.673 6.253-10.526 6.078l.25 4.67-.35-4.664v-.031c.02-.016 10.606-6.037 10.63-6.053h-.004Z" fill="#fff"/></g><defs><linearGradient id="b" x1="25" y1="0" x2="25" y2="61.409" gradientUnits="userSpaceOnUse"><stop stop-color="#08021E"/><stop offset="1" stop-color="#1F0777"/></linearGradient><filter id="a" x="0" y="0" width="50" height="50" filterUnits="userSpaceOnUse" color-interpolation-filters="sRGB"><feFlood flood-opacity="0" result="BackgroundImageFix"/><feColorMatrix in="SourceAlpha" values="0 0 0 0 0 0 0 0 0 0 0 0 0 0 0 0 0 0 127 0" result="hardAlpha"/><feOffset dy="4"/><feGaussianBlur stdDeviation="2"/><feComposite in2="hardAlpha" operator="out"/><feColorMatrix values="0 0 0 0 0 0 0 0 0 0 0 0 0 0 0 0 0 0 0.25 0"/><feBlend in2="BackgroundImageFix" result="effect1_dropShadow_5735_52277"/><feBlend in="SourceGraphic" in2="effect1_dropShadow_5735_52277" result="shape"/></filter></defs></svg>