<?xml version="1.0" encoding="utf-8"?>
<!-- Generator: Adobe Illustrator 19.0.0, SVG Export Plug-In . SVG Version: 6.00 Build 0)  -->
<svg version="1.1" id="Layer_1" xmlns="http://www.w3.org/2000/svg" xmlns:xlink="http://www.w3.org/1999/xlink" x="0px" y="0px"
	 viewBox="0 0 387.4 438.7" style="enable-background:new 0 0 387.4 438.7;" xml:space="preserve">
<style type="text/css">
	.st0{fill:url(#XMLID_15_);}
	.st1{fill:url(#XMLID_16_);}
	.st2{fill:none;}
	.st3{fill:url(#XMLID_17_);}
	.st4{fill:url(#XMLID_18_);}
	.st5{fill:url(#XMLID_19_);}
	.st6{fill:url(#XMLID_20_);}
	.st7{fill:url(#XMLID_21_);}
	.st8{fill:url(#XMLID_22_);}
</style>
<g id="XMLID_219_">
	<linearGradient id="XMLID_15_" gradientUnits="userSpaceOnUse" x1="3.5878" y1="282.6924" x2="155.9824" y2="282.6924">
		<stop  offset="0" style="stop-color:#B6B0E7"/>
		<stop  offset="4.852235e-002" style="stop-color:#B2ACE7"/>
		<stop  offset="0.4188" style="stop-color:#9B91E7"/>
		<stop  offset="0.7479" style="stop-color:#8C81E7"/>
		<stop  offset="1" style="stop-color:#877BE7"/>
	</linearGradient>
	<path id="XMLID_412_" class="st0" d="M81.5,176.6l-75.2-43l0.1,85.5L6.3,370.5c0,14.7,7.8,28.2,20.6,35.5l35.4,20.3
		c12.6,7.2,27.2,7.2,39.8,0.1l53.6-30.5"/>
	<linearGradient id="XMLID_16_" gradientUnits="userSpaceOnUse" x1="156" y1="307.321" x2="311" y2="307.321">
		<stop  offset="0" style="stop-color:#6254C4"/>
		<stop  offset="1" style="stop-color:#7567DB"/>
	</linearGradient>
	<polyline id="XMLID_411_" class="st1" points="234,350 234,263.2 233.1,262.7 233.1,262.7 156,218.8 156,220.4 156.2,395.9 
		156.2,395.9 156.2,395.9 	"/>
	<polygon id="XMLID_410_" class="st2" points="232.7,262.7 155.5,218.8 232.5,262.8 	"/>
	<polygon id="XMLID_386_" class="st2" points="233.5,176.8 233.5,176.8 236.8,174.9 	"/>
	<linearGradient id="XMLID_17_" gradientUnits="userSpaceOnUse" x1="234" y1="241.7203" x2="389" y2="241.7203">
		<stop  offset="0" style="stop-color:#5245B0"/>
		<stop  offset="1" style="stop-color:#6456D1"/>
	</linearGradient>
	<path id="XMLID_384_" class="st3" d="M309.3,219.7L234,263.2v86.6l129.4-77c12.7-7.3,18.6-20.8,18.6-35.5v-18.3v-19.4
		c0-14.6-7-28.1-19.7-35.5l-52.9-30.6L309.3,219.7L309.3,219.7z"/>
	<linearGradient id="XMLID_18_" gradientUnits="userSpaceOnUse" x1="234" y1="198.4261" x2="385.7882" y2="198.4261">
		<stop  offset="0" style="stop-color:#6254C4"/>
		<stop  offset="1" style="stop-color:#7567DB"/>
	</linearGradient>
	<polyline id="XMLID_672_" class="st4" points="234,263.2 309.3,219.7 309.3,219.7 309.4,133.6 309.4,133.6 234,176.5 234,176.5 	
		"/>
	<linearGradient id="XMLID_19_" gradientUnits="userSpaceOnUse" x1="80.5844" y1="350.7089" x2="80.5844" y2="350.7089">
		<stop  offset="0" style="stop-color:#7A6DD9"/>
		<stop  offset="1" style="stop-color:#877BE7"/>
	</linearGradient>
	<path id="XMLID_294_" class="st5" d="M80.6,350.7"/>
	<linearGradient id="XMLID_20_" gradientUnits="userSpaceOnUse" x1="81.5384" y1="349.8002" x2="81.5384" y2="349.8002">
		<stop  offset="0" style="stop-color:#7A6DD9"/>
		<stop  offset="1" style="stop-color:#877BE7"/>
	</linearGradient>
	<path id="XMLID_293_" class="st6" d="M81.5,349.8"/>
	<linearGradient id="XMLID_21_" gradientUnits="userSpaceOnUse" x1="-2.1171" y1="222.3587" x2="467.5553" y2="222.3587">
		<stop  offset="0" style="stop-color:#7A6DD9"/>
		<stop  offset="1" style="stop-color:#877BE7"/>
	</linearGradient>
	<path id="XMLID_292_" class="st7" d="M11.6,48.9c-3.3,5.9-5.2,13-5.2,20l0,63.9l0.2,0.8L79,176.6v86v0.6v90l77.1,42.5L156,219.3
		l0,0l78,43.9l0,0v-0.6V176"/>
	<linearGradient id="XMLID_22_" gradientUnits="userSpaceOnUse" x1="3.7691" y1="92.2923" x2="413.7385" y2="92.2923">
		<stop  offset="0" style="stop-color:#6254C4"/>
		<stop  offset="0.308" style="stop-color:#6659C8"/>
		<stop  offset="0.6598" style="stop-color:#7467D5"/>
		<stop  offset="1" style="stop-color:#877BE7"/>
	</linearGradient>
	<path id="XMLID_262_" class="st8" d="M234,176.5L234,176.5l75.4-42.9l0,0L193,66.2v-0.1l-91.5-52.7c-12.6-7.2-26.9-7.3-39.5,0
		L26.7,33.5c-6.6,3.8-11.8,9.1-15.4,15.4c0,0,0,0,0,0"/>
</g>
</svg>
